<mxfile host="app.diagrams.net" agent="Mozilla/5.0 (Windows NT 10.0; Win64; x64) AppleWebKit/537.36 (KHTML, like Gecko) Chrome/139.0.0.0 Safari/537.36" version="28.2.1">
  <diagram name="PÃ¡gina-1" id="9_nw06J-UWEjoswSmbMt">
    <mxGraphModel dx="1426" dy="1954" grid="1" gridSize="10" guides="1" tooltips="1" connect="1" arrows="1" fold="1" page="1" pageScale="1" pageWidth="827" pageHeight="1169" math="0" shadow="0">
      <root>
        <mxCell id="0" />
        <mxCell id="1" parent="0" />
        <mxCell id="buVtFLvdcfRLBvJm5uAQ-1" value="" style="shape=image;verticalLabelPosition=bottom;labelBackgroundColor=default;verticalAlign=top;aspect=fixed;imageAspect=0;image=data:image/png,iVBORw0KGgoAAAANSUhEUgAAA4QAAAHECAYAAABhieR+AAAAAXNSR0IArs4c6QAAAARnQU1BAACxjwv8YQUAAAAJcEhZcwAADsMAAA7DAcdvqGQAAP+lSURBVHhe7J0FgFfF9scHFkSw46+izxZQLOwusLtbn9g+MZ4+W+x6dne32ChgdyfhU0BFQgmlpWH5/edz7u/szs7eX+3+cne+MHvv7965E2fqnDlnZlokLExAQEBAQEBAQEBAQEBAkYEoFoljI0eOMm0WbGfvWpr59pG8aWF/tbB/ckJtmPVBWHXDa5m8BgQEBAQEBAQEBAQEBFQ8VOhL5eoiCIQBAQEBAQEBAQEBAQFNCnGCIK4+gkAYEBAQEBAQEBAQEBDQTBEEwoCAgICAgICAgICAgGaKIBAGBAQEBAQEBAQEBAQ0UwSBMCAgICAgICAgICAgoJmiRWJ+OHYiICAgICAgICAgICCg6GhRe0RE/o6dyA1BQxgQEBAQEBAQEBAQEFAKlIFqLgiEAQEBAQEBAQEBAQEBzRRBIAwICAgICAgICAgICCgFCmsNmhVaJCyS9wEBAQEBAQEBAQEBAQFFg6wUlLuwhjAgICAgICAgICAgICCgqAgCYUBAQEBAQEBAQEBAQDNFEAgDAgICAgICAgICAgKaKTKuIUz10rdkbaw/Rb7DrZT4KyWdihB/XRQr/kpJpyLEXxfFir9S0qkI8ddFqeKvlHQqQvzxaGrxV0o6FSH+uihW/JWSTkVd//iOvijrNYSaTHWp0FB/6lKh0P7UpUK5+FOXCoX2py4VCu1PXSoU2p+6VCgXf+pSodD+1KVCof2pS4VC+1OXCuXiT10qFNqfulQotD91qVBof+pSodD+1PmI84NLhUL7U5cKhfanLhUK7U9dKhTan7pUKBd/6lKh0P7UpUKh/alLhUL7U5cK5eJPXSoU2p+6ckQwGQ0ICAgICAgICAgICGimCAJhQEBAQEBAQEBAQEBAM0UQCAMCAgICAgICAgICApop0m4qoy98DyxrzHbxZLb+FPkOt1Lir5R0KkL8dVGs+CslnYoQf10UK/5KSacixF8XpYq/UtKpCPHHo6nFXynpVIT466JY8VdKOhV1/eM7+qJUm8rUCIRRMuoj7jlJKmyyAgICAgICAgICAgICmjpE7JO7sthlVJPjuoCAgICAgICAgICAgICmibCGMCAgICAgICAgICAgoJnCCoRBHxgQEBAQEBAQEBAQENAc4QmEQSgMCAgICAgICAgICAhoLqhjMtrCCoSRq904Js4FBAQEBAQEBAQEBAQEVD5qBMI4wS+dCwgICAgICAgICAgICKhshE1lAgICAgICAgICAgICminKXiD0VzhmcgGVjbgyzcYVC3PnzpUrx3fOmzfPzJ8/X+4DAgIajlK154CAgICAgIAyFgh9BiEXF1CZiCvLXFwx0KpVKxEAW7RoIfdcAwICGofs2rLvS11AQEBAQEBAY9Aikaj2RtTirhJ0I6+eP99MnzbdzEfjYpMQvctuwF9ggQVMuwXbWt8JK+W2EKZ95qxZZt68uWbBBRc0rVu1rsO8N1c23qfmvOp5ZsaMGSYxP2EWbLugabNAG3lebPqQLtzc6rlmxsyZUR2waJGm+Fu1qrKutZQ9ZW4LvZ6Alq98qBbwjz/+MEcddZT5888/zd57720uvfRSEQxx+YSfbV8LSb7Iq7SZGdPlWbt2C5mqlunneIpdrsUGVNK2P3fOHHnWqnUr065tO6FXtvmn/uF/9pzZZtbMWfKsZVVLs/BCC8tz4pgxc4aprq42bdu2Na2rspsciKvOGta8ufPk92KLLdbky0lB3mfbcpo5e5bQpm27tmYB26Zpz3VpICUb3dYDPtNTTOvF1KlT5XebNm3EaZk1F3oHBAQEBJQjase4kSNHmTYLtrN3LS0vknxjB6mWWfAYjUFZCISagL/Gjzf77ruf+euv8dHzxHzTQvhbL4kx2GuvvcxNN9wk37S0Hw0e/JM5++yzzYiRI80eu+9hLrmkp1nIMnOguDksL7j0BgMGDjDHHnus+fvvv03Pnj3N0UceVTLakK4PP/3YXHTxxWbM2DEipALKUwVEqRP2Nw1j2WWXNf/4xz/MdtttZw4/9FCz6KKL2rTXpj5f5QwjCeP42Wefmcsuu8xMmjTJnHXWWWa//farw1TmE245Efp8p9RcIfnxJ54wd9xxu2nZskrq+B577Jl8Ux/5okc5A9JAq7vvvtvcftvt8rtDhw7mhReel4mhqiwpMLca4ayFufDCC83Lr7wiZdytW1dzmw2ztRX+P/zoI1sXLjUTbJ919NH/NGeefrpMCrTMIJCTHqf4BExi0Vf16dPX/kiYn4cMSb5p+qBtPfnUU+byK6+Ucrv11lvNHrvt5gmEcVTzkb528zXhd+q0pvw+88wzzcknnyR9S/ovAwICAgICCo3aca5UAmGZmYxGQzNaD/j/KkzyLIPVosqycRlcVVUrS7hIGAQDBw0yQ3/+WbQE3377Tc3McECEmqpnSa6VTZ/J8xKien61XFvacm3VegFT1bq1ab3AAknXxj5rLY1k7Lg/zVdff21uvOlmc+qpPczsWXOk3uQbMK3ffvutjeNU0Qzedttt5lArgBZKGFQcdfRRpmOnjubIY44WgdjNGmnC9enzupk8ZYqZMHGC+camsTmDOjGver6t0i3Mjt12EiGZ+jDCdq79BwyS59lWj1a2P5k0ebL0I4Q7d948c+BBB4vQV20D/eTTT83o0WPNrNlzzCeffGymz5iRURhMjdrDfqJrGpCBTK6ikMy3bUfkvYV0RK4wmH8IjZlkmq+xBwQEBAQENG+UnUAoTIEdrLt06SIz/Hfdeae584470rq7rDvyyCNrhEGw2aabmQ5rrGEZxGqz+eabm8UXXyL5pvkijleUZx5HVEq+knjHWaGLa+fOnc1tt94m9cB1d9x+h7nh+hvMfvvuZxZeaBHRmH355VfmpJNPNn9Pm2YZvSj1IjTJXe5QgWvmzJnmzTffND169DDrrLOOef75582WW24p7wopDAJJg42CK5MdLogbd8ghh5h2bduK2exmm22WfNv8YEkkEO2xva5lBekddugq5T9r1izzqRXgcsX3339vfhs+XO7XW399s82220lToY/q2rWbWXKppWxdqzbdunUzCy+8kPhrECTtzVQsicl7ISkhwmASVVUtJfpk1QkICAgICGi2KDOBsBb/93//Z3bcsZvZ0TJeO3fdMa3bybr111m3ZqhHDFhxxRXNiy++ZN579z1zzVVXy/q4YgDmAm2OanSydT7i/DTWAb1WApZeammzk2W2d+natcbtmvx9wD57mxuuu9bcc/fdIhCRry+/+sp8+tln6NVFgFJhyqVBKudDBa7vvvvOXHfddWbbbbc1jz32mJgf6vtCwg8dQScOmFi/3qeP+fijj8zuu+yafJo/xNEqF1csUBy22I3l8Q2i8zz755RTTjGtW7eW9++8846ZOXu23GcDrBSefPJJ2VWWtYMHH3ywPCdPxLPJppuat99523z48cemx2mnSX1gx9mGIhL6s6AYFSOTSwO3bNI5H6QvHfzvU7lyQzYkDwgICAgIaOooC4Gwho9JDs4u8+DyOemcC5iXFpZrY7OHlVdeWRhEHy4foAJcY6HpTlo91f7O0incZ6x7ca+NdT6Edt4Ln54+MoXZWBC/mwb9Hee22Gxzc8kllwjTPm/ePPPue+9G75ICVC7lEIetttrKfPjhh+bqa64hUBEUgF4LD3JTH8qgY1O+4j9WjLRV9rfSRZ2PVPmMg0ubxrhig3wjGHbosIbp3HktefbLr7+Yt99+W+4zgTQPGjTQfPHlF0LnpZde2mxu65lrv88t/cvyy7Xnl5inNtxkNHc0pL9yyySTywVx38c5kFTe54hUtVmR6X1AQEBAQEBAOpRcINSh3B3SEeaUifDfxzmgVxCZjrYwY8aNNWP/HGcmTp5kf9X6qGVOarkT7qf8PVXMFUePHSvX8RMnmOkzZ9akBafCozLkaAXmzp1nxowdZ0aPGWumTZ8hTA9utn0+cfJkeT5mHOmYbObOq5ZwuLIWifvpM2ba+P4yf1h/o204U/7+28ybX21dtLFFFFN0RTAkP+Rr3F+RaSXP8Dt56hQz6o/fxfFu6vS/bRzzxbF7pytU1tDO/pB7vfIsBlE8Nk82nIlTbJ4sbXFjbTzjbXpmzZ4tAlne4KQrFXgP47/99tuLRhnh74cffqh5x9/JU6YK/XFK+3m2zCjXcX/9ZaZOi3bo5Lk6QPnNnDXb0trS9PfR5q/xE2TN4sRJk+U5AoAyt3OroWzd7xX67G9bLyhjypdy/mvCRHlGGOIn+eH06TNlbRp+5syZa1+0sPWr2oyxz3g+buyf8nt+dUIEFNIyzqaLsGfj30LoJne1V8InLtbYkacx9hvS8vsfY4RGs2w4LvCXTJLQS9JoHXVgxqxZZsJE6qANw6aTK3WW+s576Kzisn6XyeULmnfaZ7sF25iuXbvatNj0JKrN/Q/eb+bMs+2AdqcE98BThP3er78WCf22L1p//S5mlVVWNlU2YKUnawrH2jZNHzPFtjuREB244XM/ffp06VPoJ/76a4KZYMuffgNvkYtPjwvxl7yfMXOW7Z8mmZGjfpey/NOGOfXv6VIXq5MVszbs6LvoaVSG3HOlD6I8J02hTpCfcTasv2Rd6pw5rMm1/R10SAENlxqCo6+h3/lz/F/SR+EmTJpgZsyY3qBJFHZBJiz6ZNoMJp/SZpKutsSjcqPPxu+ESZMkXemg4dBnUybjxto0j/nTlo3tzyxNsimTgICAgICApoCS7zLq4s+/Jpq999tPGIAdu+1o7rrzdtPKJiWb1JAJzQj+YT06rdVJBvWtttzSPPLwI/Z53ZBgdBA+f/31V/Pwww+bgQMGWuZ6rGwmwfb9CBnsYrnHnnuaQw85RDauwb8KKRoam3mw0+A8y2Ecd9xx5vQzzjBvvNHPvPDCi+aXX362zMZforFa2TKV7Ih5xulnmEUWWUiY+ZdefNH069fP/Dz0Z/O3ZSyrLUO3+hqrm+27bm9OOeVks8jCi9RJ94xZM82JJ5wg2ouOHTuaPq/3MYOHDDYPPfSQGTRwkOyqylEbfNd++fZmgw02MCeccKKY0CJAaFga4sCBA0z3Y4810yxDf3HPnuafRx6VfFMX0POjjz8yvV543vz444+yucpsKwRikrf4oouZ1Vddzey+227mgAMOkN0cGwLI+sGnHwsNSd92225v7r/3PtPK0jwV+GbS1L/NQQcfbIb9NkzWjfbr00e+h5+7nXWmd90l5fbM08+YTmuuaZ579llZF/jLL7+Y448/3px00knC7CumTp1mnnnmafPOO++asWPHSF5Zl0hel7c0XXvttWXN6oYbbmTLFe1Q8kMPPB5nGU3K5vPPPzejRo2SNYkIzmidEDKoD5gjLr7o4rbOtTC33X67udfmGUYYYYT8kfb5tl5QJ6usIPr444+bTTfeUBjavrbu/Puss2SjHdZX7mjrjUstvschfKAhe/XVV83gwUOkTsLws45qpZVWNuuus4458vAjTBdbXyRPVdF3ysITF3jxhRdsnH1tmxkmO2xiUsnmOssut6xZw9L+8MMON1tvs420Wz5JXXK1wE82/nIB7Z58/GLrxC677SppWXjhhc0Tjz1u1lt7HXkft2MX/v6aMN7885hjzE+2XZGyZ595zmy80YY1s2fQ5PsBA6Tc5ttyOs62n4suvFD6BTdM4uBIlyeeeELa+B9/jJa+ZYE2C0rfQj065ph/mk022dj2GWdKWfL9LxJvfVRXUxeMecbW39dtux82bJiUI8evcOTI8ssvbzbaaCNz+OGHyRpKF+RLnWKG7X9eeeVl069vP9mAa/LkSfIcE+zlbPrW7NTJHHTQQWYbW55KTx9uuKN+H2UefuRh8+0335rRY0abKVaopM9cbNFFzSorr2x23WVXqR/tHPN9lsY++fTT5rKrrhBB/fZbdJdRCxvdGCvc7bu/HRNsG9ygywa2T33BfhTlgtT4aTra0hOzcXaWvu3WW2vqFV8gsHbstJa0p7POOtscb/uZ3rY9PGv7BdrmZCtEVs+rlrq82mqrSF+2++67y/rcgICAgICAwkFH0rDLaD3IYB/RpkFAFwYTg9CHNicOHGHw6SefmCMsI9yrVy/z2/Df5DnM+hJLLmmmT58hG0tcdeWVlnHrbsZbRlEhwlXSwajDzACu1133X3POOefZb/uL5qVtWzacaGFGDB9pnnziKfPoo48Jc3fRhReZK664yvww6H82ndVWkGpr0xoJqI9YARXmhx03mXX3gXkaQibMz7HdjzW9e/cWJmyhhdrJOWaca/azZfKee+4588+jjxaGB0Rax+xBzGhVHrGM3r/+9S9hHmFswSKLLGIWaL2AMLlfff2VHFvB9vkcYQHtiwVm86f+PVU0BJxLqCAJlIcKVOzEecbpp5trr73WDBo0SIQzdjK1rwUoMIYPH2GOOOIIc8stt4jZ4LRp0+U4C1zr1q3MiBEjrbD/hgiECFhx+eQR7tv+A8zOO+8sAiFCNAI0wjJ0Q2PC+sSbbrrZnGmFgb+n/S3MPufcLb7E4lKG7HTJOXdc5dnii4sgEdW3ZGQWpAFXLUcl2N82Hzj1M3PmbHPDDTeaM2w8H3zwgUx6kBfSwVEso0bZPPV7wxxt6wkCAuFI+7OOfBDOlCmTzWk9epiel/Q0n336mRkzerSc7yd1wDLMo2wHRtis23vGMvhzqODJ79UVE7RLolx5lVXM/paxB9RLjg6BVqk6Vp7S/oYPHy7C92abby5CMvDzQf/BJIG0Rfkyqm+AOMaNGycTDjfffLMZOnSoxL/YYouLAD3Ztpn3339f6lGvXi/Yss/cFU+09feY7t3N5ZdfLjsnI9BTH9gwC8H+t99+M0899ZRMTr377ge2ztt0OPUAcIubMvVvaQuX9LxEJisQ3uh/OK+RtsJmOgixJ598soQZV89d/O/H/5nDrCDKuksmqGiTCKltbX2fNm2a1PVrr7nGdLf9KNq4XEDcrdhx2Aq+9OtMlmj/6wLa09dL+6DftA0ap2XigrZ47733mvPPP98M+uEH+U3emTRAyIYm5557rrnGphk6BwQEBAQENGWUp4bQDshsJnP/PXcI85IpNfhxM4F/jAM7rdlJBMLttt3OPPTgg/Z5FJIKix9//LEM+hMnTpTZegQndjeFYQPMmn/z9TeysySz5+wseOttt5oFvcPbv7XMzpFHHW3mzJ1r2i+/gpk0aXKN5od4YCjGWGHt1ltvk+MvVlhhedNl/S6yNo0Z+E6dOpr2yy0njCVaOLSV86rnmnXWXce89OJLkeCZjE01hAhgCCkwQMzoH/3Po03HDh3MUlaYJQ60hQgu/fv3l/V15O+OO+4w7dsvb6qs5KFpj9MQurREGIShZUMV8tF++eXNP//5T7PWWtHaLASC33//3Tz28CMiZKH94rw2GKmlllxK/GQL4hUN4fHHyY/tt9ve3IeGUPJfCzd9MLsPWIHruv/+V/J52KGHmSsuu1T84+/W2243d99zt/hdb931LPM3SLRh++67r2jGVlhhBdNhtVXF7+jRYyRvCM/L2fLYe+99zHrrrSuaL4RvtL0ffviRCOpzLV1WXnkV0ST+39K1+VTes/+AAcJsIwhy2Paee+wppq1oahFQKaOXX3rJCmDRGXeshXzssUfMn3/+ZWloOXnrp8fpp9nyG2A23GhDEVCZIIFx/b+lljaLLrKQ5F01hAi2t992m9l5x26WKFEamFHC7PTa664TrSLxoJUkj+3btxcH8zvs12FWKHnODP9tuJQnAuz6XdaTMObZOJhcOO2004VJnm8FvQ033NAccsjBpkOHjvIO2gy0+eW78ePHi4CIYHjSiScKIw8oD49/r4M0rxoMigL345CfRIMM7TrZNPd57fWa+Nx41f/xJxxvPrTtkLZ11dVXm/332z+aOeMlF/tR/4EDzYEHHiDCR/djjjEXnn+BfRF5QFhBCEHDj9CHdnm11Vaz/cEholWeM3eOHKHyw6AfzLPPPiOmpExAIdDxbSoN4bHHnWA+/uRjEbSO6X6M2Xqrrc0//rGCvEMTSd1+0PZzP/002CzQqpW0nS222MJUWUEK2pM6envK6MSTTpS6yVmfaCgPP/wIWW9NHzTThtX/u2/NE7bO/DX+L9O6VWs5cgXNvastIzy0bh999JHpecklMiFF37nPPvtIf9OpYyehOf3G66+9Zt7o289Uz5sv9Lzuv9dEYdi6GqshTBYM5p/77b+fmTBhgvTNTHCRZujulh3g+2NtGj/97FOzyy67mFtsv4VQL7AEoN9XDWH75drb9j7abLv1NmZLS6P111tP0jp92nTz+x+jzP0P3C9xUrePO+5YGSeIMyAgICAgIP9gRI14iFJpCC0PU21lFtfZYbVEGPfnhMRmW22bWLXjWomjjjku8duI360bad2IjG7S1CmJeTYMzcFc+3e1Th0Sq3RYPfHP44617+bXyeXkv6cmuu2ys/jZ54D9En9OGC9+cHOrq+v4f71v38Saa3dOrNZhjcQTTz0ZvbNcHvHgvv7u20Qn3nfqmFhjrc6JO++9X57PsR/PsTeka7a9nndRz8Tqa66VWLVDp0TndddP9HvrHQl/nn3HFcy2P0445RQbV4fEqmusnpg1d04yXVE4U2fOSBx29JGS7tXX7JjYfe+9EiNG/16TFqDphib7HXSgTdOaiVWt/2tuusGmg7zV+vl+QP9El402TKzRsUPi0Scet0+icHDQ8MNPP5H3pGWDjTeSvOq3uLk2PPz+Of6vxH4HHJBY3YaDu/X224RGuQDf733yUWLVNW3erTvmxBNseqNy0DS5btLUvxPPPP+CpYPNX4eOibW7bJB46/0PatJGPm+6/fbEKh07ip+11l0vcd+DD0qao/d1w549d26ix+mnJw44+KDE76NH23oQvZ9jywRHOc21D+657wGbx04S5wuvvFqHnnOt+3PCxMQOO+2cWGWNDokOtj7c/9DD8j3vQVSe0e/rb7wxsdU22yQGDBwYvbQgLaTxgEMPseXWKXHo0Ucn5vDMOtJgkyUOvNanb6Ljmp0lnjfefke+VeDn9b5vyPtVV++Q2GOvvRMTJk2WuIGb/zFjxyb23HPPxPHHn5D4++9pNr3zbBpsvq278trrJK/Q8MDDDkuMHT+h5jutlzOt//8N/Tmxuc0LftffaOPEwB9/qvEXxVg8zE+2T+KnzRxw6MHSXlax9fizr76Qul2TtqRf6PHL8GGJlVdfTfxutvWWiV9GDJf84Vcd334zcEBiZdu30A6vvPYaeS70TIb13PO9Eqvb/oJ2s8NO3Wx9+kPeaRhAwrJ/TjvzLOk3VrP0Xc3WK0mT+Iius2bPTVx3/Q2JDp3WTHTsvHai14svJdNRmx7ixnF/yBGHS7wHHXJITXrwhyMvl151lcRFnPsddHBinC1P6pXWb67g22+/TWxo23wH26+t36VL4vMvv6gJT8P8c+L4xE677yr9y5rrrZN46PHHJA6tW7g58+batjUncenllye23HLrxDdff2efRrDVPPH4E09ZOnaSdtrb1met22D0uLGJTbbYXOi8v22X5G9Osv1qOtQR59HHdk+sYcvu1DNOS8yunivPNC18SzzQuNPa6ySuu/Em+9SmMRkfaQFzLRG++35AYt31u9h+uGNiHXv9fsCA6GVAQEBAQEDewUDEIFSdGGH5jrHj/rRufGL02PGJP6z7nXsrIxXSeVOeSJ8FlkCzxKeffCrne3XbMTv31DNPJ7/MDGaKb7r5ZjGLWmCBNubSSy8TbVaVzbuuA5L7pH/M/lj7wmY1t956q5k4YYJI67XyvP2mqqUVruebnXbqZo49truxTIb9vtYHa6o222wTY7lPmf3+z9lnmR27dZXXxINj9r6qqoVZd91IO8Ps9JDBQ6J7+Zu8SpAtzDLLLGuuvOoqs0L7FcQ0Sl9peJgf3njjjbK2iCfPPvOMmTRpor2vD1sVZeadUAiDK8+eefYZ2WACU7d777nXbNhlg5rw0YigbQRora6+9hqzRseO8m3v1183M2fPEk2tJDcD8KP+9H7EyBHm3vvuM3dbd5d1d9j4b7/7Hrm/zOb7xJNPMldceYWsj0P7dfBBB8lsvx8OYG0mJq9HHXVk8kWUX80LDk3KBRdcIGvxll12WdGqSD6TsJ8IqG9odMDAgQPl6uLNt98yf/zxh9yjsTjyqKMMpsB8L/QlXntP2P/+97/No48+IhoV2xPIN4C6hkmmwnkl4FtmjlIBzcvkSZPNf6+7TsznllxyCdHaLrH4YjWm2LWGjsYsZ/PLgfs33niDaDRFA2NfokVivSWa9lVXWdXcesutNozoTE+C0e9bV1WZTh3WMFddeZXsvokG9Ibrr5d3pF39FQsuLdst2FbWJJOKqlatzJ133S3aIEC+tO2A53o9L22Z56zHY82opp1rratPfOjKuadsTvXkU7Y/smXY0sZ3cc9LzNL/t4z9HdEbp7SjL7js0kvljEsBDz0MGTpUTDFJJ9rdvfbZu+Z7TYXmlzKlDqPpGzhooHnjLVt21pcGy2ZKaJUxUe1s69wD9z9g2+6Skg7W0XLFEZwVAs0ttrxZ8zhz1iw5xoewiEnjf/Ott82vw36T8DAvPeaoo229TNLTBoIftHRoGS84/wLzwAMPyLrmbKDxRCCkutD3df1xT+ngv/ab6H3tb7SOZ9s+mJRqO0p2ZaZVq5Zm/fXXM5dffoVocqfPmGH6vfFGvXgCAgICAgKaCqwUowNn3QG0lIAZgyljfQ4mSAtkcgu2EeEJZCN+YDKF6R9rZXbacScxJQR8iWDhqmW5q7LMbo8ep8n6tClTpsq6PQRGNy6YfLDSSiuZBSwjzwYhylwRMpcll1jCzJ0zW75cbbVVa97BzMGA8ZNQZFMWmx/yNO3vacLkAf62sOUlbKW9LrLIonIwO1ATKgnDBoLj2corrmy22mIreUPaP8nhgG7W2L1lGb6qlq1EEFx/3fWFNho+YUYpi9K9VoeOZq+9YFZbmOEjRpovvvzKPo385wLMuQDruDCVvDnpMNfFIcw/8thj5quvv5bdTakjhx12mLn4wgtM2zYL1KTJBTTGNG4BW4ZRHhKmVZJmJE+TiKkom0pgVjbHhj1z5izxT72IvjGyYU9ry+jrM+DSnrqFwIE5KmvIqA/iJ5mwSNiKaEca1lht9ZpnLrRORXXSXpMJFV/Rq7T45ptvxCwO7Lbb7mbdddaWe63fUb2L6ibXVVddVcyQNR1QZ+LESWISTBs49thjzQrLLiPf09oiX9FVHfVkpRVX4rHUtR9/Spo/JtNex2ULx7/SOxPoQ2r9Jmw731HKjFT+8L8fpX5GsKm2bQmvkyZNMZ988qkICGyGcrQVbtq0ikwk3TyqMO9Cnlu6sN6TnWAx/UWA62bj3XabbaP6EnmtDcc6yhWat2+/XMq8sV5wmhVKFrH+Tj3N9kO2LPR7QE1iAoErAhuTC1023EDMt+++++7aemTdW2+9JSb5rE0+5NBDrHBvy9s+J2q8ST3Dr/2DUNllgw3NWp3XNnNsWP3efNO2tzkiRIF59qNeVoCebz9czrbZffbZT4pJTNKT4wp/pf3Ya5sFWpvOnde0fbv9kTWicOq7OMT5U5dEksTLt2eSLAJ0T5JIwD1LYHfcaWezRodOEMJ89vkXkm/HW0BAQEBAQJOB5etiBs0SA8aKtTbMJuMezOAeeuBBs8fuuye/zoy//hpvpk7928bTUmbBYQBgiKx8WIcK7v0Siy0qO46StiGDBwtzELFl9VEnjCQHAXMIYwRTBFvRwkaIv8hF9/GImKna93V/Af9bYVitY1MJ3u20007ynDVRQ4cMlfts8N6774rQDFiv1KZNtGGLho9DGUAc0G+uvd9oo41r1mC+//4HjeKgXIFIoUwzTDGM73777mfuu+9ec/5558vz5Os64Hs23dB7QnNppve8Qchn50w2jLno4ovNySedbM4791xz7z33CGPO0QoATZPCDYs1dmxERDzsAsumGi6zqXC/yRbyDWHFhBcH1o8q9t/fMuv2Oz/fuHRCFhvFkJelllpKNDvUhmgiI0lr69zPWYO45557RHS2Dg1jSqSOti40oQ7SpRkgwMon1h/1CO3mHnvsIVGyucvHH38ieSGNVVbKtxcz7LffxGoAkFc0hCAmeoH/TH+PnzBBNlqiVSOIu4gLh6rpbobkg82pSOdKK68kG6toGC4FqLf8A9TjTTfZ1Na7hGyQwzpR6EUfhLYXoPnq3Lmz3ANtzz4WXqid2XTTTW38LWVyhB2VEQAh/5/j/rLC9f/shzZtK60cadX5KBlOXHi5gxCtk7A053r1UMcPSH7XgHTY6iP9ZYeOHeyvFrKePCAgICAgoKmCaeWyxOKLL26FkM3Nlpvjtkjr2JBjxRWssGa/i9j99EB7IzspWkbm6quuNp3XWstwHAGHWHfq5Lk11zJrWtfRuhEjRtR8nw5iVuUxrLIToeWkibNYgKkBbASj8aLtyRaY/SmWXW45Ef5SgeBhbJdrv5xoV2Aaf/45Ej5zzfKYsWPkyiYsQ63w/fNPP5lf7BU3bOhQ8+uQIXL/2ssvmxuuu9Zst/XWpl3b5EY/KeIi/0oD9x7AKON48otloI866ijZROPVV14xX375pRUO3zH3WIGQjTfOOedcM3xEJDTEobVl2CdNnCjlzQ6QMN5+mlIksQa8z+QnEyz/biZNio4RoCwQDlxkEqgU06dPkytaaz1OBIEwTsgF5JVNZwBxcFyAn/90wEx8tdVXN6uvsYZZwzLjHTp1rHEdrWNjG+CWXzqQhsT8atEYItwjUIF3331HhBrywZXsYFJN20YQ4MgBgX2ZbfIJi2QxoYB2DiAopQNtSuInnhR5QoAFgwb9IKalq3fsaF0ns0aHDtZZOlnXwd6rW6PjGuaee++Rb0jHTNn4x4Zt/7ObKPdoMtnJVuJO0a41Nbo5F2lk4yHMnwEbbWk9WnklK6xqh9NEsMACrcwKy0eb9rA5E6axtWJ3QEBAQEBA00GkNiljwHpk6xoCzANXtwwoO0lyzcZxLEUlEA7GBddhjdWFoQNsd99gpCGyxqUaxcYgrjz1WSrXWGC6OXzkCHPa6aeZ7/p/L88OO/xwMVFFA4mmmrVZnF143nnnidCncBlEvVdGWZGl/FI0ZCtQASYyfMQ8EhCs1rWMiAlDBaO4yRMoms3xDAoJx14R8AAafnb3ZZ3fgAED5SgEQLgw+5hTEj+ark022URmy3KhUyqaAOKoWyNqkW0UbdsuaFZZdVXTqdOaZs011zRMYuHq3dv3keskjjMqmaSSdcI2HL9uajkwieCDV/hngiMb1Mln9qQrO2geMOcFWBiw1CAgICAgIKApouzlmlxAZrLNkDJFcobfa6+Z3r1fM6+99rq4Pq9H7vU+yavr7LMTTzxJzM3mZcv4OtC1jgWFZcSUMYPZHPjD/4ShI8/LLLOMeMkGMN+a3rnV82oZPQ/uc84IY3MdtAicUejznlnDfgc/KaZs0ZPod4wDem0IYPphljlOYsTwEaI94TzFK6+4Qrav33zzTc0WW2xmjjuuu60DvU3Xrl3liBGXseZOf3EEBEDwKCXIl4I1ij54H+d0jSHQZ2hQNY9uXn3wnA1IFGwmImTSwnJdDHr06GEuvfQSc8klPU3PSy72XE+z4korShykJx1IM6Dek3fytIAVjLbaemt5jibw/vvvj4QkGyCbhvw9fbqUKeaiug6yIdB6wZUNfeTeOpKcWrOagiAW0YZVCdOxYyc5vqHPa73Na71flXvca8lr3P2rr74qa1klnCQdAG00Uc0Zfck0xUTPYxy00vTpRkfJLApI29ykRhTgVb+tZLAMUs+eZVMqWTKQquIGBAQEBARUMIognTQO2TAVuTIe7IKIsAJ0jVOrqhayYQi8PDIQjhl/HLvv4WB0YAh0tjzbWfNiw6UHbPOI4cNrtDYwNdmCsxFVIEAzpoxeKp6Id2PHjDXz5s4TTeF6668fvcgVNiCJwslIiigF6d5lCwTZl19+WZhf1laxSQ3ww4YRPuH4E8zSS6U+Y5EdO2GSx44ZY2Y7wlGxwUYfCjaH8c1GMwGBFmECZpidZtk90w1BacMVR/AIF6wzU6y8SnqTSR/777+/Ofqoo8xRRx5pjjrCd0eYFWTH3HgBNxPQj+21557yLXUaDeGIEcPlXEDO0mtthR2e9zj11AbVKfIODVhDy4ZYhPHDDz8IzXBKf9dEk36Gx2igVJBU6C92QEaQG/3HH2KOyvO6PrMHFg6kq3petawthIzpwuM55yVq2tbstKZc6QvoS2Sdr333y8+/SH1JF1alQPu5uXOr5UxS8rjYoovKjrPyXv4GBAQEBAQ0HbTUAbwcB3JNj59G3wG9ZgN29GN9F3j33XfNGMu4w+/UhGUZNpzwOvY3/JvycB7PlkTpWYT4dEWMHxtJwFDCCG+88cbJN+lBjrrt0NUsufjiwgx+/tnnZtr0GbV0gmny4mSdDYftz7NMKwdY77brrsJcVQLQCsp6N8uYL7TwQmaJRRcTGpB+ZfQVaEnYVEa1Ji4QUzZmMxL70a9WiJ7w13h55n7vkS0nZKtgpv5uuukmcoA+5ccB+FmbclqQM+oLuzG2snmdMWO6+ciWbR3YjCgFyB/3mNL27dNHnlEH2MG3PpUyg2/SuVwh39k0rmyFmAMPOFB+T5s+3Xzfv79sJsPEEJMYO2y3venUoYPNWlRKDYkLAW6xRRaVNXWvvdrbCtTVEk5rZpViQP2aNWtWTX0i5ij26Lr55pvL5BMC3CsvvRzlRd5GoHxVYJPn9l6vCr3be++9pa5X2zb6vRWI3erkCqqKqVP+Nl99+aX0HyutuKLpst76NZvFLGzbyfbbbWfjamHGjR0j6wsBr7VpkLdCgiw62cwabtv127GGOX3aNDP4x8H2x3zTYY016tA8ICAgICCgKaGOQFguqGGMbKJgKGT9SxqnaXcFt3RgJ0TOoYKJmmYH/dtvu83Mnj1H4ps3ry4lJA02UBin9Px08dmFMaPHpN0khvT+NHiw+fqbb6SAZQ1Vly7Jt9lhv/33F2ZwyJDBssaK8qB4lErQRzFy5Ejz8ssvSfmt2amTWW3V1ZJvKgOstQJoOuZYQUru50XnRrpAcFAG3AdPOfMOLfSf4/401113nZk5s3YTojh57p133qkjrLkhEw/05DvoTlqyFQo5z3KTjTcR7dP7779nvvjii+SbCGw4opufED/p+M0KR2ihFJtYoZL1teCRRx4xAwcNknuyj6tJUzLRb7zxhqy1Irz999vPLLvMMjUTLKWG9itdd9hBNsjBbBKTSs74QzOMZm/3PfYQP/iMfEdl4Lp0oH2saAWnjh2tUGn9stPrc88+F/Uv9j1JcMsPujARMSRm91+Nid1O27A5kb2/+eab5VxCoOmrB/3QSyqCG9rvTpwVauvwU089ZX4Z9puU3/xqW89supIWrgI+pz0j6KEl23233SX9NbAejj76aDHFnTBhonnU1g8VAOfZ8Lgnf4TJddq0GebVV16r18emAxvfaLv8bfhvZuasqC3F5f3XYcPMz5Y2TIKlA+tTBw+JzncF5B8HZGfm5D1noI4aNVKsSbbdZhuhQUBAQEBAQFNElqxlcQEjxe6Gv/76mxn22zAzzA706dyvw341Y8eOFSa0VjxMDc7sOuigg0Q4gkl8vU8f8+hjj5rJU6aaVq0s25SkijKxaEfeee8Dc9lll9UIjuWAGTNnmP+c8x/z0cefWCYeM83oOcwNB+MPGTpE1mShtcGE7bjjjjMLtWsXecoSwtQvu5xoMDioGaFwhhVwlDYAevQfMNAcc8wxsjMpcXXv3t0y3fV32CxXUA84noMrJrY/Jc/P45Bq4PKC0JWJhFTYdtttzMYbb5QUxN43V1xxhZxLx26fclB/sgIhOFE+Z5xxhnnuuefkGVCSoWFDM8RGQA65BdRRZWLjwPuFFlrQXNzzYtkYg/I7//zzxUxyzpw50lY4mgHtH78RFnv27CmH96OJgg44NIQnnXSiCEvsUHnxxT3NT1Z4gemmbJXhZw3Zm2++Za659lqJC1NR8iVpsf60TZUK5AVUW9pvudWWZp11o4Pg+w/ob3r16iX0aLfQQqIJAghPcdBwUoEyadNmAVv/j5VJAXDHnXcK3WfPQVsb0Qs3Z848M3zECFsu55mRI0fUWYfnYvnllzf/+c85sh6THUd72jIYZgW5OckjUOQMQiddmHf/65R/mW+++Tr5JAJ948I2TUcccYQIxJxRedZZZ5nBg4dIv0dZEgx1fbpt4xxEf60tTyYIMB0+8MDkzqsWUqbWsd6SSQOOW4GOrLvlSB+0odCCcsffuHF/mjNOP0PqI+uyswW0XL59e2kzUyZPMS+/9JLERQuCloRNn8wxIph5jx03Lq0pP+Eg2PXr29f255fbceNPea7tm/2HZs2aY5544slIwLX1YrHFF5PzJHV31aTXgICAgICAJoOqS5FykmC4i4a80mD6jBnmmeeeNTPtdbxlSnu/+qp54fle5oUXnpcNP9K5CRPG20G7mzBy5IFB+84775LBf5VVVjH77L138k3EGLVps6BZf/31zWeffSrffvH5F6b/998Lk4VWCMbi9z9GiUnprbfeah5//DEzaNAgYfTZYl2ZcS5jrDD6yssv2e+qxSRzqy23TMaURPIH2rzer/YWpmSfffaWLenRvrG2CGZDGA3rFzO2Tz75RD7jnL0VV6xd90ccr73+mk3bH8KsL7nkUub55583X3/9lWXk/zR//DFahJnHbHo5lBpzWLba51wyjlJgp0KlEUBQeeXVV0RDst222wlNXCBMcAbdxx9/bIX06bLWqn//760w85ccwzFw0EDz6KOPmfvuv180HQhBMH4I3NzDmtWhRQaMsjTCvBEGd9WVVzZ77blXTWph/tKB164DX371laXN1xLegQccIMylMs96he6UwVJLLSlaMo5r+Pyzz0TT848VLO0tV0s5jRw1yjz44IPmHkvXiVbI5ut1rWCxw/bbSzj8Jr8IxJtvsYUZMmSIaBgGDx5svrQCF5MXCIGDhwyWenXTTTeZz9Ha2Q/R3m633XYSjuJLW6aU5QT7zV+2nKZMmWo++/Rz0Vgss2y0OdAvv/xac7bc7rvvblZfbbWavMMwL7XU0mbRRRaVcptmhYk33nzD/Pi//5m/bPmhcUEguu+++83DDz1k28EEERIxK1xiiSUgkDDXq6y6mhxdgLaLdCDkkqfJUyZLnr748kvb1u60beRxM8vWI85evOrKK83anTtLWqBzktRZIpVnCS26bShsQtrY8pk4YaKU8Zw5s5NtcL7ZfdfdzOFHHG708IS42MgL9eVP2z8891wvqeMbdOlittl6m8i//YNb1QrEtBcEQSa33n/vffOD7T949suvvwgt77v/PmmjnFnI7qGECb1P79Ejiivp6Bs6r9XZ9o/T5Tv8UU/HjBlt2izYxn4/yYyxwh3h33fffeauu+4yAwcONDNsP7rH7mg8CYW6GV1XX2N1M3nSZPHDZNF7771nhv36mxXaxpmff/7ZfPrpp+aO22+XfnWuFWL/b+mlzPU3XC91XUEeAQIbfd73339nvx9r6+tPtq59bIYPHy4TC0OHDpWNum657VYb3wAxn+20Viez2aabyvfQcpDtQz60/QtSGWbmHTt00CQLmIx4+5235aggzmTkOJu//54mWr5vvv5GdgJ+9NFHRZvI+l36QbSgO++0s2zI44Z1xx13ypWjUZjcgo5oXCdNnCRnDX7x+ZfmhhtvtH3iq7Jx0QILtDYXX3SR2WKLzaO1p/J1nSADAgICAgLyBni96GzipFwA7KCjPGuh0KJa1RUWRFXKgW78+AlmTysowZhqOqJrTRJTAlOvGy2DrcIOyjK2YWc2GUb7IcvIx+WNg6gvvPBCK4R9L8JWTbyW8ML8Vc8XgYp1QQceeKAIVawhg4kEmBcOGDDA/POYf8ruiieddJLsUAkwo2OnOgVaGHY1xVQNpq1bVyvAEoctAi1odJyPP/a4mBrCPD3+2BNmyy02EwrgMD888aQThQlfzTL/MJRofgbY9FfPr7ZMS5WEB4PLdUHLTG1hhRNMzTCV1XgUrJ3i3L0ZllH9zznnmOOPO97GE9EbYVqPHGAN4eVXXG5GjBwpGgPi0aMB1JRqiSUWl7DYhRWapTq4PxUI5RMroKNd5EsErXvvvU9o7dIoWyDkoZ2509IaPP3UU2YjywjGhSe7qNpnd1l6PvX002YqWjnLEC6xxJLCZM6YOVO0Oaw9PezQQ0VT8Ydlwg895BDRHLubnBAvYWHS+5///Ec2Fpk5a6a8U3rC+ONn4YUWFgEMphNB0sUbb79lTj/jDFmTyW6vfJmwaWLDFeIkfW9aphYBnDp5xx132DrVNfrYQvNIel568SVz0803idAOSIeWG/ekf+WVVjbXXHONMPiYkqI9RDNJfaBt3G8FmCeeeEKECeKuUx7JsFZbfTVzwQUXmm222Vreq49cyy5CFGYtGhJGLWDwVXuEwMJB9ax7Jf/UiRdffNGsvfbaQjegbVyh9GQDIsr0wAMPkm+7H9PdXHjBBTXvFVOmTjVXX321efvtt2W9or6DdpQj61BXWmklc+FFF5qXXnpZdjBGCzh48E/Sd2j8lB9g0uaWW24RAYvdLwmPNk+8lB/++KZdu4XMOjYfPXteLDuTAqnzcheBvoW2gdkoWn20xITBDrmSTlueCFOYfaPV29L2Iejlaku0Lv60QhhndDIxRT9IPkgb2ktAf7T4Youbvfba05x37nmmXVJ7StqfePJJc/W119i+er70UwiFeqYh/SH5Iuw+ffuI/2pbN6U9JMsNgXETW2c5U5ajYT6xAu2uNgzC0nMnSTf1WOlx5plnmA4dOppLLr1E2gR5Jq2kM0pzC7P0UkubHqedJu2dR9rC4ykQEBAQEBDQUDBCR6P0yJGjTJsFseZjTEq+sQOPz5PkG2UlEMKUoLHAtApoWjKliQwsudSScoA8wL8IhJ2sQGgZLxEIH3jADvryug54z8z7V19/bfq90c8KVgPk4HEEHrRjXdZdTzZOQKhCYwSTDPOAU9LB+P3404/CuHCQ8Uorx29ZDyOtu5qylocZbYCACGDGYHZgUBA+YAo7d15b/JF2YnMFQg6k7vv66+YvK0h/9tknoikcMHCAmT5tulnaCi5bbL6Z2WXnXcxWW24lB/3D0HBUhggj9h/CMuZ9AwYOlHsETHamVGGBK1DBgQPjP/joQ9Pn9T5iljZlymQ5eH11yzTuvPPOckTDKiuvbGnUWsJHhMlUdj4mTpokNIImCOGcq6ZMPIDmwrBmAfyi1Rsx0tLScnTrr7+eWcQKYFp2bjjkUMsTGj773HPm66++Eq0ughq7M+64405m1912NSuu8A8RCBCiMaWTnRvdsJLh8Az6fmXD6dOnj5QZmmc0HazL22qrrc2ee+4hOzeiVfMxY/Ys0Szde9+9ZsjgwZKOtdfqbI4//ngxbwVoHNHCEBdnzqHN9YFwBw2hA6Z1ffv1tTT+SUyhYaYRAPfaY08rxG0jZ/C5cOlCHP/73//Me++/bz744APR1CCk0E4QQKhrtLXlkrvT8p1bdqWGmw/w7bffihYNYN7JWj19Fwe+1zxhuom2jt/0C6uuumrSVy14B32YMELbRnwjfx8lcVFnmAjYbbfdRdvLLp20e46pqNU2Rmnx0/3rr7+afv36idb3e9tfAvxwxuL6XbrYetrNdLZ9YXTwfN1vFTxHYPvBlufbb79j3nvvXVkDzGTPkkvQl3Yy++6zr/R7/7fMMtK3pSpL6nNVVSszbdrfssMsx/MwwUbbQ5tNG6Fe0EdssEEXs0DLaKJB8fsfv8txL4B40Wor6EdI6zRbVzlGg74HrSv9w5K2rm+26Wbm4IMPNuutu65ZaKGFZEdUBNyll15K2hjpUhDWZ59+Jt+uvMoqopVn3eGLL70o9XmYpSs76tLnbLvNdmJVssYaHWwYEe2kTOQuICAgICAgnxBuS+6CQNgAkHQcjAoaHgZ/WBYyhECos8HbbrttSoEQJgHA8MA0wZC1sgyLPLPCEweWuyC+OKZRCiy6rQkzDioiwUTJbLxDcb5DMCMf3IuG0TriI0pC9QVC1uNoCt14CZfZdTelCHbQCv8wZFzdWf+4NAH1H4Ufva22TFWVzKSnBv7qhpQZaHFU26ZVMyqX+eIAZo1xZeBDv6dsgavFc8vRL1PVJPGc+uCeHUlIom2x7/zG6YanSJVOTRN+NV3kz2W6KRtKQ8uIkCStyavPoGu8cXG6adI8AK33wtS3rLJX6l9q+opgYN+hJavDbBN+Mg4/XeUCoZ2XL61Xbp5T0dH9Xusiv/UZgjfhAJ6pH6UHwhbti/LWcxS1nql/rqk6fX2P4xstu+hdtQ2rKuW3Pvhea0RtGFGaAEKTrk3En1gfOOWtkH5KaqTNi3XUVYU+B/RFgCfucxc+vRTa7wA0eNyRNp5Dg9Zy78ZRn/Y++FZpoPT0+zN+1VJE0x4QEBAQEJBvMBpFY1ipBML40bKCoCRsnWRW9DcbeCiWXrp2xjkOMBAQGua7VQv+RgN/rQChoaqri/pPMgPGEAhjYv9pTDXPbfqVUQOWXxHnxoaf0aPHyJMojCgPUQ7qMy/CfNp/MG38Q4gG0S/7PUxx8qvanNf6r30SCQW1ieKJGHfJfa3LHW6ao+zXhidmqKwJyjJsmDxAWnNpSFru0F+YYnsv9cM+h/EmXH5r+bjllC00TbiadNZjXqPnUXnW5kWh32UDN41uamvz4MddFxqXfsvRBU5KbLpIPzSJfmt6yw0+zci/CoO8w3Hv0kuR6ZlrPQDce4CGV+sWV7ee4Yvfbvn60LA0jW4dojzivtU8xUF9S3j2qmkiHLkmy5OyxYQzat91EaU8gr7lmVoH6Ft+R89q/fug/ot1QmzdoX+zabT1FBeFbdNp72t9c5f8lToagaSEfNrvCU3DJA79lPzwW12GIAMCAgICAioWjHMVC2GKLBPB+q4/J4wXVkBFEs7DA6zxy3QYuzAX9iO5eq6WyYhcwnqM/tU+BXrNBJfZUeYIrSBClwpy+BHhTRi/6Ik4EsnbRC1jhkkiiJitWnAv3j0II5T8x4y/3us7idveY1qqz/QfcagjrcqM6jtNfV3XUET5RFARbQVcKXHYizLG2SAbv74fZZBxwqQms8FzJh4kz9apxkav+YdLv/r0bEicUs+doDSfmUJKFRc1BlebPt+VF/x88BuHdg+kEp5cRO0yCsfVqvnQsNOBt+l91AVxaxqzSWsm1Ik/WWQtkuFGkx9RjxonDMaBXkDD07BVmFLXEEi9tVc3rOi+tq3iajIhLjPqhlUL9z4gICAgIKCpg3Gw4vH5F5+b40443vR+rbf5vv8A83rfvub6668XholjFljb5kMZAWX2lQGoYZbF6U1dwB5F/2q9KjTMdI5wI8GKArDCFRu02Oe8cv2AGqGLa00qIyZI4d4rJB24ZHji3Oe+S77XONAQRL9rXY1f61xEz6L0ua6WNcwV5N3SV2jgMqJ6H70vFHwmnsPq5Wqf+0w4v+tr9rJHOoEhKoEor5GvKG6+ifsuXVj5Qt046pdDpvelhKaNMvPL0TX1zBaUe4PKvgFk0fSSPo0z27hzyVMt6tdrFf4JLZ0DelX471I6m816fVXyd31E6VGC4ifqd+xvHlnUCcdzkd/o3oX+9p8HBAQEBAQ0VTScky0TMGizhf/gn34y55x7rjnk0ENkl082Xmi3UDvT47QepmOH6GwxhT/g52vgzyWcuLi5R/hT+O8UmIrOnTNHdkBtvxxndNV978IPI5WLNH3RPXDvSwUYWRjhhjG0+YWmwU0L94VMmxsy9/mICTt0XMkLt8yQSzk2utwbQH+Ns1HxZoKmS0xFo3hqrkm5S71kcqkQ59d1ilTP08H/JhuXCpneBwQEBAQENCVU9KYygE0FRv3xu3n66aflgPk/x/0la3U22WRTc8QRh5utt9lGzpKSWeZk5tx8qsBRI3iw9lA9CgdUQx5BtHGBhqD+IugTh6Qp4TN2ruDjfu/7w5STHT45h4t8snV6u7ZtvJRE8NPhh5V/+PnOPT5M8CLz0FotTny6eZY+/CisyPQWuOG49M430pVfHFKnBY2oPtcwozmcVN+ky1e6dKnZa6ZNZeqC8GrDjAfhZBNWQCGQrp64qOunfrmq/2itaeHKszae2jjinkXQdOrzyB+I1pDXalMDAgICAgLKFzqehV1GC4ZaEtfCzSfZh9HQa7kLhLzxQ9d4ffjp8MPKP+JSlhuCQOgiCIQBjUO6euKirp/65ar+g0AYEBAQEBCQb+h4FnYZLRgKS75yh1Yw3wUEBAQEBAQEBAQEBDRFgdCTeZqv+KOESOXyCcJDm+XHoc+yR3aaqeyQz7CKhUgborQD+luRGz2zhdIqaFQCKg9+G4nqcyW2/4CAgICAgFKg2XN/yjTUMA91mAju6zIVls1w/tX6cH0pM5LO+XCfpfOXHSIGyQ2nblj1GajGgbDj0prqeSZE39VPtyK3cOPCiQ83P9D4so2jvj9+x31b+zxV2Oni1DRl4yc74C+d30zvAwqNVGWp5Rxf3vXLLfLHcFHY8oxLT/30KeqnM0Jh0xgQEBAQENDUENQBGaFMR+Rq//lvItd8EUcNXG6oZf78cHyXGakZyfJF5vwXBsSrLjf46fNdQGUirixxpUHqeumnL3IIr7nX5YCAgICAgOaJIBBmBZ/hCIhHvunkh6euuaBS8u2nU11AZaNSyrNS0hkQEBAQEFCGSASBMCAgICAgICAgICAgoNmiiQmEVsSVAwfrrpFravPHmfOT+k2ETO8DAgICAgICAgICApoDmpBAqEJgXaeij+/ygvgoC+cs4vKCq484X64LCAgICAgICAgICGjuaCICoSMx1UGq53lAgYJNi5zjjBMEcQEBAQEBAQEBAQEBAWENYUBAQEBAQEBAQEBAQLNFEAgbiopQtKmG1HcBAQEBAQEBAQEBAeWE+ly6z8PX95Eacd/GuBaJIBA2Cr4lZiFcgxFT4HVcQEBAQEBA5SORCGNaOSGUR0BA7vA59Ohq/4os4L5Vlwlx36R2TUQgTCU9NVqqqlBoAadCpvcBAQEBAQG5wRUE5s+fn7yr+zxb5PINft34AkqPbMqjsYIj3zc2jICA8kAkr+hWmHVqta3j9SUZfKSr+5ne10eLaqc1Vb745Ge+AbnJQxB5RYPSw0f+hz4qv7QDAgICAkoHmP7q6mq5tmzZ0rRq1UoY9NmzZ5u///7bzJo1y8ybN0/8zJ07Vxz3PMPpM/2+devWEoa6Nm3amKqqKrnnusACC5iFFlpIHGHjf8EFF5S0EB7+WrTIflxT9ieXbwJSQwU06Ek5z5w5U65t27Y106ZNMzNmzKhX9lofuFIP5syZI88Jg/JVR9lqHdHf6hZddFH5fpFFFpE48af1hvt00PQGBJQayrmPHDnK9mtt7Z0VDKWPcvop+z/6Bai3qepu7XfZookJhHmAT79SE6RB6cmmIoTSDggICAiIRzaMMkLfmDFjzO+//26GDx9uRo0aZZmZkcL8w6DjCAdGX52yHO5z7mHgYd71PXHzO87hd+GFFzZrrLGGWWmllcw//vEPs8oqq5gVVlhB3mVKN3HghyuOMAMaD2hJHaA+DBs2TOrCb7/9JvVE64Nb5jjugf+MK2Wk9YIr0HqhZcwVwY+JgeWXX96suOKKZuWVVzarr7661AuERPUbB41H4f8OCCgWlHNPKxBaJGqqJzep6mrtd9kiCIQ+fPqVmiANSk82FSGUdkBAQEBAasCY//nnn+avv/4y48aNM6NHjxYGn+uECRPMpEmTxJ8y0cqwwJwjsKHJUy0OTDyaHbR8MPc8454rv1VrpBok/7dqlKZPny4CBvcuVHBYYoklzP/93/+JcIhQ0L59e3mGsIAmCT+aXq44ngXUQunjgmeAukDZjx8/vqY+jB07VuoH7+JoSTm3a9dOHOWtGj7V9lF2esWvlhECJOXMVesA92gR9YqbOnWq1Aug6ST9hId2cqmlljLLLbecCIs46gLPlllmGdFC+/n18x4QUAwo5x4EwnKBT79yIIimKeu01FYEt3Osi1DaAflH6voWUA7wGZ+A5oVU5c9zHIw45p7/+9//zJdffmk++ugj+Y2pn2pyYMwJA2Ybph4tDA7hC2YbTZ0KgoSHX/WvcesVP3oPSAPxuNoiHND4EQAAAolqof744w+5RzBRf4D4cSp4IBxuueWW4tAi8Q4Qh58O/a3xu++bCvx8KzTPCF2U2y+//GK++OIL88knn8gEAc+pF1yhITTnym/qgtYDhHLovOyyy0o4Wgdw7j3x8T33egU8J0y9xxEXz/Q3/jETxSGgjhgxQrSUXKkbaraKX40PoRPHpEWnTp3MdtttZ7bZZhuJB2j8AQHFBK0Ol5tAmA6138aj7vdBIPTh0y5LgqQiuf95tv4aB2KJOku3Y60LntfO6Or7TB2hH04q/3547neZ4ghoOLItx0KB+IlbrwHFRyrau20QaDm50O/0eS5l6IcF9BlMW2Pghh3qVcOhjLsCuk6ePFm0PD///LMZMGCA+emnn0QDp+/Roqg2Bc3KaqutJtell17aLLnkkhImzD3QOuXXo1RQ/wr/t484/0DjZF0hWirVXiEUYL6IBgkhAeGA9OIf4XCdddYx66+/vggvq666qmg23fDi0qJxVjLiaAh4jvBPfUAIHDRokPnhhx9EI6jvF1tsMRHwqBPQkPqAAIhWFk0sgjfIRKc42ipypbGG5X9HWaM5RHupps0IiQi11BGe4weHgIgJcufOnU2XLl1qNIlNobwDKgPUYlwmgTArWK9WCrA30bf1oWHp1fZ5QSD04NMuS4LEkT2Ontn6azwQCOdLBarf8WpstbH6HWqqiueHlamC1o878zcBDYdfji545z6PKxtm/xnQeef698Pz4+E33zLjr9/hfH8BpQNMD9CyAVo+cXDfqf+47+LK1g8XPzyL85sNMsUXkB2oAwiE0HPw4MHm2WefNQMHDhRtD+1X2zDMMBoTNGkw/zyDYVaNnl+++UIhwkY7hMPckDyrpmvixIk19CBvmBbuuuuu5oADDhChJ1VamkL9I19u/rgiMPXq1ct8/PHHQivqBPThHZMBaNE23nhjEZoQnKkLquXDj4alcOmk9/hx71PB/TYV9HuNPxvglzzpxjVMFKAJ//zzz0X41T6SfDEOsj71oIMOqqM9bOzkVkBAKlCLcfkRCBEHM7ULwtMwbdsMAqEHn35ZEqS2yGoRR89s/TUUFKfa1E+ePEmuuIkTJ5kJE8bL/cyZs6SzZzZVO0ZmTrnym3c4Oj46RTp+7OxxDJwMBtwzgPKeZ8wW41ijwSJuBlRmCzHJ4HvC0srsV2rSnFNFb0ZQ2mgzzUQnypfZfRwz//xmnQ/MD78pV8rYLWetB/ob5kkHRC1vrlrm3PMOR1kzU4ymgHsc9YCr+gWhfBuHXNqI1hXaM/WA8uc6ZcoUqQ+qQYH5p9wpfy17nD7TegKTRNlT3n4foPVCHe2f+oC2gDrA78UXX7ymPmSCX8/d37nQIKA+LakPQ4cONd9++60wwQhHAPNOGF8YfTRmOASAdIyvhp1vaDnnG359oo9DY4gwjFNNIm0CbLbZZiIMoz3E7NGte5VaB/36QF7ZCOi7776T+oB2GD+0aSYEMAFGU4bGDBq49UEFJ+DSo1Jo45an3rMREm2if//+ZsiQIVIn6CfhXxjftthiC7PJJptI+6BfU7hhBQQ0BrRQXF4EQr6xQmF62PASyTCt3yAQ+vDplyVB+CzuU//zbP0pKB6niKRTjn7bL+xlru3Uh9rO6/v+35lff/1VBjk6MTpstZvnXge6VHA7R5Cq4rlp8cE37roAnUFEQMAcB9MSBpgOHTrIc8LS/Ljx+b+bM5TePt2hG6YwDOI//vijrJ+h7BH61C9l7g7c3POd+0yhNPdpr2FlKg/CxQEtd37rWhLWaWy00UaysN8NU+9BKPN4UF5KK2jq00+vMDHUB5g8+gL6AfoAvtcrdcKluRuWe1VofXG/AW7cLtzwdFKBMKgTTBBRF3AbbLBBTT+A0280TDccN24/voD0UHrC5D788MNiBojQzzOY3H333dd069ZNJvAQBLQNNxVo/hVxdYn6zcQHZpFPPPGEeeutt4QOOCY5tt9+e3PYYYeJeSTtiLpcSXDzDMg39eC+++4Tc1DtG5i83Wmnnczuu+8ukzpsAOO3TfeeK99xxVUSfJooNG86OY42+fnnn5eJFPoypVP37t2FTjzDv9Kj0ugQUF6gVuKKJhCKMKhh2jocBEIPPv2yJAifxX3qf56tPxfa4TCDyeL5334bbobjRowwo/8YbWbOmokvccpguRo6ZrN0vQfPdXbf1fzoPR0cjnvipGPUzpFrKk0CWge0UKqZwqGRwDHgKOhQCRumkFlphETdMhx7feIMnWoEbZrQmLJnxpK1HXrPBgq+oE95o43hquWNhoa6wCBPWcPQUAZa9ur4rVoc4iZsylnLWMvfvae8KXvVPqGN4p7nOPxqeXKlLlLubDSARoJyh9GiflYqc1EoaPkroAvPMO2i/JkAoD6wJobfaPm1/eAoZ+hNHVBH3aAeYAZImdPW/TrAlf5A+wIYY8pa+wEccbn1AMcz6gCMNU611VonqEcuiIc2Tx3QCSPdhMLNu+Zb7wNSQ+nEFdqjDezbt69owQCaW8z+cBtuuKFoBwMieuG0bn/22Wfmq6++Erox8Ua/iNkgAtN6661XcfWQvpU2yoTRK6+8IhMEtF36XSZn0IhSJ+gflBb+5ADPgJv3uGeVBvIQl36eQyN4GSbXvvnmG/P111/LxBs8DZObu+22m+natavcaxiVTIuA0oLWhAsCYbnAp18WBNFP4j71P09VPKmiQfPTr18/8+GHH8pAxeDUogUddfQFDBsM1EYbbmBWWXUVYaronKqq9MymKtOiZd3Qq+zzKAybnhSdIXCqRj0/ce94RkfJlQEIxwBLZ8qGBWgtME+BeVX/OGU8EVroXJl5w2SpuXesrGt47733zPfffy/MNIv9KVOlGzO4aN4wa8K8B6Yapj8q98gxOaDfAJem+gzwHAEQv/o7zq9fJlrOxEPZq/DPMxVk0VixUQXMKcIj0HAQQPgWoYCZ+B133FHy4MdD/P6zpg6lOVcmgt555x3zwQcfiLBFWeGULtAQwRqmjnpAvYD5V20tTsF9JlrynrC1PH2tiMbrptGtZ1w1fTjCYQIDAZb6AGNFPwDDRTh8S51BEKX8t956a1nPhYaZuDXcTOlu7lA6wfjfc889Qm/oSjs75ZRTpH0hiGtZ4bTNB9QFYxebj7z44osyBvMbOm6++ebmxBNPlHG2UmiHKeSdd94pYzCCIek+/PDDzYEHHijCrvYPtC/aqt/emyNoG25/w2/qAGMZbQstK3SjTkDLQw89NLSlgEaB3huXb4FQvopuPdQNLwiEPnyieQSJpalF3PNc6UlRsDMaJoBs+43wxG8tIhg8hD80LJ06rSWatfbLtTeLLb6IvK8LvkmV2tKWNNoC3SqcThUGkd8IjoBKj2CLoIO9/pprrlmzpgVaNEWmkHwx86hmf5S/7uyGsIwmRTVrCE9cEQBgoBsDrVuNoWkuZYJAiGaLMmeygyu/Wb9BOGgsOnbsaNZee21xrF9RLQZxNMWyBwhGlLOCtoA5F30Bs/nQCsae/DOrj6CE4Edd0PrABIG2EZi6bAS/UgINIrv8waRSDxAQ6QeoIyqIki/6gHXXXdestdZaokF085RL3WsOYAIGE7c333xT6hQTRTvvvLPZa6+9hHGFVtQjXGD6swdj1csvvywbrtAvIwxibouAjRYeupZjPWQShnSjJWZCmTFkhx12EDNhxg/aj/YZitCe0gNaMdkFf9a7d2+Z3KK/on864ogjRNsaBMOAhkC59pEjf6/h7RreNu13rAtM3maCjKVBIPTgE84jCK+zoK0gG3rSsWACBnP05JNPijaIZ8r8Yfq35557SgeOmZdqVKQTTy4FSyr7HGSTytKXtlY9zS+CAes33njjDdGGAfLJjPamm25qjjzySGF++a4pdLiqQUH7y25/MMM80xlahGK0JGhLYDp4pkKDNN4KHLjJH2WnaYdpxSH8oAHj3DNmYXXmFSGH+o/WmG+YFGlq0HZAnYeBe+6550Q7rG1Ayx3mk/pAvYAWrgAJNJxKqhe0e+qD1gvqAloZBJrXX39daKACDPllHaqu50Iw9ttBpbaLxoA8QyfMG6+77jph/OlD/vWvf0l9UY0ggDbNjT75APUPIAw+9NBDMk4BhIDLLrtMtNraHsuBvmgB0QpeeumlNZNtRx11lGix6FcB6eR5UxhLiw3oBqAzfMu1114r4zd9NQJ3jx49ZOxShDYXkA2oVbi8CoTJzzN9STxBIPRRS/sIHkF47XtJhUz0ZEacRcuYgaEBgBliYEErgl0/mjGcQs06QPqKkU0qM6WusGCA9fOgv6EDmhGEBLaChtGh42UgYyMKTAvZAY5ZWqnEye/c+3KENjUEHjSjCD9sf44QQNmytgutKJoxtCIq/JInnN5rOA1BqenjlpHWATdNaI8pd8qcstd2gZaQDYmYGEEo4LfSotR5yhWkGQcjxpUJIdYrMTGAZhhmHmaCts96JbRj1AmYDfyDOCZOwwVKk3KjjabPh59O/CEkYmoOTdCaUy9UQKQfgPFi5z93B0S+q7T6kCv8MqbNoBV89dVXhT4cD3DwwQfXjB3qX2mD494Np6nTLF9QmtF3M4nHZiNMTBx//PEyYQNKRUvtTxkrX3jhBXEIg0ymUh/oS/x2old9pgj1ITOgF47+mgl9tIWYFmPdwW6kTMigkQ20DMgWtEBcEAjLBbW0j+ARhNe+l1RQegqhnYLEJOqxxx4z7777rnTiyvAyg4dpDxUB/25FqA8bnr6WoF2/6VMZpUVd6eDnz6UR73BKn2eeeUYGYMBvZmP33ntv889//lO0qCC3xlIawODecccdYhpK/mB6EfyOPvpoEXLJQyrNTz5QahppXjKlQ2mDCRwaM7SHMDMqRLEeCpMt7iuh3BVuWbLpB1YBL730kjzHoc3h3CvW9qgJqMvEgVT5dcNWVAJtSHdcOt38cA/jhdADzWDAoAtCMgIQDDkTKoRTSfUhV/i0on+8/vrrpX0wqXTqqafKRhdqRQLi6gXQ502dZvkGdMMxsXfVVVeZTz/9VOhNn7T//vuXjJYqEN56660inHB/zDHHiGWN9ps42pE/xgCtDyDUh8xw6QX4jfk72kFozAQ2ZcESiICAbECNwgWBsFxQS/sIHkF47XtJBaUnJMZhWoAtP4IgzCAFziYQMDQIAwwq+NOBXOEUkQMbsj6WNLp+0qcyqlTqSg/Nn1/ZGeAAz3GYQjH4so4D01o22EFLiMYQk0I0BaUGefHzoRpPdndDI8xvZpXZtQ5zUDTCDND6LfnWATzf8NNWbKQqax/4c/PPJArljkYVWjLgsksp5qTs/IcgpSh1HlNBy5d1c5hDvv/++5Ivyh7tJ/0A9cGdEML5/UE2cGlXrvRQKF3i4OZDQfth3Y5uuISGjA2ptt12W7PHHnvIurmmCqUH9EIovvvuu6UeYUqNRoINT7T/SFdvKql+uEhXV4oF0oCDvozjCF9MWlEvEQaog8UG6UE7jDkr6VGt5VZbbSX9CxMn6g9UUpmDXMpd63+hobQEWh8AJu9sOoMWGfP+Cy64QK4BAZlAjcIFgbBcUEv7CB5B/NfpIB1TsgDZqYzOGkaW5zAvJ598smyWkgpSQA3uuElpqtRWRkm7DcEFzzGzu/3224UxVObnrLPOkjUzpYQ/GKHl+u9//yuDA2XPu+7du5v99tuvzloOBfep8p0PNLw+FRdKA00vv3HQE3PbG2+8sWa3WnbJYyZW19aVYx41/aw9Iq0wj6QTcy60OqwPdpk23nFV5JIn9zsf5UibdIjLi0sb1nQ98MADIhTR9sAJJ5wgJnKVltdsQd5xjCdYTXC8zF133SVCAP2L0oH8p6KBT9dypRXp1LRpmkuV1lQ04zlafoRz2jB9E2bexQRpeOqpp8wjjzwi681Jg/aHLg2B/7sSoLR3081YoGb07nPqP79xcd/lCxq2D+IiDWeeeaZMXtImsWrQ9e+alkosh4DCghqFK5VAWHUpK6KT4INQPT14BFEapXIQFSGQe66YBsIAvvbaa1LAaIWYRYRh0d0TXbgF3rjOQr/lGucqC9DCdZyXxHoytGusk0DrgvaINWfsyAmTpGgcHbODNlo3Lph/hEG0GKQHE9f//Oc/og1m1tbNjzoQ9zxfrlKgaXWvOF1rSdmzPoMz7liDicCNcIB2SDVs5QSEWBhG1vXAICAIYmLGduWsGyZfCj/P2eaFOhhXD3MNp9zh5gezWrSqnKkHg8jsPJNEMGK0OSwIFE0l/0C3vqe86VNYL+hORCl94qB1BKTzV0qg/UTQZzkAk6ZogVlLSt9eKiitfJpxz5pWjtkhjZQNmjk909X1WwhQnvAZLEVg/eAZZ5whlkcKP379zXeFTpsPt+6BbOOnb+cgfXZW1vXjrlP4kyH++3wiLny954rlEmuf6ZOAWybA/S4gwMWUKVNrJohd5FxnrHf9Ipsvg4bQR93+KmeCuJ0sJm7I2xQs2iFm7dg0xC9UndECoZOohTt4pKMLjCAHCV9++eXyGwb76quvrtlUoRg09Qe6e++9V5h/wE50Z599tqwVBKGMs4PblhT6TOnN9fHHH5c1prQxGDMYo7jOtJhw08660fPOO08mLqirF198sUwMuet44vKaKwhD6eKG1dhwSwnNj4tU+YG2bPKBpQD3AFpjiquoZFooEI6wLoFJZu0xkwq5lHdcHSk3sLyCNsKE2iGHHCLaFtr3bbfdVkfwLSewhIFdPdkMCwuQk046SZ4Xms5sYnLuuecadrmkLrAXAf1fqnjdNpWvtBFmNmH57Tnb+JlQQ8hmB3LM6/nOj5M272oM4auoK1hjuH1tIaD58vPD5MBpp50mE36cA8kyBzdtAQEuqEW4UmkIQ43ME3RmCsD4YbqBAEgBsr6NNQZxwiCgY+B5boXd9KE08eniNhBAZ4sJ7oMPPihnbsEwYbePORXrKnz/+YYbPppKBFPOfkJDwYJ+hFOEwVDGuSGOVv4z2g5MMdvtMwHAon5McpkgoE1SNuqKCdLJmld2f0QYROPRtWtX8+ijj8rMsTIubtrc37k4/RZoHXNdJSNTflwaQFPqAOZZmI7TL9x0003SL9AnA/VbidC0c5zAxIkThbncZ5996jCWPn3iEEfHQgFmnHbotkXA1R0z9V7fc8Yu1h5Y0gDKDz+kW/2UG9BccSQKgitr3UEx6IyFBFoozuxEEE03Gaa003Q1lpZueFrOQJ+74XPv+vfBO753/em961xonO47N2zqH/RQPwo3nY1xCuKMyxP9ERv7kI7777+/5psgDAaUI7xaSWV1XUAqzLcNG1cD2xlUJzsddhCFKWHGELMwTDh0B7ymBr9jLAZ8OupvzEnOOecc2XkUBhyhvE+fPvKukFAaECfMP8IIg9BFF10kwgkaS9Kog1BA4wE9tdy5ckwLa0oxxWR96ZVXXinCob5Xv8UC9QGTYcyc6AeYGDj//PMLtg255rEUeS0l4vLLWjq0hKeffroI5WiPWW+nWsNKBxtTIXSwtb1rlliO5U6fiMYK4RztPZspwRzTRjlKBZM62gpp51gRxkk0bGgI8c+ECmX58MMPi8k1RyewEVO5gn4IwYyD7Nn5tRjguBp2POU4nsUXXzxjXdB3mfylAwIvk6+U54orrijr4ZmEdQUvJkdPPPFEEZQx3aYv1DZI+VL+0IjJUrQhTOqxSQ9jJpuEsUHS8OHDpa7rGMtxRNQBxlTO/iM+hCvozVFNWObQ/jmSBg06Ewn0A/gnHqxJMO1VgUxp0FCXDdg1mslh6jX5AU2lLwooFFQGa4zLHY5AGBcgLsAFFFFhEKdUqp5fbeZVzxMzQdYLIhDAADJjpx1kY+B3IASpB9OXEvnIW75AWujomaXFxIh7BgC2qod+OqjkGwwMrN3AnAlGB4aAe0xbXIRZwcJAB2boy4QAO4/CKGBGBcMJillPiRtGCQaINGE6xoHQhUQx8qftp5i0zBXQW9OHZcaFF14ozCamZlgMIIxUKjRfrBcDTH7o2tNym2wirTD9MOasA2TTH9ojG/6w2zLllIqhpq9WIQCw6RIa3wMOOED6c4SecgX5Uq0tAkChAa1YL0v5I0AVC8T35ZdfmieeeELWerJpHhvrcAwH5YqVDnRgXKS8Eebxd+yxx4pAhh82Bbv55ptFiGPylr0W+IaJDibT2DkYYQorH+gJEAIxA+/Vq5dM9jLRhhBJfYEW1A/ShJUOcXAEC0IY6bvhhhtkYog4i9VeSAPCLUdPUJ8RXLlquw0IiIft+7D1FHtPx+mzbF2OSHKofBj3carnzRuJ5DiWsBLZfEsfKNSiRUvz3XffyUwmDR4zQUzDtCNrLOhACJeObN68ahufjdMGPXv2XDO/2i8jftPh4fSeq7r8AQaLzjgOpBeXDpne5wJlMKAV5zkiFJI+NLa//fZbzfvGQNPr54042NiEiQBmSpndLiSypZufzlT3qaDfMwOt99lA/WbrP19gJpgZYTbugVGAASg2s4ypG/0ADAobSHFeIjPoSgvqYWOcC5e+Ps3dd4DfWo7ZgvYDU5frdw0B4atrLJROCCRXXHGF/IbpRLuWrziKDR1LRo8eLXUas0rNZ77GmXwB+sLoIxggJLCOE2GQvpE1tQotB/Lhlgv50XbLbpnt27cXhwZOd2cuV+i5c2qhUEgw1lEfABYymeD3Hw0F5cS6PJbCcCA/ghcCO1o+QFujDC+55BJ5z8Q4whwT5mj5eIegRx3ZZZddZMM1ltTQfzOBRn3hipYRc1j6UsA6PNaU8g1rxZloQOBj3CVNCJwcQ8RGU2iXoQ2Ts6SBs12pf1iPMHGrda0YYBdp+KTJkycnnwQExENbaJxM58p69VzST0NB31Beo0iFoaqq1lYf4ZCZqbnz5oqJDLve6aCWj05Yw8Asjtk2xYILtjEvvvRS8lddRB0eDrhXFRAbD2bonI1qywLQHXqxZouBCrMlNRlr7CDA9zgVgrln4TgaCLb7ZtCDgSm2EAIam7dUYABndz9MukCh4skXKH+0Cuw4qrsxFkszRLnDDCGMch4ZZlXUxXz0AT4wh4IBevrpp5NPIqQqHxgnGK5vv/02+SQ1COPzzz8XLRQTWwi2lQalO33xEUccIfcwsLTdQpRHsUAdgxkvd8EIzRVCCiZ8CiZrsJyhjWofWsllEQc140UTVgwoHYu9uzJmkMSHUIrTuBln0fBhIcM6V8A7NH+8ox/SPgpzUxfUFcJS0G/zjW4Kw14BCiYHEBYR7mgT1CnGXr7nnnNKMVdlDPjggw/EtFbPfe3fv39RaUWayLOWVUBAHKiR6hRxz2Jhm1RGPxkQBMIGwLIZ0uFAPLm3V8wSWey/7LLLyUwZnQ0Of/mAChiYXzBrBjAZRRA96KADbKdZ29HQ8WiHixlr9C3p0Ge1wkwucP1rHDXxJGfwXLjvXbjf+i6fgGHicF7WpXzzzTcyQDR2EKA8Sac7AGIeyFolBitmOUGhBxsGFqWX1g3idMvBpal7r3B/++8IR5+RV+IgfH3Gb9cBfZfqCtz7QoIyx2wIhqBfv341ZxYWEuQNpoM1pDA2xx13XD0mLR/51/DQviAMUveU0YijNVd1LuJ+U+5a1uSFYz2Y7GAmH2gd8L9NBfWL8+uL1jF9xzUfUPq48aGlZVIDc0s2fCIuN/5KAueZkXY2EylXoFXGIRypVoQ6StloHaIvdRlkrReVCq1HWAgAhJNCQuvuCiusIPUBE91S1WVtc8TPeIFFgY6VCo6KorxZU+2Wuw+tIxom4VA3uKpgqHkHPAf8pm3od7///rvsOszGRJiiMjmM1lHbfSHhhk/a2QSKdGEGGxCQCdTgXJ2gkdU6P9JKM4VlyeU6bcZ08+KLL0mD73nxxcIEAu2Y8gHCYg0M5jbvvfeuuebqa830GTPM2WefYwYMGGQ7xRaygyEbKPS1DDCzsGzZPXbM2GSHGaV12G/DxIb+nHPOFZt+hMtsBmI6ONLAOUvXXHONbK+ta1l4h8kGYMYO5pGzsVgTwOycGz7xYcLBWi/eM2NHuOryDc4pY2MfAGMLk9JYuOmko+f8Q2igO+IVcrAhbNZuYIqDpocr66TIGwOdlgMzq5jMUA5oLXUjCoCmj2eEg/kMm9+8/fbbIliwGRJlQxmSN8B3lCFCFeswevbsKTOuPIMW1C+ELwQh0sIh2aQTkyAmSniGCTV1p5C0cUG6mMFmowVowVmQhY6buvXmm28K04IwSN0DhYqXdTGUAetp2ElT0bdvX9mIA5ozEw5Ig1tv+Y2jXlAHKHPqkE50sD4HQRqBkPeYXvGcre1vueUW8Y+lgq6JAbqWiAkSjlmhn9BNQ3CkFf98R73kilmd1ks3fY0FYWl41E8mBqjn3GO2hgZX85rPeAsJpSMbE0FLXR9bjmAMRENP+eqkCLT/6quv6mi09Yw2AANfySCPlA99I9BjjwoF4gKsWYe22tZLDdoz2kH6CqUJYFKW9XTUC9peHNSvD/IHOH5CQX1ByEwlZGEujoUDdYz2jsYWYZRxiXXmxQDtFHrohKSrLa8EpCqPYoC4XRdQeCQFQgbEuEEx1fPmDaGIraBqt0snNWH8eLOG7eg6dOxQw2TQGeQLhMdiegZXzL6WWXYZeX7zzTfJLBgdJsw3C/fPPONMywwvJb+xxafjRJOIILDhBhuZjz/62Haiiwtzj709HSZpTedokDDVW2yxhZyvyDPs9FmbhxDCbxhiFoFj54+GBkYVkzlmTPkeP8zUsd6OTpx1VpjVFdKcD7qw+xgzh6RV11vkC5jGMNCwZo01LsXouDDhvP7668UMDuGDfDHAofmAxtATU0KYbuoMB3VzkDvmcqSP8oDJ57gGzGlhLNFqs84C01oEKQQ81oNQ76Ah/tgYBQGfckbjwuSD1nOED+Jg8GPAxbG5DxpaNLVoz9ddd11ZZ6l1IZ3DT2NpSdooF8LB/LGx4WUC7QjaUvfJK3QjLy5IU77AZh2A/oA4AefTUS8od/oFNppA0FOGysVTTz0l5qD0C7RH6gN1hjIkbEygYeDQrEE7JoDQgFPnaU8IdJwVB+MHEAb//e9/y2QUa2bYZIK1vNCEfHNeGnUMk1raChNY9A98T/rwoy4fIM0aLmBtFyZspAPaVCLIE3067Z46neva3kKDdGidpx4yAYBVC5NNODYEYWKIPgEhnckL+k92hGRNGJNabvlrvnhGXnHlCtJKfploQzNaaKFD2wqCD2BCDsGnGCBev85pucEPYLLP+j6W0TAWkC6OXaCfog9xyzUV9B1XHROYjCQszOWZlOKMXzVL9YGZO3UNPoS6xxjGZBATKoWenHTTzuZCCIQIg506dZLnlYJcaZRvmrr1g7DVBUCDus62SHu1NLMX18mz6JIZHEyvbr79x99aVzjYBl7j9HdZwM2+lyQ3vdX2igMffPBBYqedd05YJjphByx5VggQt2XAEpdcckmiel4UN0Xeq9cLcm+Z9MQKK6yQsEy7/LaMT8IKcNZ/z8TEiRMSG2+8ceKfx/wzYTtUCWvSpEkS3lVXXSX+46B5tp16wjLXicMPP1zugWUQE5aRTNhOWvwccsghEt7EiRPlNzjhhBMSViBL2A45YQeJhGVmauK3gkXCMqSJ3r17i99CgbhPO+20hBU+E7ZzTj5tOJQmlnFOXHvttQk7ICcsk1zzXF0hQLh2YE1Yhirx7rvvym/oaAXxhGXoJU233HJLwgoEie+++y75VSJx3333JVZddVWhxauvvpqwDH/CMmryju//8Y9/JA488MCEZc4kDMvcJ1ZccUW5twJowjKgEi+/ifPJJ5+UsrdCkIRhu5KEFfTl3gqkUqakEbrwG3fZZZclrICSsAOz+FM6pXONxahRoxJWUE0ceeSRkvZCgnZnBaDEKaeckjKP+QJhkTfKxQrxkrfXXntNysEK/jVx8c4Kp3JvBbPEggsumPj666+lDXbu3Dlx5plnSp0AH374YaJdu3Y19eq6665LrLbaanJPm99pp52kjU+ZMkX8T548WZ6dffbZ4meXXXZJWKGrpk7Qv1CHnn76afme9te1a1f5DhCvFRqk7hYSpA1HPb/mmmukvb755pvyrJKgbe/333+Xtkpd+/TTT+VZoet2tlBaKywDnthqq63EbbDBBtI2xo0bJ+mlj9h0000Tm222mdSjRx55JGEFhkT//v0TloGWukddBq+//rqMbdQVvi9H0MfR91LHaTuFhtJ65MiR0o522203abtaF9xyyDfoK1ZffXW51/guuOAC6T+Il2f0R/AMlC/9Pmn85ZdfxC99l2X25R6/9A87Wx6qe/fu8gwwTi2//PKJoUOHJn7++efEMsssI+MtPEaXLl0SBxxwQM0YR30hPYxVCtLRt29fKQ/4oI022kjqIXWSsiJedUrLfNKMOMaMGZM46qijpH4zFoJ8x5NvuOmDNi5yTbv6j3OKuGfAfY5zy6mpg/pMP4cbO3ZsjYueccWN8Vz0fCzfOE7DycZ508bIka7LH2wek3eVD1shayhEvpixqp43T2bl1WSvEGC2xJ0xiYMV+mQWinSh6WGDm9df72NGjx4jmqRTTj6ljmZh//33l2MyUkHjY70KM/1o+JidhgbMuKMV4h7zQszl0Pi5JhxoANhcAC0lJmVoFZkZBswSM4uIFqGQoEyIk9llO/AknzYM0NV2THIPbdSUzl8cXyhoeUA76M9v7jFPYgaUtLH2yw58suhewS5ulgGvmRnFnJF6QtnxvR1sxbySe8JEw0OZqZYLLRHaHY0fzRM0VfMogFaMsDEHYsdd1tBYZkA0AMz8Y7qLthIzRPwRVibXGBCHas5YxxSnJcsnoC/1C9qq2Xih4NJGaYk5HkDrr9oUdtazHX09czLSSbvk3EzqDH0Ymz6wCYhbpgraN3XntNNOEzMt4qT/OPzww0VjyG/ALDiO3/SH1Cu+RQNEfGxCxXe8R/uIRQGmzdSxQsGtS6SJe9qKS8NKgKaXtshOi5i/sYMna8fKBS6tAZYHmNRjVUKfgFYZ7TJtkX4fbRrv0WKjoUbLjgaJ/hTLG+ovYP0X+UTbw/flCEwiMbOm/TOuWoEg+aYwUFqzhpB2RXtnOYjubqptshDAMoDlK8RBWXLFRJw6CXiGhpTzCtFk41iOgHkrYIdcLE0AfhmjqQNYDSkYs9iABg0gjn4M6wOsTKhLaPt0jEPrR31hDHLBcSWcdYj2lLGHukadJD6ln1tf8w2sIRhHGVsZP0uNXOqE9snUY8qKsmWcoI1CfzT/WJnA17H8h/JnF1esRFirSZ2kHXD8D+2Xvp4zorFiYUkDy45Y1oRlAJZJWByxVAGLJZYSwTcQL/HDP4B05VXI+l5+iMtr9AzquC4XFJZDSkILiqsWrKKQjTHfcCuj3uNce3h9X2xAWxyMPHDT5qaJwQp/+ozDYRmU0wG/MJCUnc/owvABGi7+MJXR8gYcBosAiZkjzzEVgwHV9AK919/5Bh0bDlqQlsaAPOoAiIOpBXRaLp2LAdKhIG7SA20pJ5huF5QLhwP7goGGQT4II1UeoJvWc6WBW+9h0jAxBLxncGYgZHtwXNeuXWWAJ324VPHkE9CDQQXozn+FBDSC0dByAMXIJ3Hg1BwaRpuJGkwLmZBBGPYnQrTNq6kwZYQgCdMdJ5zBbJInre/kEcCAYRJFfXDzqveaNqWHTkbpc4RHBExdj1xIUDbaT5GPQgqhhQaCEkw55QJDhQldOULrCTQH+tsF5aL1B4cfHPdaRvo+7vtSgzSxnOKmm26S3927d5d1co0da7IFtEHwoR0zKcUafcyiC00vLSeF3hOvQp+pX8pawfihz6GV+53C518Ucc98EC7+0vnV967LB4ibtbIIxITJxHy+ws4VSmMX8Aj6TNsYYyWTCUwos9wIE1+WprBPAQIcE7oIeeQFc136HQR4lqKwbpyJRPY1YDwgHHZ/ZeKNPgr+iIlgTKrhDfDDJAF7F/Tu3VuEQYRCJjRYf85yEyYbESxZxsASlhtvvFEEbBQYrH13l//4+SNP/rOAzPAEQgjouvxAGwLCgS6uBTAJcZW13OGmdr5NOxqxFi1biBat0LOCylj5UBrTAGvpiQA+V7Q+DBp0xn//PVWeK911XWAmMLNOGMzSccUBGiX3MFhcmUFSED4dAzRhkTnxw3ByJb28h1ll5onf+e4wNY90dMTDoNNYzQ3hkU6lgWoG/c1zSgXSRlkwwwZILyD/dMbMVIJMaSVv+i2DMow0HTvh8y31ELr6gifv+Q5NE7ODzMwyK8tVz4CjH9Cw9ZpvkEbyQJsEtNFCxaVA6ETgYfdPFUSLAc0XwhXtjIGZWXSYEegOk0gbd/PP2htm6dHcMDDjj3vdRMaHth20fVr/AbPu1Kl09Yl4lRFU7bACpgFhhvQUA6Sf+owQqnW1UkB61QHW5zLJw2w9DBP1rhz6IBeaVoX/24WbPxxl4woNWlbpwigmSA/0ZkyDWYX+TMAwuaLto5hQQZSxiLV2CIWFgpZRpnyqP3UuUj3PFwoVbjpQJxC2WD+NRpT6QVm45xIXMs9x0Pi0/ZA+eDLqK1Yb7OnAekvGa4Q+NpxD2MNyAwsu+hf4dvzTjzP5iyUak4kIiJwvqsfJ0A+xNwX7SLB+FDqwThjNOWvMWTfOpnNMnnBcGRYqfHviiSfKmmPaDns+qJUZliVYpiFooulFI8mEB0IqgilaaLSSxMMENGMJ+Ss2jcsLlHPDnNOa4z3kCzCQdO7MBlBwFJYKBpVUeFCEtCpluF+2fXt709IMGTrUzJlbmkXv2thhAjGzAAwIDz30oDn0sEMs87eCWaPD6rIJjZpLITRggkPDzgQ6ATQOmGnobDTaJmaTAA2YcNjYBKZLgQkAzChmLRwUj3+ERi1vvqHjKCQQhmA80Y5iRttYuHVVTVZ0l0/3XSlAG2OmGPNBBDDSw6DELB5liJkozxjI/cE8Lu3UKxyCFUIDwB/5halmF7c4UOaYEPONhsusIJtKuOUfF2c+oHmjjpL+Qm8BD5g0wYyWdsVAViwoDdHCkl/oDih3+lpo7muQsCQgvQz+CK/QiHbCjrAIiC7ou2nfmCUzg4tQB8gjA7zPAMeVKcIqTAT+6R9IG4Lq448/LoxsMQATBLNMXjFdI52Fqn/FAAI9JleY02Fmxaw9DF65o5Jp7oJ2wXh3xhlnSJtnfIQ51iURxQZtmskcrH7QuMNsa59dCLjl2JC2lI3/fNaVfIaVCvBcmE6i7aJ+oOFi+UaxtMXpgGYOzR+TF/QVbDzHEgCELPoN0kufwjIPhEMmnNDWXXHFFaIpxNyb/hoBElP1f/3rX9J3Y76OVQqbG7GUBJ6IsQLTdqyGUEiQfyaPmUDn3XrrrScbvmGVguUQYZAeNkXE/BS+FO0jwiOb2yEAkhZMTjFBZRKSMYWxCz6HtJEW0sx4x2+OGaNd0t83H5DXhrvkKK4PfKR6njtgVJlhxr4YpkN3pgMUWEUVmu1YSC1zsVxhLjbcaEMzcdJE07dPX3wULD8w+8w83WAb9dSptUyednZogbp262oHg3PM9ttvJ43xqCOPtMz7wlbwetx88+03skMkjQsGjcGLmZZMoEFjQkCHh3kK5ch6QUBHAkN43333yYw1a5Fo2JiToUFAGCEddJQwoTRm7MdZAwfoNAsBygC66E52CC9q4tpQEJ5bX+k8EXYRwvVog0IPPBq+mw5lyLnqbBs2+5QzHSizdnSstEH3OwW/XaZewXPi4ztm4ljns99++8lMIMIBGjH9VtPFlcGBuoppG+YmpIlnCAMIkgjPAMGgECB8yhzBmIknzoj085xvMNnAIegIXzpBkM84oRXhKc2od7Qn2h2DJ9oJZmlpT0y+QHcmABgUaX8uKAM1w2H3WAZRaMRMK2bdgHKkXHH0E8TDuiHqEwwF7RytMUyFQusAIK3q0FpzNAZpx9QRZpX+B+0KDEc+6eTCTQOTUwix9EtoqZsCqAMwSzBfzKQjnDAbj0YfaDsLaBy0zSk9mdRCi3LPPfeIOTZjIf2jms2XCgiFjK0IhUwGoZ1i/GXypVBtLCCqH/BeaL2w0KC/o19jzwXVchcTpIcypw4wCQePh/aPOoughOUWfFvnzp3FPBOBD1NMBFnSzS6xPGdMgcfBH30N4z3jqS/g0u+rc+E+d9/5/nzwnklIeGs0hkwwM/FIPhjX4CU5hg2zXOo7YxLCLNZmTI4h+OKHPMCLss4d3lXbgbqAumjBHkJ22LS3lvHjgTx2Ef80VxANnRQzERQKzAWzECwG1oLJVEmKAr+OeEmKKFUfqNRpRJwWf+stt9YIO/kGs/N9+/YTmu2zz77mmaefMd127GZWX31VEfSYBXrggftFU7D88u1lW3kGqer51aZVVWvbQYwSLeKkSVOkgcOcwVRmAvFRPnQwmBHACLL4H60CzCWdBp0QzDAdDholGGQ2kYFZUeCfDpP3CI/MnhVqkwDSDB0YFOnEbr/9dpmhamw9I1wcjDJ5holmYTVmb3ROap5YqPqMlgMtDuceovUkHZhUwOwihAHShakmxz3QiSOE67lYCK+YBzIzp2VPBwqTrFuCYxrMonEWgFPnYDKZ/SNemE3Cg7Embvyj5WXwUxNSnuEPgQwhAlqgpUMIUCESx/eFAuVCPwOTxIDHtZB9DPlBwEFAQhtFXfA1qPmKX+mHEEA5w4Ag2PGM9YEcJUGdZ0BlMMWcFSaWmVfKSTd+ob9gMwzaLfTBL/UXJoaBlbrG7C3pxj+DKu0fKwMER/zrxj0IXNQ7zHg0n9Qh+kIYCt5RR9FasDEBkzPUKb4nrYUAcVLHYIAwiwL0A64JVyVD6wFtFMYfepNfxlomb5iJB4Ws94UAeUqFUuRF6UwbQiOBOR1tjzqM1oLJLtpgudCZ9kmfztosGH/aIOZ9XBmvC9XeygmUV7ryyPQ+GzBBgCkl9YExkvpB38KEHOOtG0eh6wZxAfpt+lgscthIUJcxUVcZsxGwEJ7g/9y+V78vlzqcDn5a+U0+mfxkDCbf7FvB+MXYxnvGNUyqmchkaQW8CvwP+S+3PKMw0+VNmlcQpZPfyfzL3/yhJAIhYKDGvIKZadYblQ1qaR/By3ptUdSFHS7MrTffIgPyNlYIghlkFiVfDG/9SmGfzbf3TvAIhAimkaYqWp/pxq/M0Tw7QFS1rLIDRbTRigvCduNSuA2vIY1H49bv/Wu+Qbhoo6hfMIPMFGFSkE8QB4BJRhPHDCEHksOYa54KkUeN10dD4iAsDS9dXVU/Gge/YTSyYSyYPEBDxTdKD8Bgqt/nmz4MBswM0gbRoCCIgny1xzhovpi1ZKYVUz7OZ0T4UjQmnxo+YdCeAIMgjKjSNluopgP6a7jADUPDJC4/bDc+vbrPNEx+pwofuP7yDcKmjuKY9cZagRlvZpgLWQ+KhTi6MtGDmRUCInWDSR82Z2Byzmf8AuIRV0ehJWMr5mxMcDFuMrnI+OJPMuK/EPU5F2gZs/4LrRATuaQZMz0mChAICtH3lhMylUNDy4nvcGiGaW/QlzGOSTesp1AMqB+Q777GTzf9M0IPk99oAylrwJhLmhCA6Pfgv33NngtNb7Yop3qjaffpwqQ0E6bvvvuuTI5TZrRlhC0mtbGkYiKc3+WUn5wEwtyKLS1KJhACCgtbX1dTSIZLWjA+cb2kRJSqC5o77BlalfPOOUcEAzQDmEVlo33LBvUrhX3mCYTQEe3Pd999a39FHZJPS55V24aCQEiQ+h5zLt30Iw6UHTPsdDKNKR9NU1za8gk0EZgMMEuG2RymdMyI5QukX/OAozPGBA+TBWaM0d65DFi+BgXCcpEtDVN9p3nIBuo31zS4kwEuso03FxAHM/eY7qCF0q2uYYYKLQSo4MSMMQIIQimzsWiomZ3kXT7ynKocFG4c6sePN9W3cdD4fMSFqc/ceFOlAbjCZtz7XOHmi/AQjG655RZhCtCAYiKrFgv5iK8cwSw5E5NoLJgUwwIDCw6YVeqjtsdyhluOPgpdbm49pj9H2wJDyUQrkwvwKvTvWNdgSu3SM11dLwVID1Y5aAsxY2fykjSjIcHMlYmycq8LDYVbjnHI9N6F20+xHwFtC2sZ3a8BSwcmndHAqtBVqLrgphtNGGvGmezSDRvhc7C8omzRVlLe2Zaxpjkb5DtfjUE2Zc0GiFjEwOdSdmhz4WfR5NKWEZqhFX5L3SaavEAIMBvyF71jPoqggf096lxQ0ormE9dLSkSpeFRXzzMTxk8wZ55xhnTCmGuSN0zkGov6lcI+cwTCefPYtCf6Eb3OXiDkGTs4oUnTePzvYKJgKHQtUknLKA3ouGnoCIN0kgzeMIFqIgcak3alKfEAOg4Nly2UmS1E+4L2G7t26JXPzkXjUmSbl1TfaX6ygfrNNQ1xDKgOsLi499nATwe/6V+YtWfGFPNXFr+7plyZ0toYKH3ID4IImig6dtYVMiGRyjRav8sEN7/4z/a7hkLLKBX8d5o+TZt/D/xv3Dj8dw2BxsWVOsBud5iw0/7Znc5fQ5yPOMsN5B2HWT4TfZiTI9jwDCYRE2DM9QPiAZ2YQGIykU000LjQjzO5qxrXTCi3ekWemCTFtJ8lG9QHhFsmejElZbmDMsOFFmiKBdKfLu2Z3rugL4FXxQSXyQF+UyfQLh1zzDEy4eKHVwj6ESblRlrYoJFN/piARHigTbPGDvPlxkDTnQmVVC+0bPQKf46ZL3wvYzVgCQQWXmgOWYpTyvw1C4GQTgebXoUWDh0VG5agUQNuQRS9UHzietFHlEoBm5+WNr3MQLD7G3b8CMFswNLYXQ61Urj08DWEtX7kr3WR0OICPxHd+TAKS8shFa01XKB+QdHLxoOaHLrCBYdns0YI4RaNABMNDHq803w0Jt2afzcsvcdshJl5duFC+41AyE5cmG3kG7nmRf0r9DvNTzZQv+4VZPo+lcCXS9zZAMb/3nvvlc4eDT3nF7nHYjCQwujlM04XWg+VLvR1bOTDzCTmo6wtpD+AFm6dzZYOPr31d6Hghh+Xvrhnmhc3renCyZdA6MfHOhI0g2hpaX8XXXSRrHcE6dLTlKD5xFQK0zaYHzRE+ly15rQLFy4t49puJdOMvGkd0WsceM7YAm3Q+rChBaZ3cVYm+NXwQDnRR/PHlXLkigUFWk822sCaiXwiTDBOItjAEOs6b/KSjl7llFcfmuY46Dut35ov3z98BDujYwGENlDPc2VHWc56ZU0e/UshxxUXbJTG5i+s16aPQyhF8cBunVhCkRbS0Zi0+GWcCsXIb74QlyeeIQyy5hLhWtfdo1VlkoSJXH9yRFHovJdEIGxh20QkEAL7Q5wLfuUv4wiEzOATJeZczNxjzqXmVBw6yTuX2EWvdD5xvegz0R7v5AGzAraAZr0BC3cRCtFY0GD9PKaC64/7urDP9ZF4cd9H3yWQGGOhcdeG7acndbylgZsevXeZambMmPlkExE6bcwA0BShGVD/em0MfHoQpj7T8GG+2IGTCQEmAlhfqAcVx9G6IfDjzIS4dINc0qN+3SvI9H0cU5lPQGfWTnA4LuD4BdXMEzfQNGab14ZA6cGV/BI3JntoKen3mHVka20Gb50k0G8U6dKXLb3zBT9tPuLSwTc8d9PqhuN/o20YxIXnIl04Chgm1k0hDDLY0/5Yz+1ubAUyxdVUoDRDsKFfhJFk12Voo8wttNByYMMR6qm71kjLVFGJtFM6aD75zaQd4wZ08PNI30EbxtqEjXmoQ0wuxeVdw1ZUCn3IG9v0M0lAfwQtEGzYhI7JE/pRNGAIHaoxcdsrKHReG0Nbv0x9+O/JG5pTxhNMzJlAwQyTtgOvSp1ASGAvAiab+V7DKCQdiIPJbyYWdZKL9knfBl/JZKMbfyHT0lQBjTG9ZTKfvhEaYlKNxpX2UGyaloFASOD2QfI+Qn6JoAIh26KTWc7AQpPG2iugSSlp5faJ24DoyQfpZk0h28FjYgCYVWJNk54Flwkajt7XhX2uj8RL3fd8l1ogBLXxu/EoUsdbGkT5idLip406xVk67JZIp84uhzRkBHF+A77x85gv+OkCpIn1sWiJYCQYXDHVcgXUxiAuznTwy1G/43kuYeDXvYJM31MGhRIImeVm50zWUjC7h6kumyvB2PjpzZTOxkLpAdx40Vgy0MCMM7Cz3oR+gHU8qrVUpEtjtvTOF9z8xCEuHZpnN61uOP43LoMZF56LdOEAJt8wA0JTjF/6W447QfvhfgsyxdVUQL7dvNMOYXrRErEmDu0HTC/PoQm0QgsGs4nGCIeQSBhxNNNnPn0Vcd+k86vv9D6X79NBw4Gppm9GGwDThTkoFkq8py6iHaPeMKEITVh6gD/WXmLBhCDgw09PXJrLCaQXx2QV7QNg0o7GiR3IsbKhn0LoYLKe+sCEJnUBbalLg0LnNVVZZxMv32byh1UP68owD+bsRsysaRtsPMK35J+NeNCcInixOZP218UqZ9LIJA6blVFXKQ8mFhlHENaBjq/Z5DmgLlyaIQwyTmOKy4QJvDrHdaAJLibKRCBMRlAA0NlCVEwvmGFBTctAQwFguw6D5GZcUfTK7Schh+g1/Zpm/c1ibkximXmCaYVhJb+65a0iLv8KP2wSJiaj/LQO4Y93+MuGZnFx5fJdNn7zBY2TTk8FPBhpNk/gLBo6S/ywPohjElggDJQeCu00iwXKmzUblD9MGGvIWG/AAKPnVeVSZi5yLQeXDkC/yyVu9eteQabv8yEQunExk82gjXkozAthw7CxZo8d/5SZAXyn6c2UzkJB08ARHEwSYKYF6AvZiAAGi37ATaOm2QXPQDHzoXHGIS4dmm43rW4Y/jfZCoSE4YejvxlDXnzxRXGUPUwbJj8cr6FIl4amCjfPIFW+aUtYVyAMICTQvmCIAWFg5sxh01w5xkQ1iDCjbjvTq5ZNoelM+DoeAB0fqANo/9AWw9TB8DMxB8+B8AtDz/hB+tH6sHaI45HYVEJNzDXt+OfMTRhx3mH1w8Q27wudv0JBy4pyp89EwOCcWvgwgPUW2hI23mCMZRxTAQmgNYSXY0ILIYnvqAfqXNrkWg80bT70uRs20PDd9y54Tn3QOoFwRf7QsjEpwJVnOkahKaWcyRd7JrDmVusY7xs7juUC0o72mnWLOLSUmIfCQ8StR8+FzgG10Drkgoki2jpmwtQPNoaDr8Qf/Uehad3kBUKiYTYSIYiOhEW5bPnKonfMRpHK41D0Su4TtxHRK2npTJl5wvYbpgXmj5lYBtnddtutnsawfgWo+yyCfa6PxEvd93xX/5vskTre0kDTQ+fMDC/1hRluBiw6cYRsaIlQqExKqcEgxABCetFcMMCSfmbfEQoZcEhvQwYZLRe33qSDX45u+eYSBn7dK8j0vQ62DYXGw/Wjjz4SARuaImTDzKB5ZQYXQQCQHjdN2aazkCAN9AM6A/nyyy8L483EAOsdqQuYlJNG6OXnAZQiHxpnHOLSgX+eu2l1w/C/0byCuPAUhOGGQ32CocVMGMsA+lfCYtMP+gJMRFNNtqWLp6khm3zTT8HkwDAzWQEzhBDF2kMYZn0PfWH+qbOM4whTXGFOscagLdKf8VuZGUAaiNuNX9Olz9zfcWl2nwGew0Og8cMSh3GAOoD5I0Kgmv7xnG9JOyDtCLYINBx3xfEL1BWYPhVmXJB3hGQEJsYbxm2WADB2VzKgCWaRaEDhx7DSUm0TecbhB+EJGtPWVLMK3RV8Q9mjSWOigLGYOuA6Jrx4nwlaxn4dcOGXj/rjSv2lrKgPOOoDgjz1wHVYbOCfOo1j4zm0n/S/WPBo30Fe3D6k2CA/bISFhRm0RSvIOcMIhu546tItIHdAv7h2Tz1BK8v6Qvo99oNg0qgYdG4WJqPAJT4mPqy1YpaKGZk4FL2S+8RtRPSaV2V6mJWko0JLwEBLx0qhY44BLfCPXy0SvnHvQfSbez9hPPcTX3lwy1vppzSg84YBodOnQ4R2LPRnZyhmedW/G0YpQXoocwYV7lnIzwH2DFT8ppNn4xk0RTBRDED6HUiXj2z8uFD/Cv2O57mEgV/3qkgXBnU6TiDU791v/TARoihvTHrQBtNRQlMGbnZTQ8Oms/rlijg6wahiTk6dUAYLzQMabphUN08urdPRuRBw0+4jLi3499Mbl3+F9o0K1z9XrTf4w8HsM1CjeYehxT+MPAw+AzZCiV/X3LQ0N6SjvQ/8+rSCMUKzhjDAFQFBNS16VbjhMzlDPUZYoF+jr+ZKn4eDqeU3VkIwW3xLW0cjQntAu4dDsGPihLi48psxlDX67K7oQ5l8widO4kKriQWBmjxSj/Cj9StT/cA/ggRrgdlchPrG+nQm9UAmupYjyDMT1OzCy2QUB6nHtRvyRv55x5W+V00s4WHoj7WsVJDEH9AroD4gTCMcUjZaD7ROUFY43jHRwD31QcPWOqH1QOsC9YUrmlyEP42TdGr6tT5Qblypk0wKUCe4Mpa40O9KAY2bdsUyg+eee07SS32jjytl2hoK0gyyTbfWNz+vGg4oBg2Ij3rUq1cvGW+of5xpjJaW59QrF/lLUyKDQAgsbZJ3+WL77chb3E1lKgI+cb3sZ6K9692v0IBndGrYq8MM0inzG1DB6FD5hkbhflu3s4ZpSt7WgAfOQyvtp0WifMpVqyD5dfPs0k/9cIUWOGZ42bmRgV7f+WGUG2AsMHPkiAo0hnT8DIDkBfMUOhsGTdVyujRwofTINq/qX+HSNZcw8JvLN0A7eB9uHrS+a/gw/uzWC9M/dOhQmfkHTJ7stddeMqvNTK6mI5f0FBuaT4VaDGCWxewvwiFtX/OAUMMaJtadsolBJeRR4dYR4N4DPw9+uXPlGVC/PKfNQCs0FGiw6CcZMLEK2HbbbWVCkd/49euam5aAhgEawgTBiKPlhhGnL2OyhraJQ0hDWENoVEFRae8iVTlQblr2gG/j/Oo4Sb+JkMFkGpooFThUi8mkClfqRT7KHoaQSRysPWDS2ZCFyTwQV+/KHWifsFZgHeEBBxxQj0ZK/1TlAChn6gB1grqB4Eb506dRH3D81kkvH6nCdesNfrRu8Fwdz3E8p07gEO6oA9QFrRPUA+qK1geufEc/zGStn4Z0+S00NG+MDTfddJNoVhFCEAb1fTHSls94cg2Ltk256NgA9Fqs/AONiyuT0WxcR/2i3XDluY/Gp40wE2bUCCsQtk0KhPOdttDSC79+EhoMm1MVCKNEEFX97MQ/bbLwCRxD/1RlkCulID3CIGrp999/X2Y86WBxdGYMNqxtYHaNmVSEBK2kEpMmRCJ1U5UulYpcU5s7tDFlgjYiBhQEAQYY1rSwOQT3MCLkH5ogEGDXjRkLM4MMFNCI9UIwBgwALnNdroAuzAI9/vjjYppFPil3OkPMkdB+kVc0ouTJN11RumabT78c9Lva+pQZ6te9Avf7uPDo2OOYJf0ewDBQ9tCEsteDY8k3M8jQgs2COHBXTZvc77PNQ6kA80He2PwGk1d2woQm5IVBn50MuUfwgammLQAYTwQetsJmRluZXZApz3HlU2ho+XPVexf6Tu/dQV/90yfiEDIwEaYf0HWX5J82odphZvyhI+3GbfduHAH5g5ZRKvpqOdCf0UejtaEuU560ce4RJvmtAgRX2gf1X7VGqlWk3+eK03f080yaUBe0X9R6pDP3pM/td+L6n1yg+QZYeWDyTX/NLo+YkcUJFuUOjmSin7366qtF25lr+t064LZjoOWgzxAYqQ+0aQRrypzxm3t11Amu1AmufK/aQ71S/tCastf6gLDH2nEEQTdOhZvOVPW2XED6oBFHJiFMI6wfeOCBybeFBUu3EHQ4KkknpF1kQzv86Hu954ry4+ijjxbtctz3Gjb9AO2JPGPxgSkz9QHhmOPEqKtopinrYoI0sKaQs61ZS8gxRvRXWu/T0SR7QIOIDiIQ2voOlDYgP/HEw5ZUEAjroZb2EbysR5SKR0MopYWNMMjMNxtPwBDDAFH4dH4IBDjWGsI4rrnmWtIZkpBqmT1gdlKCSVaY2lQSfnwlakhqU4N4GHT9gRnw2x8wNF0w/ZjLYorDwn9ds6DAvh9NCUISa+8YABiIWdMAo6iCNIwhpkEIDGgNYBpB6vyXDpomroDZVIRc8kLZQztAXtGCUfaYtrDGAZMnoN+mypv/Xn8r3OfZ0kf9ulfAvTJfcfH4/gB+KWs6d0zR2OEOrRmMJH6o9whAaEwxpWTAZ5AiDIXOJGp6Som4NJAPmBw0WzBeCIQIezxHqCNv7BRHHWcgpr0w8EALDhNnzTXf4J931AMERLSH9APQB2YIOgBo4cKle7FB3Di3TpAOvdervocBxGqCfgCNMH0AjrZA/il/BGPWinLvtm8F935eS10vmhKU1pVG07h6kSs0DK64l156ydxzzz3SR++3335yWD33lQTWXtMHY5aIkN0YGtFG+V5p1Fh6pwJhAz98fa7Q93H+U4VRDiBtaKHZRAZeht1fqVc8z1d6NSw3TO4RCKkHCISMJXE040qfHQf1A9zwGZ/g0VjrDS8XJ2zqRBLg2C4mfLCaQiCER0Qg5ExIeESObVJhCWg8gHqYKn0NheaLyS0mgODNEQ5Z+690cvMOXNplD8KIwgkCYbmglvYRvKxHlIpHYynlFjyaAs7BgWFmzQyMIo2Gyo4w2LGjZQrXXU8EhaWWXsostFDtrGqrVjQsGgnMVq0JTl3kr1z9Surmg3vSDcOHIMesIA0KrZhu9cxz8kU4zPzRKbE2EIaZHc1cwdIHjZTBmU4EwYp4YLbZXAINK1pFGm2+O4l8AzqRP66YSaIZgUaUPbNmOKDrHxCSuGL+otrjqOxrZ8yB5tstE6C01HizgZtGverzOPrynLLVmV/KHuFfyx5hxxV+EW6Y+WO2Gg0Q9UAHCuLjHpBHjRtkm/5CgzTh0IAg1DFhwbEYtF3yQLtloEPTyTlf1NNUaVf6MqPKRAHms9CPgVXrAjRDc4jJNJNFhE19YOZSNWfaropNI6WFG6/SBu0AjvbK2jT6OhzPqLeUL/lAc0odpy4gAAPCox5oPVdoXH6cAflFpdLXrR/ZIFMeqaeY9XHuLX0c6/C6d+8u45d+W850YtxEIKQPQdvpt6dcoXStxLpRTkD4wfKB+sUu2kwW5htaVph86xgMn8XyG/iLG2+8UcYN+mom5fBHvWYijjGMd0zeklb6aTSZhKlr3xmz+BbLNoQ68sJvJr11eQ8gbHhBncxnkg+/8ISkg0nSK664QuLheDo1S2dMYIyj3enGQfxmwpRvCgkmT7AQYEw699xzY4XbhoNyicomCITlglraR/CyHlEqHo2hFEwelYsGAbTgaUg0AhoDTDQ7nf3223DLZM8RP1Utq0zbdmyVvKhlqCMzChpl+/bLCnNNI112uWWlobSqcmd9GpPa+iBc8oAGhEYKswdTTLoxF4EppmHD0ML40amQV/IMU6saD9LMBjG5NAbCQbOE8IwQDfPMAAfDTZiYILAWS8MsN5BH8qZlD/hNnih7NMesnaL8oSm0A+SR8qbjZWDnHiEKIZgr2kUGFARGFaoVSkuNOxuoX/cKGFAQ+Chz0qrlj6O8VZBhYEE41G9JL2sjKBvWgJFmHJ07cMNXoVChaSgnINxwBAoDHw6aUL8R3qmDmL0yqMbVbeDmRwVh9UM/wMAHbRGeqOto0lRIpu4QLoMq5c0AjkDFwMpAyYBLveB3MdoBAz3aB/oD7rnq2jPqg645Iv2knfoLU6K7/almnOe81zqvVx9aH5Re5VY3mgoqlc6a3myRKV+Eh2Pijp06AVYsHFFBGwPlTBvSfdlll4mWA42QlmtDUWn1oVyBhRCbF3EeJuUCoG2qfq8hIDz6ZrTajMlMJsJnMN7Q/6KNo4/GxJMlDozRWKxwRXvJ2IJ2nA0h4SsZWzClRPgjLDb4wQ8aQSZMmNj/8ssvRQPJhDDgOZsr4l/NiAlTx0rWtPbo0UMEQtJImm699VahCTww8SK4sq6P8QLekjGGcKnTyktpfcxXvST9mFrDW7LzMG2duAi/8eVEG4raUYkFQmB/iHPBr8IloCxRS/sIXvb91z6KQS20RkOH/iJCAszhZASu6dMssx3Z4TNzopvKaEVtZRv7clbQgilceKGFpcG2bRvZ4FPxcDDo/FbhAsDA0Vi56j1OZ/npOPiNIEAnowyqNg6uMMXMAuGIB2YP5pgBFGEQATYOWjU1Dz5SNQ4YZdZlYl4A44mgSjyHHnqoxAnD7M6IEnYhG1q2cNMRl19Ax43ggSOfdIQ48kjZa0fofk9ZwlwjbKGFc8tbHWWjV8qL77XcKWfC5qr1gN9cEfQQUqGzpl/zQPlDZ+LSeoZAFJk9ryl1AOFPv/O/j4Pvt5AgDhd+vNCH8sDMG7NQTFoAeWXAwuSHwQ3NHXRwBRvghx+HdPlkkgXTadYjEjczrm4b1bYINC6uTLgwiPv1gHvKn77BrRfE74ZLPeDKM7cf4Dd9AOlQLaYCZgNHeVO/VGBltpdJGxgDJjaUxj70WSpauHRK5SegcchUBs0VTNShwWCyho3BOMCeul3OgBnHsgahgOMMmgvcfqIcgakoR7HBq5xwwgnJp/kD+WeC9aSTThL+iE2FmEREoNtuu+1k3R4THLrej/XujGXwGGjF9thjDxHSqD8XXnihaMkRwOAD4OsQ/jhajXEDjSNjE+sHsXri/EQEKibs2ffh8ccfl/NiGUuw5mIcQPDjaA3O6eZ71RCqQEjaaG+knXWGxEW6CeOMM86QcZjwSXMhQD5JF2MdAizxQE/GdepV4+oW/WvUx5aBQJh8kLyP0Aw7/lraRyhTElBqWINWz4+0MxMnjDczZ0WMu6tZYtZk3LixZqy91oOf1wZCmVyuqp2C6YT5R+OHAIaDwaTzgRl0mYt0lTzXDlz9q7aSzoGzyhBaeA5zjlDIJjQwxS6DXmq4eXWaZT2oH8odRpwZNO5hzGHGYcpVQwuTQoeq4dF55QLi8tMS94wBAKGTMqcOUO4MEJQ7AhKCKGWvnRzCEU4FJc2TXssNml/Sx4xmv379REuHIMYEDc8ZHNgBlfqlmlngC4KKdGWswI9Pkzga4Y9BigGLK2mi3KkL9AVo6agT1AcERdJDuny46XTfZ9NO8K95oi5oPdB+gNlU6gl1gD6CeqFaUPKk+YqjSxwdUiFbfwG5I5dyaC6gPcHoIhTS52LtwKYT9AHlSC/aKeljIgsti55/Gsq19GAHy1dffVWEG3iUQoAxgY1RTjnlFHP66afLM/p3ljIwMUfcLGmgjrCpjfb9HFHC8RdYqmA2+cgjj4gAhrYMoN1Da6g771K3EBpRULCGHiGT8ZKNYVTzx3hAG2F8YuxikjidQEgbY505ky5MLqIR5HvSiBYToRUhlvQXoj6TF445g7dEW4oFHkg1xucGxr1o7CsTgTByzRo+L1KmBJFSs66FVwfdygP4TSVi0IIZpDPQ2XwcgoQKE+r0OaBSwrhFGsVIy0Mj5h4BT5/RMGAAYfBSVdpiDTg+DWjErMOio0VIRmiGHmhv2IAGUwdl3ouVxmzg58OFm07XX1z60SRR9ggylG9cedMh6zoumHXK0y1fddQDvecdQh7+KXs6RBUiNB2p6JkpzeUAbTvkiUEQZo/jQtjsRWcFGQwZRLt16yYzpdCFb/RbDacQyIa2wE0Hjj6AtSNu21dNv2qC+c2V33yj9YCre89VtYncIxQzEcC9QtOTKr0AGqd7nw4N/S4gIJ+AceWIACaKYGx79uwpkyGANlAu9ZR2jbaG9KKlqQQT1+YChIynnnpKygftGch3uWBZxOYuCFgInVhsAMyd6Yc5ToUNvBD40Ahq/405K+cmU79ZH4+5JgIhPAFAICRMNn0BCIcaprvLKKagCG88A7zXiWF4tVQCIcLytddeK5vQsf6VvQbQGGrb4sqYzLEwhdqZFV4KQRrh9f7776/RRKrFWePaOXSOaB0EwnJBLe0jlClBpNSs8wXCckXjGkru8BsRv5mRoiPC5ICODGaXWSYEQjpINgZwGdlyhObLp2Wq56mg/rlifoEJCIu5mdVmJy3MNwpZXrmmtxSgfrAOAnMXzLMRpBAEEYQwDWOWFc0X5si67hGQNzdfmlcX5ZzvUqAS6kNAQDpQh5l0gymm32CiDIYYDZzfJ5QSTGyhBWISFK0P1hsgtL3SAxNOBCmEInYYBdSdxmufakH5M3ahvUMDCIgDM1LqxKmnnioatrvuuksEK+2be/XqJaasCEUcms9kQkMEQvKFhpFJVg0b4I+J+nQCIWsI0RAiMBMfz7Xeki92Ye/du7eEUYj6zMQ5/BGKD47BoI3nr21Di4gepRIIff2S5wLKFdSLzMKgX57qio9iDzbEp05/o83BpIAOjx28WLjMuiUEIRo36ynYRYp1Wf4aqHKBmycXqZ6ngvpnLSKzbtAAU0c6cYRBOuZCItf0FgsMdph/PfHEEzLoXHrppaIV5DmCH+ttmDll9p+6xCJ8VxiMg+bVdQF1EegSUMlQpg0GEbM6jpPBfJ8NQjDNLHR/mgswHccaAO0GfVdoe+UDhByEDSausdLIn7BRC+ooghOmlRoHwhmWL4B6wdIaBCu0yQB+CA0hwh7WIJouV1gB/m/g1y/2EEDDBu+hgi4Hv7MzvIu4fGs7QnNJelSo5Dn5YT8KlgLlm2YKBFoUC1jBlHQihT1C8u0sHJGCB3EuwEUchVxXPohLneuaF7QDA3RCrHHENAI7d3ZbY6dLmP6HHnpI7NMZyOmU6WiYuWpqgB7syMo5P5iTYu5IvnWDHzUjaYog7+ooWxwzf8xaspX02WefLTOgbJTD4MJMJTuKsX6BmUsGTOqSOxBoeAEBAc0Pbl/AzD4Hi++7776ynh8tB7sPl8s4wvpiTPOYIM2n5img8WCnZXYYZezB9BHkuu4/E6ifTIBj+om2i7GOcY1lBIxhCHxMmLPuDw0iJqxMljMxynfUdYTWdJMcfpp1bOSKMMfZnUcddZRs/gcPwpiL9lGh3+u4iqP9EC/gaA7GYdY9wrPBr7HmkfEbGhaqrSF00nawENL1j7iiIim8Werk19lwqy6FG04+oEuLl3XjnzYLxGQdasUhNf2KDS3kTGg+5aoDtjLy6jB3YL0c6wnRjDH7w6wTM0F0gNirYyLIbBCDZ7o1kuUMt9OiI2dNJQuyyS+d6llnnSXCoNKlUkE+06Wf93To0ABBmO2w0fixHoCyZlKANTXM8LNNNruusUaQZwjJOiD5cbh0q2T6BQQENAxu+6evYJIRDQuaEDY3YxxheUImi4JCgzN76eswG0T4CCgvoMFjmQJWO2jT2KArn2AMZDzDrBItGzuMYi212WabiWaQyWE0YGwOwxEP8EFoFDEhxUoGYYuxk70HWGajYyKacNYeEga8Evs1YEKNpQ18BsdRIAgiSB188MGyJOPJJ58ULSWTJqSB71jSwxEXaEs59oKJC86lZtKWcPDH3gWsf0RwxsyWMBAKWVuofFo+gYaUXXnZhwJBlHWQ8I7uuJ9PTJ0ypWZdoguJS6Krldca6nzI83AOoQdfjvKyHlEqHuVDqXSpVDSzck0DX1iis6NDZlZXz+dhrRgDPDb1urNUJUHzSCf8+OOPS+dGx0nHTCcKAxPXAVUayKd20Jpnt8NG4GOWj0GQswLV5IROnnUTbGHNgIYpsbtQHAe9AgICAjJB+yFMM2GosT5gIgqt4cknn5z0Vbe/KhawdEAQOPPMM2t2hAwoD6hmi7WdCB8IRpQXQlS+QVzUPbf+xdVHTZOOf+qHq0J/u8/c8TIuXKD+9b3+jvMLeA6P5o7NaBNVAOQ38Wp4DYWmA3DPhntoMhEMETxZKkL4jYmjPogzijftGkLRENr88cDe5poCCc1+VBtqBMIJAqGPOCo5iCgVj/KhVLpUKppZuaaBNji3cfOMGTAG87feekuEB4QpOh5mxdAoYk7o2pHzTX47iMbD7Uyw23/55ZflrCM6G845QjsIyi3dDQX5dQcI7pk9pPzQinIgMyZTDCicFaYbCrFjmZYlYBB0B0AXTYVWAQEBhQV9Bw7zfMzw6IPZqRGhENO8YvYlpIP4sHxgAw6sIjgiI6B8oGMNG5ixIQtaNjR3bMSS6rzmXKH1QO+B/nbHPYXvx0W6sBoDN1zgC6/6XoVV1y/3+UoL4WBKy+7BtBl4PyZSdElNY8OvC9IcpTtbgbDGejRHJOzH/qcSXhAIPcRRyUFEqXiUD6UYhOo3lLoon9SWOxAo6AwQpj799FOZ9cX8hx05GdxZaE0nihCS3w6i8dAOE80YM43sfoe5BWsH2ERGzZdSpdvtjMoNcWkmvTxnNp7NgTAnwQQF0xVowEwrpih07My+ohnUjRV8EBZOZxxBuZVvQEBA+cLtN9ip+MorrxQzt6222spccMEFMjHlM+CFAmMBk5poKdGycD4v41hAeUDrCqC+YC6JVgqhkLEaARFzUh2D8jEmEYb7fa4CoYt8pCcVUoVdSIGQMDCDRVvLuYNMHLOEhIljDbcx4dcHaY7SXWKBEBBBFEktxEt021wQQyW3QObbewolVUXgab0CzAL6TWMrGOEQRiQQRvf1wbPGxVNM1OYpPzRqCDRuBEMGUtaEYNNOWrDxx56dhcaYGxZm9qhhIN0MKLfccots14zpKwMLA4yrSfPTqvktZ7hpJr0I6pQPQi+C++DBg8UPHTj5ZqaVnUF1FzL9nm+516uPVM8DAgJKC+2n3LZcamhf4oP+lo3K7rjjDtEAcRwF2gbGjEKD9GDuxiQZ659WW201WUMe+rX0yFSfCkE/4tQ6xJFQ119/vexYi0ULm6/AZ7j13U1Drunxv2+MQFhIpEpDPgRC9Qv0W3gJJpPZsIZJFPgGJtHR6gOdJM4m/OxBOqK05E8gjPeAQBjBSb/16p1DGEVSi7q/mgV8+rn0SpLKrQQIiFoxWuahcsQ1yFygaUEg1Hs3vREqq1xr8xRdiw3i9cHaM2Z8e/XqJZ02ZcZC7c6dO8u6PK7lAGa22DeKBerYvXP+lJoJab7iaBqX53KCm2Y0uBwXwq5obKnOuUUAQZDd05iNZ2bVNQlVuHULlKJ+BQQENBzahvW+1HD7kzhgvs46JK4cYI85WqHXpSvj/OKLL4og2K1bN9lVujG8RnOHW+/yCb/uMHnAhi6c5YdGd/vttzfHHXecmJD6acg1Pf735SoQpkI+BEIfTCQjCLILK5P77H7KZjhsIkN8hFkYWpDmKN35EQj1ZSpPmofavHgCofuq6cJvBHXg0856w7+SiV3DcMz2YXbBVe9xVBhm4vQ532EWouaE3FPJaHQ8U8czGjtOF8xmAkpAPYtQ86Tp1Cvw85oy72UKzQv0ZXEvMzYu3LwWGtBOO03KF2BW8Oabb0q6eI8JYpcuXURrWCpAE9arsG6FnbkwleQMPbRjmn6lW1x9KCZNGwraDTvmscYTE1HyQbrpuDHvoAxoT+nyCXjPO44iwQw4ICCgMsCYwMZfaFAqCey4+OCDD0pfjNk6RyBxKHghAd/Sr18/0VKydpx103H9fCX0/cWAjuXsPp6KJ0s1pjQG7nilAggaK45/YKM7xnUmEo444ggZ49iFs6Hp0LFPobyBCzc95QbSC9y0cZ9NmjXv6pc+hH0GOO4DesMPHHnkkbJzKvx54fNPOqK05E8gTOvBQkKJbi2ajUDoVhCtCHFIVEcVDC0DJoEjfx8lFYWFpWgf6FRh/BmICIcK6Qp/+lsrqsaFo6GpIKhXvcfR6dABoWlixtB1mLwBTff8avJDuPavbb/EgwMaX1OB5ouOkNkaBG4X+r4U0PKtBOSa1nLOl6aNdkNbi8ubvssWrC3EnCsgIKBycPrpp8tEIX1AtpOppYT2Sbn2T40BcQE37lQoVprKGcpTMJHKWXmpNnQp5BipaVDAV3IcFhMJLP+grq+44ooitGAF05C674+blL1fNzQd5cgPaF1108Z9pjS77+HlOf6C3cfZawBwSD47ynP8hk+jwoE0RekqE4EwiqQWdX9VOlzCMgPAobHsOIj7+eefzSgr9LHeauyYsaJVQTirnl9tyZCkg720a9tO7IirbONr1arKtG7V2t4j1FnhzjYkGhPf0TgR9rTC4VRwxPGbyqz3XNnVEoFTtR2ANBMm4WH2hmN2aOWVV422x19iSdtZLWoWXWwR+UYrb/R9qspQmeVKOXEGDfTlXBqgeQ7IP7QOlhu0vPPFuNAXcN4S7YkjOQICAioHmM9hfsm66GLv3NkUEcbTCBxNBF/GspBSCoRuHGp9hkXSa6+9Jmvmeb/mmmvKRmkcjeVuPJMJyi8qmrpAiH+ewXOjpWeZCXtCYJbLkhKW1SAIct6ilrnbHgpLA+KJ4hKBsK0VCO3PKP7oeYuWGn/BBUIiiBMI6z6pZLDWiJkVKgFrqtAC8szV+LW2QhxX1PDt2y9vlrdMYvvl25tVVllFNg9ZeJFFTCtMPm3FaFmFAJgUBO091xYtoiuNisqjjYtGjFNy07C5V2GQe54hDKKJpKEjnOpVZy7wRxyUS9sF28osQtt2C4qp2+abbyYmBCussLzEyzpCbRx1K3JllqsKhJwRx9EJlTAbHFD+wBKArdhpQw8//HDyaUBAQCVABcLHHnusKBu0NHUoj9LcgTUSPEepBMI4uAIbaWNzO0xJMZvmOdZlG220kdljjz3E4iUTfN6wqQmEwH0Hfw3NMJ1mrSAyAIobzII5QJ/9FdAK6zd6LQ4NiCOKB4vEtqohTOYR6c+Nn7sCCYTRh3VfKeKfljO08JD6YfYGDBhgvvvuOzN06FARuqjwCBM0chqQnkfGrMA/ll/BLLfssmYhtef3sp6OxIWkFFoMBEXyNGTIUFthRokmc9LkSWJKOW3a3zZfkc05g+IGG3QxG228oZibLrfscjXbS9dW7EioLE5Fzw/YrhuBkDUXdNKkvRLSHVDeUIGQ9ZUsJg8ICKgcIBAy2//II4/IeAfCuBDQWLA5HFZkrCmDRyw1lFfjiiIDXpAN7dhVm30MdG8FFeo6duxodtxxR7nSLjhuinaRjm+qNIFQ0wbi0ocAiDKFZV9ofD/88EP5zXfwkShQOFOaHX+RCUqfV+KPzj5E2UMqRCBMSn51Nq60j9KnUmmjVx/6dW0oTUYgRNOGsMfuj0j+zADA6DGLQiXnPSphhD62n8fkEPMSNqBgwShmiFIJIAXZVRp6WY8oFY9CUiquos6aOcfMnDlDOoJBPwyyQu+3Yvo2fsJ406oq2jQETSeCLztTbbzJxtIIMDNFs5kMUlCOjd1HEAgDCoEgEAYEVC6CQBhQCBRaIMyWf4F/5QxdeFkUA6x1Q8Ghv+F74V87deokAiCKA45MgBdG+4UyAD6Q9/CBnL+LoMQz3XRN01HJAiEgjTxDSfLRRx+Zd955p2bncYRo6MSSKzSoaFKxNivOhjG5wBUIEzUCISlsIf9yQSppRVE3tIoWCLUiU9gstmXHQc4fowIAtH/sFMQMCWe3YB+cbiev+dX1G4Of9YhS8SgkpdxGGd1HG8oA2WAmOYNAg/7tt2EyY/TjT/8zI0eMlJkk1kJS8TfZeBOzzbbbmnXXWdfSZ+madY7l1SDiEQTCgEIgCIQBAZWLIBAGFAKFFgjh1ZT3Uv4OKF+D0IZQR91GAIS/RbsFj8p7LMEYs+Bvt956a9lgBqgC5MsvvzSffPKJmFNjUsoeFbxDEcKaQ8wkUZDAJ8NToTiI4wdd3rMUiKMNjnvyhGCMAMjSKjSmbDBFnqEBWj80o/QLHAUGnaBXPT7fIk4YLhUigbCN5fIdgdCSIR9H26VDRQuEzI4wE/LSSy9Jw6UBUVGYAWBhKOpgKj/OrUhZA7J43iNKxaOQlNJGkV36o1TOmTvHTJ40WRhetiumQ5k7b65pVUUjWVI0pXR6dCw50aVECAJhQCEQBMKAgMpFEAgDCoFCC4QILCqAAeXxEG5QbLDZiWq30ALij10vOQYBTZ+erZtuLwWEHNUuYjLJsQoITQo97gxtFNZyCImrrbaa8NDsm8GzYvBZxIFTgUxpwf4aSiOeUR6//fabGTZsmAh+XLGQQxbA4R+/aAI333xz0ZiSHxRB5LNcBL5MCAJhDoCBwxZYzUJpEKwB3HTTTeVsHVTjbgV2K1pOgCxe1iNKxaN8KFWbSvKOdrCqZZUZN26s+ezzz81nn31ufh76i3Q8NBQ6l913310W1ELLQjf+hiIIhAGFQBAIAwIqF0EgDCgEirGGEEGPHe3Rbv3666/mgw8+ECEH4QaeFbNO+DKEMybw0eghBArbbpFNPcev8ko4hMMff/zR/PDDD9JusCCDF+S5QrVlCIRspojwucwyy8jxZ2gUeU7aECjxxxWH8MZvrvpMeW+ENZQ2XHEIxO4Vxy77mHai+WNc1n0zuOJ4Tl5IH3HgKBscacMKEIcGlHiVTopK6ReCQJgFmAl44YUXzKuvviqVg1kACv+QQw6RKw0lr4AsXtYjSsWjfChVm8q4BkFnw6Y0/fq9YXr37i2NC9phVtu9e/fYw7m1QyklgkAYUAgEgTAgoHIRBMKAQiAfAmGcGSLPEH7Y6wL+i00PEXTgy3jHLpcoNnbaaScRBDF5rNnjwiJV3c5W+FG+iSsCKfHCWyOYsgs/R7AhlKqZKX7JA2kDKvSpsMd7nml8XHEoF9znfK9517S6v3HckyaERKD+FAimaEmxamMNIAIy2k3owzWdthRoWsodJRYIAQIhzgW/SkdArSTMGtB46PC5UvgsjOXwSHYHYrYiX4DoComfmyQJ9JXjRaCFJA1B7soBpNJPqSLqDLjS8F988UXz7bffin06duRHH320aA251wbkmzeUAkEgDCgEgkAYEFC5CAJhQCGQjUAY8VER/Dqn73gOD8s4A6OPOeigQYOE3+IdQgxjD0oN1rlxliCbnfDODV+R77rtphPwG4dwhpCI8oW1jFzJA5pEBEXeqXYPwU4FOffqCneqMVRBkStOn+EQ6nSzRzR+qplEK8kVrSRw6ZKKTg1BvmnbUJSBQGh/2MjrRlda4pA0KtQtt9wii2NRJaMKPuWUU8QumIpDAVIZuealMN16ZeNPxASZquoVurByR6qU1qZTZ21o8E8++aSsNaSxYqZw0UUXyWwMDZ5noJQNJgiEAYVAEAgDAioXQSAMKAQyCYS+EBJX5xhbMANliROmjwiG8LT4hYfda6+9RKmhZphxYcCfAfddPus3+YDHQyADGh8gHpyfBvLANyoMAsLhHufeK/hWNYpAFQz6XB3pcN8BpbX+Vvhl0Fj44ZcKZSIQRq5cQCd/++23i0qdBsNWsfvss49orgoGv36VE0HyBIo8VcVn0TEdILu2QmeEb3ZmYhan1I0lCIQBhUAQCAMCKhdBIAwoBNIJhL4goryIagHhn9577z05/w7hCUGHtXhMtGPdhhDIPd8gNPHeDUehvzW+fNfruHD1mSLfcQZkRqkEwrLdcocFr//5z39ku11sqK+88kpz5JFHFlYYbCaIa+DaCWy33Xbmv//9rxzWidbwxhtvNC+//HLoFAICAgICAgKaPeCHcJhDsgYP4e/cc881PXr0EF71sccek0kK+NWDDjrI3Hnnnebuu+8Wq6t9991XdvFU7ZrLW/l8VqH5Ls2Hi7hnAc0DZScQIpiwqBVBBI0Qa9loSJwdoqrogGwBreJcfWgHwEwVG8ygGTzhhBPEppuZ16efflpmugICmhroU9Q1d6SiAc9d8x9FJrr57zP5TQd9n8lfQEBAQGPh9zP8xnEMBFZrr732mrn66qtFk3jNNdeI8gL+iY1ODj/8cHkH73TyySfLzvcIh+x/gUmkmkZmK3yVQkgrRZwB+QZ1OHtXdiajqNj/9a9/SaPjHJHzzz+/zu6hBa+gNdRIwovOf+2jfJqPFnIc0pc0VQI6c+XswmuvvVbuL7jgAtEglgrBZDSgEGDLbzUZffjhh5NPmyec4UCg7YuZ8LFjx4rDcoCzrZgZZ00MfTWbDOhOebp1OOB7PQuWfpyzoHDcuxsIsGEAuxvzHMFTd9WLa+OuiVVAQDAZDSgE2L2evg6TUfoszr976623zFdffSW8CP0c/RB9FDteHnrooVL/dFdQRaiLAbli1KhRMj6KyWii2j6x46D9i9lo9lDP2X9UVgIhW9/eeuut0ug4AqFnz541wmDRmH+fdskoiZ9XwqREj+qhIfQjrzCkxx57bPJJfeSed1KYKpWKzKmF8cKs4amnnjJPPPGECGI33XRTzaBbbASBMKAQUIEQweTAAw80W221lZj0NAfQxmlX7CDHOVgwPjBB48aNk/UzvGMzBO45Qwpou0vX9vADXD8qxBGnvgfqh/dsuc56cXaX40pbx5Eu1vFwbuqKK65YZ5LQR1zcAU0XQSAMKARUIOT4Bw5BZzKMiTH6KPogNjjUXUHpr4Bb7+L6uICAbJA/gTCnD8pLIPzyyy/NJZdcIqp1tFLM2OtuQzREvc8HyDZhwZxwrROuQ0PEQN7hn8dyH70SRE8jtLTUyyZ17gz3FVdcIUc+cLYicNOlfvSZj/m2nrSMNv/0QJrcVMaB8DKnlrihPeXBblnbbLONaG1h0IqNIBAGFAIqEALqE1t+n3nmmWKhoG2wEuH2IUDbMtuFs0b7+++/l+3PEfbido1zgXkT24CzMQL0QTCjD2DQQpDmXp+h9dO13sSnBw2jVVQtImngXrWJCJ0w9Tynn+c7BWXCM5yaW3E+13rrrWc22GAD2a6d54B3sX16QJNFEAgDCoHDDjtMJsq0D6Vu7bbbbnJAPJNVaAHpkwD1jf5V/XLvItTHgFzQ7AVCknHWWWeZgQMHmtNOO00W3gJXENSk5qtxxTZaj36uwKd3CSf6xPzaTiAd/ZRJAXolfhYgY4Lw+uuvy7NsIUm3rkUsv5p8mRbpUlsfrOs855xzZHaMBdI6I6bItWxc2qf7Bn/6PgiEAYWACoQIMWuttZZMTNGm2ViJDQE4BFcFjkoC7QMBC1On4cOHm6FDh5ohQ4ZIfhH81A9nO9GmMNtE84bJE/cIfty3b9++xgzKZ3j89qfPfWRqp3xHX4+ViKuhVDdlypQabSWO/hTHdwigrNvBsXMfs/c4hFNNb0DTRRAIAwoB+n76HM5lRguINtDtT+L6ulDvAvKBZi8QopJnV1GYENbxIHioEAXzokJhPkCW2SQF23CYvrvuuktmgs6x8Z/173/buFrJAuFzzj1HNrW57fbbzb/t8wsuvNAMHzFcBNdPP/tMmMcrLr/cbLPttpZukXYwVQqVzDBmLDJmdv6yyy6Tw0ldgRCGCA0cZpqsqcEvHZLapDOjftttt5vrr79Bzgg879zzzGGHH2YZVpfxyaYi5FbalMWFNv/ffPONOemkk6SzdKH5y4bx85HuG/zr+yAQBhQCKhBikXDPPffIjnEPPPCACCG0u1NPPdXsuuuuFSUUfmb7p3feeUf6GTRyOI6OoS8lT6x5UQ0bkzt6ODDv4tqUtjWENpginzHSb7R9Z2qX6g8QJv5d+vLe90MfpFeE2/79+5uvv/5ahAF3wysEQcYRjsuh3OhHA5ougkAYUAioyegLL7wgk4V+nXL7J0WodwH5QGkEwoSpuhSpJAmJMLotOr744gvz+eefi0nitlbAcgHzkc+GRlgINmi6AMLelltuaYWs68UUoItlksaMGWMuvvhiMZO68KKLZE3jSDvo7LBDV7PlVluaC6zQtsjCC1vh6GTTvv1yZoMuXdKeEULnQR632GILs8suu4jQhyYCQZDZd8wTOHtkzz33FKbt0ksvlRnvO+64Q2zXu3btKkzdUUcdZYXnH8XUdNNNNjVXXnWlqbZM0pZbbpGMCWSiVe4lDc0Q0mGWEc67deuWfFMXbjnFdZiZoN+73+o9+UcQRCOgAmk+60VA8wRatFdeeUXa4f777y9apk022UQEQoRF2i2aNbRm9A/0R9RJrXsIKAq3/jambvpth7B4Fhcuz9Ca0ae99NJLss63T58+MvkEOABZ+x36DyaZWBeDqSX5YeBBEEQgS5Vmfc7VFQaB+w33qcJwof5w9CdxYWo4vMOPCqz0Q0yGMWvPwc6YcXGPVpAyRGikz0RgZCdANsaCsYNOmLUSRkDTQe/evaWtYlWEthto3QkIaCgQBJmARzCkz/HrlPZRrgsIyAfgSWQ8ll8RL8B9oWtY2WgIH3zwQfPss8/KUQc0QKBJcxtaHEPUEKCFRBb+8MMPzaqrripMBOsXP/vkU1krh4aw247dzKAffhCTMeLt3r27CGuPPPqIpIFnaOvoOD6y4aRjNPB7xhlnmLffflvW7cDgECcz9cTPGkLOqEFbyew3WjAAU8MmFzA4pOuYY46x1w/Nuuusa1pWtTBvvfWO5OXZZ58W/3VRl6msRcPohxkXO2nBVCEQMitPHsgbTsE9Han7DHrBOLMxBd+44Dn+fbDmyAWMIXSAiQ0awoB8wdUQugfTo61HGGSjK3bSpINmi3H6Aeqd9gFuPdRn+aiX2n7c8PRer5MnT5aJLawM3PZIn8Lk0o477ijaP/obHO9ob7Qlvs9HOssF5A0akD8OiH7jjTfMRx99JMIy+YSpQ3O49957C21Y+6hQegZUHoKGMKAQUA3hiy++KBMNoU4FFAul0hCWjUAI09W3b19ZP8isrw8nmXlpmAhRN998s2i8EL5gkNDKffDe+yIkIhAi/Hzx5RdmSSuAED+z0Gj2VDvFNwxECHVcXQbDB0zKPvvsI5pG4iE83C233CKCHp3OEUccIUIQdFDA8LGIGX9sPoPgjEC56KKYMFi6zLf0qDu5XhCQftJG3nX9kQ+3jIBbTqne8Tzb8sQv6cDELQiEAflCKoEQUL9gCp555hmZzEEwxFScc6bQutEHuHU7n+btGi5huXUdbQh9Af3UJ598Is8QdtZdd13TpUsX0W6iFSRtCjeNGl5TgUtrpRP9BGCiiQ10oBfmswy0+EEwZKINixToBlx6BVQOgkAYUAgEgTCgVGj2AuFzzz0n63ZgtPwjGHzmJR8N0xUIMQUDvkCItvL9Dz+QzoA0sM0w32CipMwDM9IwY6h4022FDoPCbP3uu+8uayUVdDaPPvqoaBkRCAmX9Y1oI/iGHfgwFz3xxBNFW9ivXz/z448/2jgXFGEwfpfR/IP8//TTT+b000+XTSYQDFXzQJqVHjDElA/Csctg8T15UqdlqGUbJ0wrPdUvzPjxxx8fNIQBeUUmgRBQ99jw6u677xYtNXUY03baA/VU/akgwu981k00f8SJYMM6R8zLAe2NiSbWyyHYqDCaKm6/zWj7q2T4+YnLO9peyo1yRHCgf8cfVh2bbrqpmNFihhr6lMpDEAgDCoEgEAaUCqUSCMtmSlQHY2Zzi4FcGzf+2eq8/4ABdUjM2qNOVlCsssxaOvA9eUTYdPHmm2/KFeGKWWs211GTSgQqNIScD7bDDjvI7L9u0Q7Iwl9/TTAP3P+g/K4PrRC+axjYqII0oYHA5Io1SaxFwnwUoRXHbwRftCdoNtWxhT8aVjayYO2SunXWWUccJm6+QxOIQ4OLgz5NgYENqAy4fQRm0qwzxjwTs20mMJhM4niK999/v8bkmW9oI+63DYUKl1wH2H4Hk/LzzjtPBgvWOSLEsvkUQiltSyda0rURP138rnTnwv+tYNIOgZ++hjWWmObvscceUq6YBffo0cPcfvvtYmoaEBAQEBBQOsTx6+6zbFzuKBuBEIEBJotZeDRgrDWDsSmEAOCvYXORQO0WA9Kx5157mUsvvcQKhf3N3Op55s/xf5mLel5sNt1sU9M6i40KWPTOJjIcRg8wYcIEFCYGJpIdNDnegbWUgDjRWq6//vpyUDYMDALiSy+9bL+xzI8tvTvvuNM816uX+K8Lv3L4LjuQBhhSzNQQZkkrGgmepWK+UoE8NoZZbkicAQH5BJuWsDELwgOTGxzp8N///leOj8FKIJ99Fm0F3HfffSIMsgkVwKweE3usKdj0SqFtI7SRzGALeXaLRjBkJ1LKjr4Z4frTTz/NWxkGBAQEBATkDpdfTzpREebickPZCIQwMazZgwnCJIqzpwoFZtLVzMtn4JZYYkm56gYx+g6/xx7b3Zx/wYXm+BNOMLtb4WyPPfYUTdjVV19dw7ylAt8jSN14443mggsuECaEc/3QqBEXQir3Tz75pLn//vvNdtttJ0Iy2kBmtAEaRtYxsata1647mu223cF89fVX5tZbbpH3tchUGTK9j+DShS3sOZoDzQTaOt2gopgIjG5AIUC9inNx0DrPRlNXXXWVbBSFCTWbumDOzK6WrLVtbNtgQgxrCQQUTJawIDjwwANlsgizc34DP53p0h5QHywXQMuLgI3pKJreyy+/XAR+Jt/STR4GBAQEBATkF/AOta6lHc5xOra34EeBUFYH02MOefbZZ4uWDLMsZuLjkA+GB20T60qw0wWEyW8E8KoqtjlvJccctGm7YJ345tt0zqueZ6rt9xwzgT8VBtOJhOSPcLiy7sf9jUNIBYTlmoziV9+B6HsOZI7S3Lp1lZlfbStNlUsTrUzpkLm0Na2sz/jXv/4l6yU5ixDTUODSxb0vFGDQ0KKGNYQB+QRmgqnWEKaCtlHaJtrzG264QUwPqZMIi0ziYO7cUGCejdZRw7vuuutkIobfmSafArIDtATahzAmYAZMWfKOfoZyZCIuoHwR1hAGFAJhDWFAaZAwo0aNMAu2bWPlEdYO1vLyWgMT8zPx9w1DWWkI0dpxHh8MD+dpvfvuuzIw8851+QDhqDCojAGaOlxVq9Z4sAXStl58/F7Avm+zQBsrjC1Qw5xZsS6tCKbhcIWJZIafq97zXP3oc8LmSvrUAQTWVlVVpqolwqANs2X6dUMNBWHCLF977bUiDGKyqsIgadM0a7oDApoqtP0hNADdTInfMAucC8pkCabdo0ePlg2p2LgKYVHbZro2qmFzRcuIMMhvLAUwSUUYDMgvoDVOhXv6MdY/oy3EEgKLCEz2hw0blrbsAgICAgIC8gvGnOKOO2U11cygCwN00kkniekOh7Iz667v3Gu5gd1Hq1rV7rjpOwQ7GMVUUMHKzZ/e6ztcKqR7lw2Iy6ftjBkzxCyOdVKsuUFLCBobV0BAUwDtmrZAu+GeyRJ2IWXihDVpTzzxhGgv2BDGhbYzv80Rxueffy5HzGCtgJUEFhMIg9r+8VMp8PuTcoOWH8I90LLs1KmTaAZZI4owSBmwE61fXgEBAQGVDr9f09+hr2t+KBuTURcwQ4899pgcRdGuXTthsNhAgR3hSK4yR6mgWcrGj0KZAVmz6X7nBSGvk1cXw0eMMH8I0zC//ksLmA42hyE/ilzSVx/2W/Vib+sHxctUYeC5ftxunB9//LGsZWSrdrazhynCdKqUDGlTMRn1y5ajBL755huZMIC+7Mq6/fbbm7Zt24qWiDxSHhw7wpoyvqd9oM2mXRSSDpVK41yQrcmolptPD57jtG2gTedYA+oo6wBp++zEy6H2K664Yg1NKVv9hmdDhgyRXUQx02Y9NY6JJB+p0lEKkAdAPrjHqYDl0kShaVfE5cHNH/eFzKcbvh8XR1RgqstmPqwvZHKM94VMT0DuKFeTUdIzfPjw5K9asHke5xHTx7vtv5LrFeMTm+QxPjUVNHWTUe1nfbjPyTO/3X6c9e3wYli/cO86rC3ingF2emY844pVHE6fqXUeVnuLLbaYOOIkfpfucWnT9Pnv4oCfVO/KB2oyukDSZLQWel8ok9GyFAhhqKgkL7/8ssy4k0Q60J49e9YRqFIxG1rg/m8XTrYFWrkyCYSpwNrC4tLOxqZZsLfxdbxuHmtR3zN5V5qwcQXmbjB3CLGYr+mZgEIjpVV8pAVDU1tDiBac8xz79u0rnSEdJ3mC7hwszjoy1qFRzzHb5bxKhAaANopBimNP8gEte4BgysZOTAIsscQSyadNFw1ZQ5gNKMfnn39e2hIDIzuUsrMlB6LrAKZ0x+9ll10mZc7xFpgq0ge69dsto3zVezatYlMc1kvrRjU+iDfXNq9pZWMsaIt1AXn0+2wFTBeb5uh3CM5oS2EQ6IP+/e9/1zm/tRggvWgGsVhhkpLr/vvvn5JOAaVBuQqE9NEffPCBtGPdNwDolV3HOXOYib9UyKXNlRL++NQU0JQEwrh6pPUQ8E79wH8D6ixm80xqYCXGdejQocIfUKfpH/MJxgbCJB1MKjIec/wYyzC456rr6N2xRPOVrnw0b36eyxNBIKwDLTwq5tdff23uvfdeYdoQBGCgd955Z9EW4kcLVSsI3+L0HsQVvJNtAX4kXh67/rMkiB9e4WETplHa25gs5gQYVrQaaGU5CxFGDFrvvffeQmttfEIjpVVjI80RTU0gZNdZdm+95pprZPDhCAHyyBqyE088UXawZR0ttPcHXM6fQ4iEic4HDdz6yy6WMFhsv49AWOl0zoRCCIQuzThGB8GQWXSeoy1E+4fQD3gG44gGarnllpNNTRDSXJq75QPyVR4IhMSZbnDnncbnx6v5dPtf/Q2os5heck5iHDS8wYMHy7pxjtcA5B+tOTPFlAkaOoTLTPDTlw+gwUdYh0lhGQNCRyHiCWgYylkgZELhjTfeqDO5A5ONSfILL7wg4y2CYSpouyoHaB8UR9sgEJY3tF92Qd1iN/8xY8aYkSNHypUzbsePHy/P4UWYCNP6p+MAfAdnQkMTJsdUu+c66rveowUkfsLyNYc8g8/Xd1xV+4hA6qcZ7bpqEBmvERBp89wziaj7gqSC1mFFeZZpEAhTguTRgXIgNAwqlRKBgNnijTbaSAZpt8PU7HBN15HGVQyeNTeBEHrS6bEGEsYH0Ng5GoOD46Gh32hK1YiaikCIZhDN3pFHHikC4Q477CB50TpEnmCOMTHkGBI2WvIHXMoN+HVcZ/cIi07ZfU8HzHd04sRBB0yny2/8Ap7tueeeMjiw4yICoYbBt4SrHTVtT7+rZBRKQ+gCun300UeyPhBTRGh36qmnivDNPRMAzMJiBcE66kLUa9Kg5juUIeVKm3IFQq446pHft/Kb5zwjLK1LCtVw817rBf7Vj9YdjQNGQcPCH+/0GTurcpQHgiF1krhx0EXrMcAv4RNGJuRKU8LU+NDYMjmJ1nyXXXapeRdQepSzQAjvwtnKpMeto/Tja621Vs2ZotR93tNulAmHmdZ2Sn2XXc+T5nbUSdoD73H4JQ5tW/pOw+TKc54B/BIu7/Qb9Ud7c8OAySY+tx1reOwzgNUWk1jQ3xUIiUPbtbZdvQKNi3A1rYC8lAOamkBIWZAH8sTY/sknn8gaacqAugD0SjkB+l8ELcbGDh06mFVWWUWsljIJXo0FdYu6RLv+5ZdfRFD99ddfZewE5IN0K/hNPUImgJ9i2Q2ad80H7wlTy1Cv5YnSCYS1o32ZgoJDQLn44ouFWWI926RJk+T3+eefL+Z2VHDtoPSbYhd4YYqnsSBVdR1rHHEIJczAc4YiAyrCIGdyIXxgLshg5XbeAfmB1lHWiiFwowXUgZDOGHrzm3MqMSdKpRXhSBY0jBoe5alCPAMqM2esvWVdB8AfZ2CutNJKIlyus846MpDjD8GTDhfQmaKVZO0b9YHBkDQRDtpizB7paPkeJpmZvIDMgIYMUmgGdtttN2G+MIenD0MjDOPIwIsmrZBtjomGbbfdVtKAZoLydYHQisADM0tdwC/MA/WHetmxY0cRnqlbaDrZgIW1xjBPmFOiDWQdkTKe22yzTY3ZP/00u68S5l577SXLAJjog1FhggRmA2h7AHzDjp9o5kgDZktstrP11ltL+jGvRcOuzE4+oeHRLokH6KH1hSyjgKYJ6ozWG6xBAEdtUb/og2krXOmXN9hgA+lbqe+0GfoGLHVgxqn3bFRFWIzh+H/11VclPMJi3B43bpz034zl+MMSAJNnBGaYeSZcunfvLhpMvqE/og1h3k5dJ0yEIDTzjEOESb3Hffjhh2KlxXs0NVip6IZ52nZh1llqgrk3/hBk6VMefPBBiQe8+eabQgfaM5O8hEVfGJA/UB5YX6CNpp+E1kxEM7nMc8ZyeD3Kk34dCw3GKCZG6ZMpL8Z56somm2wik4eFFgYBdZKxBT7o6KOPNueee67UZeo5aWNtN+d4kxfGKUxLAZtQwt9g3cZkCxOwaOgRLHXCUsemgBigIVQ337pyhe1E5GqZgoTtSBKHHnpowjIkCVuRE5YxTtiOJDFt2rTErFmz5GoZ5MSMGTPEce87fef6mTHdXq2bNWNmjVP/hCt++D17llxdN82GMT3p/LAL4qaTXpsOcbXpjBz5wU2PdZ999mni5JNPStgOWmhoGcCE7QQSf//9d8I2FnFKa726rlSYNGmSpNk2dvldyrQ0BnYQTtiOWOow9dqlrR1Ik74i6HPbmScsMy73YKeddkpYAU3uKa9TTjklYTvRhO0oE5aRSAwcODBhBZCEHXATlqkQP7zDjx18E3379pVnN998c8J28IkjjjiiJmzL7Cc6d+6csEKKPLOdacIO6gnLmNu685k80+969OhRU18qFZQH7cAOejU0KDS+/vprKX/KUd2FF14o/Uyh8PPPP8uskBXQJJ+TJ09OWIZPnoEhQ4bI/Q033CD1knK1Alti6aWXlj6Hb3hvB2mpp/w+9thjE61bt0689dZb8rt///4Jy9glfvjhBwmT8O+66y4Jj36a35Y5lXdWGE1YBjfx66+/Jnr16iVhK/2XX355KZexY8cmLBNSkybCsIJkTXqssCpt6amnnpL08iyVawj0W9JIGVnmpMFhBRQG1EHa78iRIxtV1vmGZVQTa6+9dk2a1FGPH3vsManvtC+e0ZdbwU36cdoW7Yh+fIsttkgsvPDCNW32/fffl/6b/njYsGESD22K73mvoL3gDz9Tp05NrLvuutIun3jiCQmfcGhj66yzTk27ee655xJWcJM2NmrUKGl7jLX084wngP6JcYA2SR/Gd/Sb5KVDhw41Yd14440y1hx//PEJK5xKeNttt13CCpaJZ599Vvy8/vrr8h3h0dZ/+uknGePLBYcccojUq4kTJ9ahLfB/lxJKc8CV+kU5Pf7441J+5EEdYzvPrKCU+Oabbyw/OFO+K0eQF/KWLWgv/fr1S1xwwQWST2QD+mzyzf2JJ54o9Z48z549u4zLFJ5rWGLcn78n/hw3KjHeXnF/cY8bWyg3MtECEthGWYNyn/ckucx4MaPO7m+ovZkl47maUgBmGBS2Usk3tsBrZujiwBv/rfRY0a28rEOsGMj3mTw1GulTKjSS7NfOZLt5b2FftrTuH/9YUWbambFnPRPv1RTFpV+5oKmYjGIKx2wwM7+33357vTy4vzWPvskoM3rM7rHxkh1IRXOOZoYZMcB3rF1DY4NJErNlzKqhWbdMgWiCASYYaIS4MrvG5kGYjGK+iDaE2V3LpEg8zN4yYwyYAWaGzg7qMmPMDHalQk1G0ZZy5h9aVFDIukX5sFYDutpBTI6p4Aw8NMcab77jR1NHmWF6w8w8aUDzi6aOe2b0rfAma4hpY4B+Fo0BdEEDSJosoyEzs9wzW0udU7M4aMmMLf73228/0XAzK41GkL4GU382mNG8sVsuGo+3335btCOkA6jJKJoLtAzMELPukuNveI6mEljmR0xs6b8wWcN/KjSEntofWgFU8oOmI2gxygvlbDI6aNAgqf/Ua63brNd66623pL9BS8ZmGbQt+l/aAVYegH4VTT7t8swzz6yp22w8hbUGffhtt90mYwiWBj///LP0w1YYkLaGxg2NCuFiTXLJJZfIplYaDvUYzT7jAeMq2hj6BvyTNngGQL9EX4VWEhqTFvKFGSFAy0lesdxC64TWkfZJe2GtO4CfQGvJhlqYHtLn9enTR/oF0k+fgB9oVA5lB6Av/R/9Cxon8qR8kfJTpU6rW6/YER5+GGsv+mNMj0kflhdY9FCv0LrRt9KnwRe7/aWGUy70byjIB/wJG+BQH+GDsHhiXSRAywktGPew2oHHKa88J2wfMbzGZLRlMm3SNqLXBQJx2YvrBEQY58oAWnCYTmC2hBocRsfdtADCUdlxOqBjRgezq47Fqb5rh2vnOfe9/b1Q8lmck3f44b6grl3kkump+W3fYerRrl1bU2U7LreS633rVq3N4nagYGC47777RB0PM0VHhx+E6nIUBpsSMP2hPjJw59oRaaftgokROnbMTzEzwiHgwRzBQMNAAOKC0YfBBrQP0oJwAGPNAOIC/9OmTZMJF8yPcAguONIOs4LgiDlSUwBMDyZT0CLXcskVhA/Tdfzxx4sgz2+dzCpU3KzFoC9kQAS0c5g6+kPqFYwq9UiFQcBgiTkODJwyiExEuEBIIs1uut26zXfURxhHJhS0ryFOBHEY17h67QOzZvo4+n4F/RVHr1APqc/5BvQClA3h6++AgGyAyTOTLPAomLzhMGFjQo+JDdofdZ82Qt2mbfIbByNLO2Li0K13MLMcAUW/TJvaaaedpA0xucR3MMGYmiJs0bbxN3PmTJmo4Ur/TXvEFJu2zBIBwKZXCHH0AYRL3w8TDdOMAEiYxMEkowqDAJ5Dj5ugbTNpSR/KxKK2dcA4c8QRR4jQQn6Jh3FwzTXXrOE53D6k1ND+5P333zc9evQQ83YERF3jWay0at+oVxc8Y7xn0hdeDp5OFSSU9wMPPCBmn+zSTJ1jspO6RNq54k/D5Vk50b8hIC/kgTGJSXLMmTF5ZS8GJkQQiKnTbOLGpCVti0lt6nsclDbNBfU5/3T5LyPa6AwNDZOZGxY1s5aFGXA0XnSuWrmxeYYxZqYLbQc20qydwUaaGbTevXvL9ZWXX5Fn6vSZXJO/i+ncOEmjprPW8T7yQ8Mn78z0sbB2KctsAjSBuHXXWdd0P6a70IlZO2YD6RC0Y3MrPrRtbg2hmECwAghSDJxxgP6UE4NRJsA0EA4aFDaBwbHWjyvaHmZutTwpWx18lcmg/HVwUGidwPENzAkMBOGqY0MUANPTFABdOOqANsIgW2ho/8UaaRgj6KizmNp35RMwh8QHU+hCGR/SQLwqmFLu1C0GS12jAfy0UUfi0stzDUuZP+oi4QLSot9mk1++51tNL/c4ZoILPcuL1gOwyUJAQLaAAUVAQnunDi06uw7T7mkXtAOc9seA3/gDft1GiMPR59N+0ADh4A8QVujDaOOqcacNc0WwQ3Ck7+aKYEl7pH3TpviGdeaMG/QV+GHyBcsSgIAIaIeAtqftG62TAk0g6YXvIl6FppVwiI/v8cdz11+5QNOEBQ38JPRF8GXSEG2cn7digvjQel1//fWiIWcvDeoElkesA8Tygiv9tk/jYqe1GMiUP+oscgEadSZoTj75ZKn/jLc84zfWLroWFjRFOmVCRauC/AJj9oPGy4wAAh9mFCzOpuPhSAVmAmD2WFzNrDJmeDQkZpfpNOfMjba9TXC4vAXhtxAdamEYtEzQOEkHnT9qcK4zZsw0UyZPsR3/F+aOO+8yxx93vM3PETUzIQwIk2xFR0PU/dju5plnnxGzLsy8mDVh9oQwdSDy6cizUuS3uQB6YzqjA7cLZXYpa8w81eTGLSPuqdP6jPJiMGBDEJ67jvDQ7lCeqcqUcDTeVGBBOTPL+HUdcTDz2BQAAwOTxiYqmEZFfUHhBwWYLjS17PimcarLJ5goor4hQBE2fQnaAfo+6gZ9Jcwa6eA99QohFc0iJmhuf+Re48A71z90hcFEm024AGaSQZp+2WWGU6FLly6S1v79+8tv6h6mnEycwXijLcw3yAN0YvzgnslH8pMu7wEBgDqCwIew5DoEPEB90jbiQtuHHktDG3TrGwIc9Z7+Cr8IK+xSjODJ7tBsIIIJKlpEwqddcEXDTj+v9VcdJuC0PxxaMJ7Rtqj3XPU3vAPxETfPAPnjnuUcCvgO4sEfUL+AvoexSp9xdd+XE7QcsOKALvSfCNDwlggQ9Fv0R0qjQuTDpZNesWRBu4XpLibGlFO3bt1EKQAPiGYQbSzp9+sX32u+tP75fioRbl7c/Pj3tAXaFZpwdtaHL0Zohqa9evUShREbrzEON0fUFwjT1Y0yqjda0DAVVHK3UfKMgqeRMOOF5I/wR6e5/fbbS0cJc4v2hdkBGjx2/phRXnX1VbaS3CqzQK+88rL57NPPxASDDm+ebXiAoyninLyLLg0G6Uc7AROGSQnmJezyRYfETN2FF14olRbh7hLb+Enj8BEjhNmiw0JLdOGFF4npwAMPPGgOPeRQs8Ti0eHi0Ci6JhObhNtoAgoLyheTPGapqKdMTrjaKAZl6iazu5QXkxp8kwqUHXWaDgzBzwV1lm3yWavRUFCvEAYwJ2QwV5AmZkwZgJqKhhChBS07eWZ9DWWUypQkn6A/QhgjLoQbyrQQbRILCdYMcdwFdQKLCvewd+ocE2owOzA9rFk99thjReBn5rkhgPnAUefZBRfzJdYMUVeZ8CDPTDZkgtKDsxoxM2UgR5glrTCltKNC9WO0LczciKehdAgIyBba32NKiTkmO+yqJg6w7pc1k0wqIgwC1uEiGMDUsgaQdqGgfSGE0aYZU9TB18DzsKSAODE9hc9QixLGItoUbRZNFG0VvoP4MS8F+KN9uGvXWSNIujEvxcSSMHiOsApfRT+kQmo5Q/kl0s7aTHjIK664QsZDBEF4xzPOOEPGQWiDv3xDacQVOiPsEyeTlmhxWduIuSjjlpobpwJh0BcXIp2VCGjBJAdm3KzTpT1RjrQB+C6OGSr3OppvtKRquE4ADeJcGUELSjstCpcrjoEb6G9mSzCXwJ6YoyuYEUOlTqHDTGMPTwMfOWKk+ebrb8ybb75hnn32Gakol112qTAufMvC7GOP7S5M8PX//a+5175/7LFHzUu2o+3Xr6/YJTMDjiofrSOmE3SIzMyx8QezzDAWzOowC4H2h86WjoW1kMRDxw5jBtOGyh+BFm0FDBybfGDLjwCxQJs2pkuX9UWYhXF98cUXRPuJ+QCLoFdaaWXTqgo61BYgm8nQF0ATftMx+J2DPot7F9B4aJ1kIwHs+ung2bSD8wgxIWWSgrUflDfrFhhc8a9lod+7ZYMpJ3WZQZt6RN2jDsL8U7eog0AHOMAMroblAsYDfwilrBlBo0TYtC8GH9JFvWZgZ80CGnY33EoGeWRShfaNxo7JGAZ7pUkhQVlh1kJ89CGKfLZBmDQmiujzEKrog5hsQkMJM4nmgr6GtT9MOtH3IAwiOGpdoS+FudR6A1PCWkjtL3iOYK1WCLxTU082aaDvffbZZ0XQJE5m2QmTPhuGBlrzHWZrgDIhDLQhhE2/yAQfG2Ewicdz+lWY53zSSsMijZj3YepHOtBEAs1/QEAqUIe038hUN3mvfvQejThMKpoM+nbGB/ok+gp33R6gzcE30FczZuAUbOxEv3b55ZdLv402hD4GKyl30gshEkGT5wiLWAogADHZgn/aPWMA/Qc8hgp8tEmEUNoEjgkuxh3aNmMcyw3gfzgqibWLTMwraO/l2pboewA8JuA3a6AZH9DQYXrLWIsAgZBGPrHsAZnKOxcQFnSGH4Qn5R6egX6QMkPDRRrxp7TUOqTOpzHPmhP8/PNby5exhw1mWGNIvcXSkKU2bMCH1hXZADAWNHWU/cH06aBJb0yHQhgUNLNimFlOmjhJmGHuJ1g3fuIE6UBphNgb08G78foNS9PiP4+Dm243TJgsmDQYEGbWcaw747m+W3LJpU27tu2sfz7i+2jgaQwt4pDv8BqDprLLqAJhi13mmBRgwKWeweCihWAQZp2nzgAzgwUTrFo6tN+8Y/0odGBghXGAwaczgy4wEwhtaI1hIGAqWD/L7nUw0PjhWyY6YACYKYa2zCSz2yUMAVpp7hEwObMSrQxtgTrI5AVMCbb4lVwOussoAwEME7REMGeChUEDGmKCRdkUCpQDZcdEFRNU0J2yyDe0n4mDliF9HPc4917bmz4D+gwH3RhcuSqDgl/3mQ83HBf81gGbMLh3/eh3QJ9zdZ/7SPcuDloPaDMww7Qfl9EOKA+U4y6j1EVM9+jT2fFR63IqsGsoAgXjAJMhpB/H2lUEDiZRyCOTJqzdRrPP5ISbT3YuxRQOge7ee++tmRgH8DeMIUw4sZMo9ZkxhEloNHakj/rOuIplAP087Y5xAkEOf0ySAcYK2gSTmYzJCIdoF1muguBH3tFmEQ4MNbuTkhbi0XENDSHCLeM5VhG8K3WZ+UDwxvqFCSGdoHKBeT0T/EySMi6TfjROuo8DeWwsoCWaKgR3FAuYOzJWIcBQhtr3ZUK50bacQVuhLcFvIRtgvcOkB31LcehYul1GK1ogLAightvIkmsIAbM/MI8sPGVWDcERpp6OgSsOu3kc7/lNpwojCUOOoxHjEOy4wtTznCsz5brrnw8tJq2Q/Jw3r9p2OnWZrGw7iGxRTh1JUxMI3bIiHzoDlWkg0e80/7V1ova5MtG8U3+AOozGxv1G/bsMuzLw6o8rzwDhZmJwKgkqENL2YGDIGzRBk485Dve6WZXLZOULSmvqN4wXGxbAiCGA53uzFMpZyxotsVvmbp0A/NZ7wG++5eq+0+cKfvtw/bvQ5zilu8INh+f6270HSr9McL/JBphJY3KNVoNJFSYGFISVa3gBhUG5CoQ42kU2fYa2S/xqW9I+1q/7gN/6XJ+5v/3+mTbipkP9xsFvy+qP8YkwND4/fXznhpkqfEB6+J4+KB+CUyGQSSBUOnBFqEWAgO8jT5jpoq2Fr3Pzl47uGp4LJm8xk4dWWBVhAURa4vymQ7qyCKgLaEsZsiYXrTqKICaLMRlGMVN4WgaBsHzgE7tMCSKlZl2LtHx5qppTmaXcVAXCXPPgNNl63/o04bc+0+dxfgDP9J171XdNFa5AiLZW8w0DBDMAo4lghlkQs+FKm0IArSzrcZhpx2SMONmIQtPkM3q5wmfa8oXG1pNC0lSRbfjQiMkAyh1mABPa7t27/3975wEgRbE04DY8A0ZARTGAKCAIgooZnwImzGJ6mHPOKCZQzPmJmMCEOWeMKIoSFANiwCwKIgg/CiZQn3r/fHVbS98wm+42zO7Wp83MzfTO9PT0dHd1VVcntfV6nUKn18iOuAqE9U1D+FuK+pv98DYduQiESvi+qQQ+/1r6G4i6ftR9s0lLKUgnEGqa/efFpBczWTSfTOtBEcAgIhY4CHPU3X4eRuUD6HVxOofVDwoGTHWxyPHT4d87E3HM37jivwcGBdHOsrYj1iEI+fQTCks+BcIcIgcXb1jvogohe9OFYkEZySwMpgtGqaHCKUZFHb5PMe5Z7pBHaFIxv0IzxMgvjTMOFXJpiHOBzgLzQTAHY3kD7kVnlzlyjFhGkWtaCvXuw2UsV4pRJsmrTPnFe8YUDvNQBqBwsoPWFqsNfcaGPqth5AMtg9mUxYYOJIGV+dSQN1h4MTf6oYceErNYjmFOirkhJryYIqaqx4H4BIR3pmgwh406iGsxXzoslGp8I79ontJWqDMhTIExtWawljaiUH2A/BKkkUeJ8oAZFYL4JhDWg9qsWzDEh0wpil+KDSOO0DgwUszoLKaDzO1DQAMEuHxCp437MQLJHB2cN/A3JkOMUmJKCr5gUx4NU7yIyj+2OOzCiQZOdNAIozXGAQadOMtno5wxwaGw+HUKeY0zHZxyYdEEzMs/7rjjZI44Qp6+j6g2BMuUBx54QPaZW8mAVCHen96bZXwQQLNFzegzwfV5Fhy1ICgzP79c6lHyWwPtMkt84DeB+bNYj5QPueW3CYSGUWb4lVWY8LFU8Xz8OFFb3a9W8JiJNzccPzDKi4c5dSJQqAYOr4GYp+DdGBhp5m+cTtAY63zTqA5FujTp+6zEkAm/wwb8zWg8jj8wN6TjReeIvGd0nrxHM6iCerb3MYyGlJNwOYv6O1fCv8nmGlH39YOSKk4UUcdTxY0zmubws+rfBMxE8RSOcx2cwNB2IOjhbZn6HB8TYc0tdRJ1PEuOIYCgGfThvAbFv2eqkAqugxM72hPqwmxgug5OgzLBs2Fuyzy8DTbYQObhNRT/uYsJg7RM3yAvGTBkakclYgKhYRhGBmgI8JDHMgzMK0Frx6TzdI1tQ2C+D84IMBnFZAWvdcx1ZB1S3I/jnRbTFX9ekJEZ7VDw3nAOhiDIiDdLADHnh7k6rPtGfpO3xAt32gzDMKJQYY1A3YGQhSOSAQMGiJMwPH9zDNNDtE7qJdwH5zRAe4NX2UK1MVyXgFNE0pCNY65cwapF17ZF29lQwnlVTHAUhDddHPOxDmQlYi2dYRhGFuAVGOEBxzIIEwhquIVXsh1hzRYaP4SRdu3aySgrcwtZigbtJGY4zE1h7VO8HRup0Q4VW8w/EegRBDEJZbSbZVTWW289MdNlXVdG5sl71cIahmHkigpZBAab0JJhks60A5aPwBHSoEGDxGEV88UZ4GOJErRPOBJjAXyffAtD1IObbbaZ7Hfv3j3pRZm2DfNWNHo4aUKYxUlOVPvGGn1MZ2jfvr3Me8cbM+0TdSeeuVmzEXNZnod1tLkGg29t2rQRSwyERIQrLF14Pv7md/vvv7/8hoCAzDkC9fewYcNkTh9tIQI2f3O/fOdPGNoPlmrhXer7qjRMIDQMw8gBTEcwAUJjx9perA9FY5RvbZ0KMjSWXBvnAqxJhiCICcv06dNFU8l8FQREnduov6sWsukIIDS//PLL4radkXc6JXTUWGiad0hgPU3/WjgVgkJ3NAzDqAyoezVEWRZQlyMY4rTq7LPPFsGQepxF0REW8VDK74ij9Q8Uog5abrnlktpIFrmnLeE+CGMIdax9+fjjj4sljM6lDtO3b19ZmgmHa88995ykG1N75kmiAaWt6tmzp9S9CHHcgzoYQZg1XpmfT338zjvvyPV4dgbp0CpyPQRKBkK/+OILyVPOnXbaaWLSz++PPPJIuQ/pLEa7h9CLt2mmGahAWEntgwmEhmEYWUKjs/zyy0tjzhyRL7/8Uho5RltpGArRONBIaieDUVGWQaABp6FkFBd355ge0TgzysuILKY6agrkp0n3C5HOYhJOf/hvRqIZ1Wb5jptvvllG4dEAvvnmmzKqvfnmm7ubbrpJOmGYhzLqyzXIY+3I6ai15r1hGEYuaL2hdYjW5QhjLElBHYRVAmtRs7SBOixp3ry5bAsJUxLWXntt2actY5ARIQvtF+vxbrrppjJgRrvCFIWxY8fWqWfRcN57771StyLAIfARl2XBVCuItQXP2qFDBxmUo75lrjaDm506dZIpEdTFaCR1HiMWOAceeKCcx8s3aRsxYoTMWzz22GNFyESQ5H60d9y7f//+0t4VmmWWWUZ8CrAUiFqQVFLbIMuuazCyw88zP8SHTCmKX4oNo5ygkWMuX8uWLd0333wjc0JokGgcwsJJPtGOBQ0n5jWY6yCQHnDAAdIAz5gxww0ZMkRGdGmcSReLG6tXOE1bOvfn5UCq9LNuFCZEzNdhJBmhGccGjObSgaBDweg0I8x0NNASkie+dlfzSPPaMAwjn2jdglDGvGXqaYQjhCmO66BUsUEgxZHWqFGjpB5loBFHW6SJrc/XX38tg2sE4qLRQ1OHwMRC/T7UqVjSAOal/mAbWkW0kNpG0bZyHHReI/U9FjncS4VY/T0CJb9lYLTQ8F64L+nRNFYSdQTCynu8/BPOr3CID1Gp80P5oR013RpGKWGNIkxaWKIAz3A06niOo6GgjGrIN1xfHZ4wr5GRVNx6480OQYjJ74xksm4SjTQCI+7PGZllRHfixIli8uJ7Ky0U4TzIV57QoUADSCeBBZwxmWX+CvnAPseYG4hTBkyYcHmOd1g8xbLWozbs5KE27PreFD2erzQbhlF9aD2SDjSC1F8Ih6BLDEGh6h6/XtMt7RdtA/PjcWBGuOqqq8QxDusg+s+CcxXqYTynalxMXxH8GJxMBdfgd4qaxkbNUfQhjfw2nJ8IoFwv0+8bguYPbSbPTfvqm/RWCmYyWtHw4USF3OGDY5SdD4JtsQPaF7agH6dhlBIaJkw2MYNhZJdJ82jn/MYu3HjVF/86lH/9BvRe+jfmj8yHQyhiHSy8u62//voiADEKi0CIYxzmHaJBxNSGRZMxCWKNJYSo8PfF39yHED6XC/w21e/1XNR5hFYEP0yZGIHmuTDZ5TkQcnF6wAg1I8S8B9ZvRDvIPB1MsjBHosOlWkW2arrl38+/v+Z3VHoMwzDqS6o2gbpGl2bAuQz4bUmh4f44aWndurV7/fXXZeDQD+ElMBD60HAyEEp6WceV9QwJTGkIw+AcMFCpFhnck7nvWNqwsH86+D0aQyxygHykLietDMoWw8yWdog+MFpMBNFKY6HghViL5xPOjfz058oetStnLZ2oTmMxoTJhJIrKyzAaCpU8HieZQ3HbbbelbLBTwbfA/A80cQxc9OrVS+aF0Fhyjuvles36oPfyYd4FE/yZv8E8R9JJ480xzG8YEfbNX9hnPh0NNBPoaYTJFxp/GkGeSRtzGmcEKw36t/+8HOOapE2FSv4m+PuM7pIW0ojZK6afeHDF4QJ/MyrLNbkO9yANjNAyUsvoNU5+0IzSmSEO11QtqqL5E84n/zjoOf1b8X9jxAdM7ZjPhOdYvCKCvSujoTBPjfoIk3O0Y+kI1x31gWsQmDfH4BbeSJnDRz0Zdd18lXHq+0cffVT6U9TxmHAyHQHnaQg9zCtk4I1Bt0022UQsY+gP4lyFuX7U0Sy4T11Mfh166KEyz4/5fczbxtSU89TxHKcNevjhh+VeCJq0vfQtWdIJb6c492LpH6BNwLMnecKajgifTJN46KGHJB04m9H7kUbahnyj75YtaxCSdixNcGbDM9HG5be+qQnav2/cEksuhoDmFk5cm/vLXtZd7yDiQllHFkwgDBPOjXy+56KT6tXm/lB4iaKCovCXUlVOBcFHz9wgKhDDaCgNFQiBRhtPaZjaIGix+DANolav+W0wMkNDpYIbSGMSpIHjpJWBHQKCIiOuuDpnTog6oyGu3zRwLToHdB74/qkHCBwn6L5/DLgGwhlaPhX+/L9JD/sIrnzb7Pv31XzDOQEjyAiqBN4Vo8I4+GHr309/o/v6N9dGoFX0vL8F//c+etyIFyYQGoWgVALhM888IxYeeCBlCgCOxKKu29AyTjtAX4q58Ew32HHHHcWiAg+jTIVgSxwG3PAEykAn9acKhKSL9gNT/OHDh4ujFep/8g1hkrmICITvv/++XJ/0Ugcj1PE39T/5ijUHUxpIC4JolECI51OEPgYGaaMRIGkzEEqxgqGt9ev2fMN7wYIGyxSeGW/fzIXMx3tfkFqBcMkl6GfXFQihzp3qNlEhgpMpBcLo4yYQhgnnRug9Z8qsfBaLhkFKU6WWVOaWUhUI+WDPOuusxNHioEWUOUPMB6ISYZQmvx+hUa3kQ0MI/I7RVBpzGkdcYtPQ0fAVsrGKgjRl+xyafrZ0AADvqQiHrEmFto48wmQbAU4FObYEYMvv2XINvQ6oRo/0EPibQOeBv1WIRNhEwMP0h449c/3QUNIhQQilM6CDUbk8Xyr0Gvm4llE6TCA0CkEuAmG+oC6i7cACCkGK/g7lm/oxXE/lq/4rFtwPyu3bJN1oQen3Yq1CuWCueuGocd+iIUwhEPrImQUPJwhORAqEeix8Lmifg5ukvFxVsmAe1YHTqTKMqPEo6ulSqeSWWhYPZbQKrdyZZ56ZOFoctIiaQGgUgnxoCH3w6snIKODtk5FXrhnX8uo3AboflVYVCNGAqqYxLCDye/ZV08d1EPh8zSH7qmXkPMf4m9FeFfgUvQZwP/aj0mZULyYQGoWgVAIhgXl19LNYjgJrExzOhMt0Q8u4X7caqaE9YzoIjsqwTmFuOuauBUGa34RAuGRdgfCf4H35cFTO1D3sEZxIKRBG/8icyhiGYeQR1pfChIWGhCUOnn/+eWl8EWi0wSfEBToFGlR7p2iHgS0mQGjw0NrR8cYBAmZNzNtr166dmPqw3lTnzp1l7gvzTdji6IZjnFtnnXUkPsI312BuIqagdLgQBv380TzSfU2LYRhGJaJ1MHOiMaWk3sMR2LPPPpucR63BKAx+24MSAgGQZTiYmnDSSSfJXMlKxQRCwzCMPIOpKPMuEHKYiD569Ghp6GnItbGJM3HqcITTUg75ZxiG0RBYcB3TRObKMbcPwYR530bh8NsW5tUzvxLrOOawM6+SeYOVjAmEhmEYeUQFmJ122km8kTGyy9IUmJzo3Lq4CFz+aGgqsk0r8TTUF/8aUddJddwwDKOSwKR+jz32kLlrWGcwP/2CCy4Qc1LaFCVT/Z1NHW/UQtvCHE4GcHFciGMdrFhov30nMpWKCYT1gO5IVIgPmVIUvxQbRqVBg45b7p133lm0gwMHDhRPZb5JZinxG7eohi4OgpemwQRBwzCqDeo8vGyytizm9qz1h1DIXHfMGX3nXZCNwKJxyrk+5RlyCZnQOLTPrGuLt3C8bZP3aGbbtGkj7baG8ifq3S9kAmGukI3pQnyISp0fSkuuH6phlCN4zmRB30033dTNmjVLRhoxRQk35KVAhSwNhmEYRrxAAEEYZLmG3XbbTf5+7LHHZP295557zv34448yXz1VXylcv2fb94ozfruVTUiF5gVLL2GWy9IWaGBZUuPUU091ffv2TS6Yr3E1lC+aH2z9YBrCCif8wjWUDjrDW2+9tbvjjjsSRwyjssFTHA4CttpqK1lwmNFHGnHDMAzDyAQCCEsXMS+d9oMBRjSE//3vf0Voueeee9ycOXMSsaPxhZh0QlIlkI3QxqDsV199Jcup4dH18ccfl7aa+f9XXXWV22GHHZL5VN4CYBS+PDA/mEBoFA3c1p9wwgnilp9FsLOh0isuozLRkUkNeOc89thjxdsmjRCT1REODcMwDCOM9n1UGEEzuPjii4u2kCXAsDbp1KmTtCN4IsUSZciQIbKGLIunp6IyTB7nC31RQdtdhWOAEMj6uuPGjRPT0OOOO07W2EbDildsBGzaada+Bf1dtWACYUVDYY4KxYcKqlevXklBkErJ/2ANo9Jp2rSpCIIbbLCB++KLL2RkklFewzAMw4giLNwom2++uQiFl156qSx1NG/ePPfoo4+KNUqfPn3ECmvatGkiBCHwgApM1QTPz9q57777rswHRKPKPMw333zTLbnkkm7//fcXc9yzzz7brbXWWolfpc73OCFvkiSmCjliAmGO+GJVVIgPUanzQ3HB5h1hkBEshME4zKEyjGJCuW/SpIksVo/Hsg8++ECEQjX1qbaG2jAMw6g/rInXsWNHd95557kbb7xRzBxZImHq1KlJrSECIovr4zCFeey5EHcBUgU2X3hjixdWhGGEwJtvvtkdc8wxYhb60ksvySAs6+CyVjBCM3Mx+RtPrnodvVY54PfqU4VsMYGwHkRlOCE+ZEpR8VLMyBTCX+/evUU137Jly8QZw6g+aGjwWEYDzmgkS1EwOvnLL78kYhiGYRhG9tCutG7dWjSDaMGYZ4h3a9bBxTMpXknRjCEcsr3//vvl+P/+97/EFcqDVAIqfUy8gqL1GzRokDvllFMkoPVDa/rdd9+55s2bi/CHWShzBNEMYrXjC3+pBEGOh0Op0V58+pBbOhcKMpffGUo4N0L5qRkdBVFLX0wgXSqV3FLL4pzYrW+33XYy0pILfKx8QBQ1Rq7WXHNN+VAvvvjiRIz0aBFlZGevvfZyjRs3dg8//HAsPkqj/KGxOPjgg2WUkIazWOUKjTnzGL799lu37bbbuiOOOEJGdw3DyB4W754yZYobOnSoW2211eSYtQ1GQ9l3331Fo0ZfA8Gh3KDfxKL2aMnGjBkjnjSZb4hFCksi/f3330kNI8Ik3jSZO4emjDnvyy23nDiyiRNo/vBFMXnyZJkLyHMwJ3/ixImy5XmB75+2FG+hzLPcYostXNu2bZP1As+u05ZiVVdIV7fGfTvlG7fEkovJ/sKJ9P1TL1GtViSUK+jP6/xRFxMIw4RzI1RWOJ0qw5IZX3LSpVLJLbUNEQgpYgQ+PDq/9RUIdR4iZncmEBr5AtMSTGtWX331ogqEDJTQqJ1xxhmy5dvCnJQBD8MwsgOBkA6iLxAa8aIc2+r//Oc/ZSsQap+JfNd9rFAQBmnv3nvvPTd27Fj3f//3f6Il1Pez1FJLiadN5taxRShkYXYC7ePKK68sgtaiiy6a8Z1qn68+0DaiPCAwYEuaCfQBmStJYAF5tsRFuCMwFWOjjTZyHTp0EGGQviJLP/mQJlVSKPVNZ96RV5VPgbC2ly9XSP482Fko+lomEIYJ50aonHA6VYYlM77kpEulkltqGyIQglYOfOBoYnIVCAkqEAIfv2HkCxoIGrw777yzaI2DfhOM4OpSFJixHHDAAWLqE5tGyjBiiLYLRx55pGjbaRP0mBEvyrkuw+SwHAfptH0J438fM2bMcJ999pn7/PPPZVCFNghLLLRwCFxo0vxrqOCF+SVCMoIjAhcBD6i6pf1CoNS/+Y0KcTh4QQjlb/bR+rFFuzd79mz3ww8/iCBOOlXYA/a5nt6Td0JAu9muXTvZovEEfqu/i0LzIHblUpJlAmF8COdGqLxkyqz4FC9Smiq1ySKSNfUVCClefHQ6IlMfDaH+lkqKxp8Ro7iZMsQR8sw+78xoHu26667u5JNPLlojod8G82wRCvkeaDD3228/MWFlFNaPZxhGXfg2rrvuOjds2LDEkdp6z4gX6TrncYV+B1qmW265xS277LKJo+VDqnZD2zsf4vG8zMNTIY19LFcQGqdPny5m2fTfEBiJq0RdD7K5d6pvlfKCNpJBWrSTCKDso/FD2CRg2opg6F+DthQzUkh17Vgj2ZN/gdDfJm7ibedjAmGYcG6UYZmaT6pXm/tDNVRDqFCh4FgmW4HQL55x+cAZTSMPqKjQ7OioVJzAFASTFyrV++67L3HUiCuU8+HDh7uBAwdKOWctJDzG2cCHYRj5hLqGgVU6+LfeeqtbY401yrPzHPDOO++IB00cpCDEYDKIlQUmg5g/+oKLv58LCCflKNCmIlWXP1MZ0N+Rz8xFpI+B8EhA24eGjwFNzhP0GPv8FuFNNYYE3o9qFRHw2CJ4I4SjfdQB0apCsrgwAmFdaq8l57zLmkAYJpwb5VlP5p1SCYSgRdQEwuyhssazKwIh7qeN+IMZDUIhXkdpIE866SQRCoFvoFw7bYZhxAfqEgRCnIzcfvvtZS0Q8iwIIZg9MpiGRgtBAhNCrD3QLCHM8Xz1fcZKq3u1PwW5PFfU78LH/L/DpLuX5jFbQiUJ4Dkh2ZdfgTAVXFWu7F22SnPdKBXYf++xxx4ykpctVBTpKpNSELf0GOUNjSAdmZ122kmcZPA3pkqYkmoj6QfDMIz6omZ1mNg1pC0rdZ1E2pmrtv7660t9ydpyaJfef/99WXsOJ2GYO0J901lpbT3Po6E++L8LX8vfhgOkKi96nm3VCoMxIJTzvCQ/GOVN+H1qKB2YAzBJm3lShmEEX2SocWTABJfneIS74IIL3Lhx4+R4fTozhmEYPnS6GZiFhq5DR53EXLN99tlHzNxLCSaH1JusM8eWtGFOynp0TJvQJQmsHi0dKvgZ8cQTCFVYCAfDJyqH/BAfolLnB8Mw4gCNpAags4ZTGTpZzM+44YYb3CeffLJAPMMwjHxQXyGJuujCCy+UQV5MUEuBXycy55pBZ0xir776ate1a1epQ++++24xIR05cmRSMDRyI9u2J1OcbK9jFJnglSQEwlRCggkPUWiuhEN8yJSi+KXYyD808jYaWp7QYOIUiDmEmDwx5xah0DAMoyHQJqizKhx/1BectJx//vnuoYceksW/49LWqLCx7rrrunPOOcf179/frbXWWu7LL790V1xxhTv99NPdxx9/nExvQ7WkhlEpmLGuYRhGDMHj2qmnnup69uwpntquueYa8QzIvB/DMIz6onMIGyLEMUB1xx13uJtuukmWA4D6evIsFHix3HjjjcWM9PjjjxdHcDiFQyhkuZKvvvpqAW2VDaIa1YoJhIZhGDFCOyRqWkNHpmPHjrJwcJ8+fWQdTsMwjFKCJ8+xY8eKIyxdIiCuDkEww+/Vq5d4cD7kkENkUO3pp592Z5xxhhs6dKiscWwY1Y4JhIZhGDEiPGLNKDfzdDbaaCP3ww8/iNkTy4qYptAwjPqgSyU1RBBC+NMlK9AMhuutYsNAmh+iwOoCh3aDBw92PXr0kHg4njnuuONkaS0ceSmZrmUYlYYJhIZhGDGGjhce9DAfXW211WTNLTSFdF6ss2IYhpEba665pmgHWVt5nXXWkfWRGWjjGEv9QKkFXMMoNgvTnfCDYVQy2oH2R//CneqoY9VA1DNrXlRjfpQa7ZBo3q+00kruyiuvFAcJ06ZNc4MGDcp6hD/8Hv19wzCqCzXtxMqAeiAfwk+pBSju7wdIV8/hWIf1kKlH+/bt61q2bOkmTZokjmgQFCdOnOj+/vtviavXCV+PfbSj/jHDKFcSAuFCEhaEY6X9yOOI5ko4xIdMKYpfiosFDQUTyTfccEPRuOBhTBsPZerUqW6rrbaSEUOI20T5fDNw4EDXunVr99prryWO1OWpp56ShX8//fTTxBGjmPjlc+WVV5ZRbObEsD7hpZdeKm7UM3VI9BpsrfNiGNXNYostJlucVVEfVFudoPWhPjvmo7SDJ510kuTNiBEj3JlnnimOvObOnZvMn3A+cR0NhlHueCajFOioYPhE5ZAf4kNU6vxQvTDqx5pJTCZ/8cUXE0drocJHAMRxh84nqPRONM+JS+4TTjgh6cVShWCenQaR4+aeu/houdMySEBDSEcFz35vvfWWu/XWW5PzCTMNXvB77cAQDMOoTtASUqfnwxFMXNvHdPWcfxyvq5jl77rrru7mm292u+++uwiGw4cPd4cffriss0g7SV7xO62LNRhGJRCqCVRY0GCUN+H3qaG6odNMA0BFfswxx4iwE67U6WBrxV8N8KyszXTEEUeIAKimMsC5SteSxhktg7wHDW3atElqCp955hk3ZMgQiQN+mWU/HHiX9j4No3qh3gC/nm8o5ejkyq9TFZamwMnMLbfc4rp06eJmz54t9SuC4ahRo5J9A/1NPgRqw4gDVpKNqoW5Assvv7w77LDD3KxZs6SzDFrR+5W+bisRnm2VVVZxl112mRszZow0hOpGHMgX4pgQUXy03GnZ1HcBmPGy6DKe8x5//HF3zz33yHEfv9yyT+dFA3A9vbZhGNWBfv8qEPr1RH3YeeedRbtWrvD8mgdsaf+aNm3qLrroIuknsOwP87UvuOACN2DAADd+/HjRrmr9afWoUQkszCegwag0qKCiggF4bET4ef31191tt90mx6IaxoY2luUAHYQ99thDljc499xzU84nNOZTn05ALvERwPF+x1pfmDYj9N1///1iIsqiynRWcJmOqRMdmHvvvdftueee7uCDD3YnnniizIE5//zz3VVXXSWLR99+++0S/9lnn3UjR44Upwm//PJLVZRvwzAKxymnnOKOPvroxF/lC3Wh1odsMRv997//7S6//HJ32mmnucaNG4uZPm0k9erMmTMLXn/m0mbETSiNW3piD0VJQ4KaYJ9QDBYKXpi9MZ9wboReRKbMKtJ7ywJSmiq1pDK3lLJGD563tttuO+loljM4R9lyyy1lEvm+++4rnWtG/ugw77XXXmJCSiNwwAEHyDOH+fzzz91ZZ53lmjdvLlo1XdMpTrBO3X/+8x9xQnLfffcljkbDsyMQ846bNWsmecAi6Jgi4mwGIYTF0REiOnXqlPhVdYKQpp0GrTozdQiIRxxfw/rjjz+KVhpzpF9//VX2OcZ7I7DPnBUdhYZU9/HPs6+Bv1UbyH6UeRjnll56abfCCitIYFR8xRVXlC3lGu0j3k35G698qlngWXTfMIzygboBawIGkA488EAJRnZQNz/55JPidIY6GgGxZ8+ebscdd5T6sxB1otbl6SCObnEURJvC1A/MW/mbdoTAPu0A+zgjY6ttGsIvgek01PUEBho1cG6ppZZyjRo1EpNjjuk9/fTxN8Hah/pSE/RBv3FLLInjp/l5q+9YkaN1D+UEv69zjeAPEwjDhHOj9l0k4XSqDEtmcMlJl0olt9RWqkC4zz77SCWJucvXX38tk8fp/HKehrLaBMK1115bHMzghZV3zfHnnnvOBMIEUdVlqsZaBUCEPhrH999/302YMMF99NFHMrJMueN6NNBsaYh1fgr7/J6Fn1dffXUpYzTCNMY0yvyNZpBjCHR6nN/REfj555+lwWd/3rx5sqWT8Pvvv8uW8zhOmj59upzj/tzXfz6uRaDh5164aN9ggw1c586dJU1cl04DHYUwep1UeWMYRmng2zSBMHfIN63Xvv/+exlApk0EBEPmGG600Ubi7CsXYYhrpqsn9b60E9TV1LfU3bQVuk/fhUFcnOXR3hCX9oPf6Vavpe2Sfxyo64G0+OnRv3km4rBPu8MyHbRPbGkPWNtx8cUXl3jE0Wvr741syU4ghIUWPJQ1XFWurNcI/jCBMEw4N0LlmNOpMiyZwSUnXSqV3FJbiQIhmsHevXvLB0dlyrPhrANTPATEahUIYdiwYfL8PCeT7DEJevXVV6teIASqTG3w/IZOq9KffvpJljZh+RLWtcI0k30acBpLGmtf88Y8VgIdCUaZ0dDRweBvBLFUVXRUQ+GnJxv4LelFQ+kHRr8RGgkIjT/88EOdDgTpbNu2rZQXOgKtWrUS7bI/agy5pscwjMLCt4nVx1133SVtBHPojWj8ulX3qQdV4Hv77bdlWab33ntPBuAYSMVsn4EzHSjz40fhn+cefr1OXTxjxgwZQETwox2hPqZ9R/AjDu2JD/elT8JAIfUxg3YIaqrxU+0f8dgi5HENX5vo73NOtYsMAjKgyJZ7k3aF63Bf2i8CQiKBdo62gS335/nCeeI/t2ECYXwI50aojHI6VYYlM7jkpEulkltqK10gBOZqYfrBGoTvvPOOO+SQQ6pWIKRaOPbYY93DDz8secQWMxnTEM43h2HrN25o/5if9+abb0rnQAVA4tEgr7feeuIIhoATHxpjfk8gno7Q5oqW33xCmnWUmUAHgOd79913pRPkj0JrRwPBkO9n6623ludV4dAwjPjAt42jFL7lvffe2x155JGJM0YY8grCdSz1noKg9MEHH7jzzjtPBCfqcep6/qZvwDV84cfHvw77xJs2bZpoHnHwhgDI9alrNS2qpSMughdaOupeQosWLeQY5xD4+I3G1X3/mbiW/q1p0XiKf5zn4xxCIZZEaCYRVNFMsgc57ZAAAKNzSURBVNV2T69JG8C9aQ/ICwTm7t27i5Mejuszh+9Z3eQgEPLPgoezgt/W+X3whwmEYcK5UfsuknA6VYYlM7jkpEulkltqK0kgRKDbYost6giEVGJUuiz0jYYQEPr4O0ylCYR4TcP8xRcIAe0QHYbRo0eLOSLnqcirBa0aoxoqyguaNbR/CIB4nSPPaWAJrBVIoLFGk0YIj46yzUcjmI9rpMNvrNnnO6HTQocATSjfAx0CtIo8O+ar7dq1c5tvvrlbd911ZZQYodHHv6ZhGMWDwT3W4KVzj4XC1VdfLQ7W7HtMjV9nh7d6HnPOp59+WhyAocWjzuvVq5fbfvvtpR2IgoE2hCrqUAbcPvvsM2lHgDpyueWWk8FD+hpseU9sEfqwINFBRUXbLLakLwqNEybV+/frap4zKh7HKE/0GUg/AV8MCLRoOAloO7kW7QcWMlhjITjjp4C2kudJlYbqInuB0EdiZer2exC/zm+CP0wgDBPOjdp3kSRTZoWilxBSmiq1yaKQNZUiEFLc6cgiELK49/777y8VJx18oMLjGHMJeU68i3HO13ZUokCI50pGJVUg1Eroiy++kBE9RgSraQ4h5USrxnDDSsN2xx13yJpUNOjaKaDRx/36NttsI3MsEI74reZluLFL1bjmSj6ukQ7yQe8R1VxwjJFhRslxuMBcSUa1Nd9o+FnfksZfj/nXNAyj8PDNIQg++OCD0nnHjI+OOp3x//73v9KO+d8k9RPfq37z1fi9+vUdzx/uCwBx/DyiLmTdQoRD2gA0ddR/LHZPPAQiTECpK2lTGUjjusQFBKOuXbuKpQV1p7YjbLm+3ostf0e9Fz0Xhf7eJ1Vc8K+V7XU1DmWI52XLICJaT6aeMEWHZ+Ic+UP8jTfeWHw6MJgI6dJU2dRPIIRcTEi5qlxZfxP8YQJhmHBulHWZTPVqc3+oStIQIizdfPPN0nnHQYZ2UrVjT8U1ePBgqZQZ3QtXTJUmEA4fPlw0XEyKZ24YaLXAszNHgtFLFvHnetWANvzkAwHBjzxiiRLcjrMmFfP71llnHXEkgCkMHSvyi3JE0AY+VcPGdVOdixN+Ov1y4aPHaeDp4GBWSpn58MMPRYAmL+jc4L2XwRhGuTWv9PszDKMw8H0+8MAD4kyGegsnYVh7sHQC3ynmhrRp1GFKqm+9mvHrQh/NK4U4OA9jYBkLG84j6HTo0EGsKrAswcEXwhD9CCwpGDDTOdmgbZD2SyqlniQvmJP+8ccfyyAiA/QE8gNUc7jJJpvI9IrqwwTC+BDOjQW//aqkkgRCLfKZOqScIw7x/TiVJhDyfOGRT79ayEa4qTR4foQbwDHMxRdfLJ7lNC922GEHWZ4DwSacN375qgR4nlTP5p8D/ZstAc3yyy+/LB1RTGwpY3xLzE/daaedJO8qJZ8MI65g0YBmEM444wy37bbbyj6d8P79+8tgF6bd119/fbI9C3/rRmo0rxQ/zxhAvPLKK2WgjPYDIZA6UNsQ2mhte/3+iJ//7Jfze0iVfp4XGHBlnV3WycX0FsgHPJiyviUDrtWDCYTxIZwbC5bhqqQSBUIlU0Wr8TVeJQqE4WdMRabzlQL5wSjuY489JlpBYPS2S5cuyTkhUeZD1Ua43Ojf4JcVBMMXXnhBvPHhzIK8QxuBN98ePXqI1sIwjPzD8hK0AcwDP/jgg2UgBvg+CQx0MX0CU2/mqNG2Ma9L8b9x/5s2UoOgjeaVOo+pBYDXTwSbTTfdVCyT8CTNgJg/2JwKv14td9KVIUyZyS+c+qE9xFoLmKpC37Nbt25JgbpyiY1AGL5a6hdX0XgZVN6kKh25P1g1C4RhKlEgzJZq6BAgrNCJeuihh0RLiJOU/fbbT+aAqAkPW/LNOkiZCecTZqQ4dMLpAGAW1LdvX3FwYRhG/mDqAyb/1Fl4vcTRk36P1G1aj1HncR5tFkLhTTfdJPOg9bu1ei57mE6A1hWBBsh7nMscd9xxdfJT291qyNts20o/T5iL+cwzz4ipM16tyUeWZ8LnQWX7MmiAQMg/2XfnJL6+FX7midn8GRUqi6gn9IPg51LZEvV0fqhe+MD8kCtUTHycfjDKF31/bHGiw4AHJo6M3u67777uhhtuEG+r6tEtbCJqpId84ptRmC+DaVqfPn3ETA2NIfNT8c7nvwt/axjGgkR9Hxwj4EAGxyZ4qjz77LNFGATVriAMIgjqPmvNor3CMyQm3Xi81Day2r9DzVMfv07j3C+//CJ5TluBtpXB2AMOOEAGF0844QSJp/kZ3q90sn1OP09YqoI1HfGATtlkvj55zGA83t+ZygHkvfbJqh1yoCbIvmwCMo7ETwRICIT+IZ9Ux8sbfapwqBwyPVHlPbFRf7QSziZUKjQmTHJHU0VjznpOeN5j0WYW5o+C31gjlB2+iQ/7mIhibYDLezqqOJ5hng3ebvFQqlRymTOMhkDdk+r7YMAFzQrzsU4++WTxWOnHZZ9ONN+i1mN4HUX7gtMnzEgvvPBC0dIY8+t6DeDXaThFYfAQq5K/AiEbU3gGFVnLGEsi8OMb2cOABmbOOAI89dRTpe3AEd5JJ50kg4iUZYLO+TeyQ3suKg0QrIQahlHV0IAPGzZMRh4ZgWROG973mEeTqsOlnYJKwe/oFANtwJlHQ8fzxBNPFBM1HAtce+21sp6VjfoaRmr4hvg+/O+E/dtuu80999xz8m2hSUHrRx0X/pa0I01QYQVNIQIkSwCwJAUCDXOpqxXyTPPYF+j4m4DAjHBy7rnnyrxBPImyVBV5COE8N3JD81/zHsFw4MCBMo+f9oNBWwYRaS8ou0bDMIHQMIyqRBubTz/9VDpRTGhnDUrMq5jPph2uOKPpi3s6o9AGnLQzx4Y5ypjljhgxQhp5OrF63jCMuuh3oZoRNOvMzcVTI9/OaaedlpwzqGbuwN8EFQb1GPA3dR+aGJaIYXkABmzmzJkj10QIqkY0/zTvVEBhfj6WDQgk1GEIKBtssIGc8/PXqB+af1ruyHscutFGY0ZKm433XP6mjGocLc9GbphAaBhGVUJj88knn7jzzz9fRnp32203ccQDldiopHqeUj+nNvqsi8ZIOyZBOLF6/vnnJW3WqTIyod+rhjiTzzTybTCIgjCIAxm8WrKw+UUXXSTro9KRDn8//O0fC/8NCIVouTAfRShkji/OoMICYdzzuqFo3hD0WREGaS/uvPNO9/DDD0v+s/A8aztqHH3HGoz645dNfRfAlAO0scxDx9EfmkMsfCzP609CICSD61YItaQ6Xt7oU4VD5ZDpiSrviQ0jVzDxQRPF+ngIg6x3hNliqYhqyPRYqnPAXCEm4E+ePFn+Tof+xr/eSy+95FZccUWZO1lK6GixGDFCIR1PTEdp6DWtml7DyERDyotf3vzr6LY+pLpW+Jj/dyo4z/ehW4RB5uLiTZTOMto9viO+J4J2ov3OdDpUM4/JKZ5H0RRSR9L5xozUTyfBJ/x3JeHnHQNWaKZ4XtaoZT1BUM1hrnleThT7HXM/8lXLvN6fLabNaLCxNhk9erS74oorkuXXyJ2F588oDAptZNDzFRACgidKGyqHqKfzg2FUN2+//bZoCHEagzczGm6/wSk26e7rN4KKv4/pTHj0XiEeAdMy/zf6vBAX5xGkic4sThkQchF26fBWWqfKKBz5KCt6DbaEv4JOJt+PdkobSvj6ueD/lm/jxhtvlM7wCiusIJ1jOskNgc611hncg/m9W265pSxlhJke9abmQbjOyfVZ4o7mg+7zfAy8oR1kH2+smIhqHEV/p6GcCKcds1isNQCnOczzLgX+4AboFhNS1tHEqyseq5lyYNSPkMkoGeyHCqO8vss8EH6fGgyjuqGhw501HT3MfXTOYCnRBo+0IaCxnhVeAkkjcFy3aDc5x1bPA+f0PL9nbgudRqCjp9fnGOdZMJ6/9XhcQGPL+p6s5YV2Akr9foz4QTmnDPMtaOBv/5sA/S6UVPtAOUPQ0fLGeV1A3P9G/d/5glH4eqDx+W24HKuQqefC5xW9BvFJB8+O1k476/369ZM1PRFcU10jV7gfmkK09ttss4378ccfxeEWS1PoeUJ4v9LQ90u5Yq4z6+JhssjAleLnuf8u8/UuSgWePN944w3ZZ11AHBYVk2zyj6WMevfuLWX/rrvuSrZ5Rm7YHELDMKqOCRMmuGnTpol2EMcL6uAkDg047soZdUYoohPG0hfM49F04QCHjh+dkV122UVMPjlHJxFYVJpnYj0sHB107dpVzMnorNGhuf/++8XzIB7bcJWu50r93D64au/QoYMItLo+YaV2No36w2AOAwdLL710Miy77LJuq622kvldQJnPVHa0fGnQb0H3CSoU+MfCcE63ug8a3z+mcF3V3kedD8N3znfB0hLjxo2TOYMIKXSKqccQXjW9muaGoNdBG4YHZgZomF+IkMC9wmnO5hnKhfB7fu+990RDyOL9Rx11VHKAwI8TJ6LeRTbvh+chHlu0oWieFW1nSo2f55RPBPQuXbqIJhutZiWVw2IRerNkoB8qjHh+swUk/D41GEZ189VXX8kWwUuFwVJDA8Z6VnRyGZFH0KPTRYf24IMPlvPM4cF7II30yy+/LKYydFA4R0NNY4jHNRZIfvbZZyVO9+7dxVmOahU5zzUee+wx6TRzT4hTp4a0IBDT4fzoo48SRw2jLpR5zBlVaMEEnO+Btcso83TgVbvnm3z6ZV33w+WfuD4q/ER9J9pJ5pzG8eP5f+t1+a41PeDHD+NfE2GQuVI4kAHVDOoz6nXYarpyxU+L3hdNIfOsqU9IA941qTs4x3Pob/zfVgrkI+9g/PjxkseY5TIQoeg7LDW8h+WXX14EIoR35sTvscce7ttvv5W2gneIMEvboGnGO+c555wja+8SH0dCzCfXZ2a9P7ynxuUZoyCtOPdhmRTK32uvvSaDqKQ5zukuOaFPdeH5loRBpkUGPV8BoaoI3l3aYBjVC4ITDXuqRedLBfOBGOWkEadhozE76KCDRLD77LPP3N133y3eAzt16iTx11tvPdEE0iDSwQQ0jKussorMp2B9RX7HtTD3GjVqlGgUDjzwQNkutdRS7oADDqh3x7GQoCUk3VOmTEkcMYy68H2oMEJYZ511xOsgwgqdX8o/x59++mk3ZMgQ+e4HDRrkxowZk7iCk/LFotfMj8M7J0Ik8E3QMe7Tp48s1B6GARW+R9LAt4eQhPYe7RkalbfeeisRsxbtmCK04ojkjDPOkPiYH+r3R1qj4Di/xxwWb4rM41tppZVknUE0g5wnH/zBrVTXqg96LeoMvGn27NlTPDqefvrpUqeAPl+lQh4wOMVzIhDG8XkpR7wXyjjvCesKhEHW7Zs5c6aYF3OcOp/BRUDgQ9ClLDMXFasUwnfffSfnEaymT59eFu+XeYRrrrmmCLk8dz6/gUqEN1oTZBEBGSnRC5DDtbt1SHXciDeZ3pu9V6O6ofMEqbyK0pBkG/IF16LjOmvWLDEBYzmMAQMGSMeT9NIo08lE2KPjR+PPb9Zaay05jwaDDtvrr78uE+3xDnjooYeKIKhx6eByjsZd09+2bdvYNfakh+Un6GjjMId0GkYYyklU2cV0lG+Esk8ZGjt2rGhNmGd0wQUXyCAJxxH+WrduLYLVN998IxrzzTbbTObmAZpGBDAES/8+CH94lqTTTNmcNGmSaFguu+wy+RsNRbdu3dwdd9yR+EVtWvFqzGAO2j3qHubjMcDD7/mG/Xvos2ldhTCIIMn3vdhii7n+/fuLZlDjqVCZL7R+0G9P04ZmDEEQk3OsDtA8IeTq+UqGAQUIDyRqHsUByguOgBhUxHQarRllgzLNVAE057zDd955R+LzTHh05hyDC7xX3iVCIs+l7zXf5asQ0GbgD4A2gykh5V0mKVPFK1fkVPzfsGEYRp5hmQUEKIQsiEPDQRrQ+KHZYPRfA50+OqV0XDmHMxgf30MoXjmfeOIJGQn+4osvRLj011ako0zH0sc3M4sLpAnNDelCU2gYUVA+KP90gjWg0WBNPoRBNFl0ZClPLGHCkgxoRpiXy/fPdv/995eBFrwn0knmt5jIMXiCtgFzbb4nrqHwNyZqO++8sziwQLu44447ujfffFO0M5h7sywBAp8uB/Pxxx+L5pDjr776qgihaPHpgDPwgxYy/B1yTwLPhJkonXTqLjr37du3lzg62FMsVEA98sgjJe1opDBDR1CNWz2ST3g2TO4ZaGCgII7Chr4bPM764LE5nF6+G44h0DPvHE/bzMNjrqgu8l5u8C3wXZMPmgflVyZJbxBUbRcZCoMJhIZhVB0IWjQaeLGMS8NOw4XwR4cDM9HjjjtOAp1WNBuYw9ABZf4jHRNNt4700nHELXjnzp3d1ltvLYIUI6U4nuBZic/8H0bz/QV8dZ5inKBRx6yPdKN50Y6OptkwgHKBUMU3owEN+g033CDmn3Rw+a4oMx07dhQnTAhy/I23RLQIDLbwrdCZRMOAVp2lTxDYiIemHlf2WgYBjSHzj7kmnWdMujE7pRPKb7gnZnrt2rWTtADzejE1pONNGgAHOGeddZaYXaJt8+EaPA/H0TwibKJVRDOIaSxwL4JP+O98QXoI5BP3YHAJc0PqJIQLzHQRrLWuKVQ6Sgkm9tSVONYhL+IK70jhffC3fwxoLxjM4P3RJmBKytzCe++9VyxNyhGeifdD+8GAUPnily1fECxsmTOB0DCMqmPDDTeUzhuj9piPxQE6UGga6AQec8wx4v0TN9+77767zBNEM8iIPCaieA9FE4g2AjfbQINPo44ghQdCOrwnnHBCck4U0JFEk4E5KeZxLL3B6LB28uICHa6RI0dKBwxvqn5n3DAUOuWtWrUSoUsDGj5MNpmj53faw/uYiK699tpifhkGAREtHjAnEbNO9bTIXCwEQOb78s3gsbhRo0Yi2PHd6kAOcwk//fRT0RYSD+0e2kK+Sb5TNDEEFn/HBJXBKR9+Q8Ccj3MIugipfMN8r/o8/nOVArxtYp6IcIGmU00NKwWtF9mineXZmJ8WR8JCXzqIO3z4cBHm+WZ22GEHqW8xIQ1boZQL8+bNk/TzTTOAauSGCYSGYVQdjG4jVNEoMrLtm12G0Y5ZMWBuB4IaHVKEQzqMzGnCRA0zJYTFW265RTqFdDoRGul4MqeFUVEadTqNaBT69u0rGgzmMdGR0bXD0IjgNIDzOBLA4yiNp2ot4gAaE5xtIPwy55FnoyOmwTAUyq4KYQQ06gz4UGbSwXm++6hONFoGTLQpa5xnUAYzTUw3mdOLIMlcQOoF1UwyF5c5WH5A8OP7Au7HIBSmnpxjWRW+T5xIoc3kflH1jM5TRDuolg2a5lJ9C3pf0os5IppQno+0YZJerPqyGPh5jPUFZQNtLdqouBP1HvxjzZo1E2sRBkUZlECYYv66aqv9uOXwThlwoZ2jvaPdgEoqi4VmYbLKD2HC5zWEiYpDCBMVxw9houIQwkTFIRiGYYShkd92223FHBGzMTRxPjQiBBr/Yna6uBedPuZ1oMGgcWPUnU6XpoPGDk0I8x/RPuAFkRFr3ImTZjrEPNOHH34oHVI6x8zHw2kAHVdGga+++mq5PvN+6EQz35BOainRhhtX9nhKxdyVpSdUg2MNuxFGv9N08N1EfcMIeXQgMTkFhBkC2hG00yz/Alwf80/OMQDDgIvOTeS6fF8MMGHujfZPNYC6xfwbcO6BGRvfJ98c59gSjy3fX/h52D/zzDPl28bxDJ11NJR6LoqoZ80n5ANwf+6FIyzyhPzYb7/9xNxWSZXGcgWTX8yKMbOP6zw73om+G6DO593470LjMBjB/E+c0DCYSJnHGoUBSaYm6HV45/7v/f24gIYas2zSytQIzF5Ju+aDkZmEQBgUjkjbVI5xjjjzQyrqG09DKvIdr/KpfW+pyXTeMCobGg3Wa8L9No0bJjOYiCGE+NCYQjEaFb1HpkbMj6edUj3m/x0+B3pc9/1tMYnqUHAMwZV11dDEYB7LXEilFOk04o2Wifp0UNEsIqzREcY9Pw6YMPHEnBpPhSzNotdFU01dgXknWhTMmPX7YoBl3333letgqsp5roUWCTNS6hq0SZRnBjcY5KCzjUCBgxs8jz7yyCOileF6+kxs+S0msZirYjLKsgfMaeQepYa0MSDFch6Acx7yDE2m/wyVAs+CJhQtIYNxmAzTXjBoGBcor5Q1Bjs1XZgxI8CSfs5Tnih/CH4cY8CBQTimGjDgwRzar7/+WuaHcv7++++XAUT2sSjBQoX9OMDzEHhW0s5cSAZP8AAclzSWE56tBJkXFYzyJOpd+sEwqhdtLDbffHMZsWfUF1NKOnSg57VR1Y6hUTgwjcN8l840c7ZUQ2MYhQIBD9Np5hvi4Zf5tWj86PjqwImCUIaGD4HRN0cjHoMYeBRFWENDRhyEQcxCOc/AEibfaDAwGUUoJA4ddzrimJv6VgAKv+MeCIPcH8GUzjxWA2oCXmxII8IgXlkxoyWNaD9VwKhkMIvFIgMNGtYVOPHKZJpcTDT/2fJe2FL+CCo8gZ9m4vjx+J3+Vs+D/ta/ThwgfXgE5l0w7QGvwKTfyJ2F/vbeLK89/DlzMvzq8x1Pyfd1o+IZ9eOVV14RcxW8tjGiVM0wioyZBY0Cc7WY96WVZlxgBJnlBhgFZ/0toy5Ue7wztgh96oQFmLeHBoDGhXM0nho3bu+53Ah3JMhPOpd8U3SqmcfCd4VgSNnlHHEs341cCJezfBIui3qvTGU0XbxU5zhOQOtDfUS9jqCJqStCKesSIiwW8vvQtCmkhXUUWZqDNCEM4lSGQbVw3EKmq5TQH0IYpn5iMAETxbAQUqpn5x2kK2NKqvT5v9d9/W2pnikVaGiZ/8h8e8CLMKbY5S4QTpkyOfieFgsyvO67qIVt3XeZLxacTW0YhlElUNnSqcFTHqYyeAu87bbb3HXXXSfrgtGwUBHPr4yNhkB+awPHFgcUOOlA+4EJ3RZbbCHCIM4OgBFrjW8YlUyqcs5x7eDilIaF9du0aSNzgHFGg2a9kPUT99fAfTBvxfMpdSWDZzjnQrvpo/ErDc1nTNlV8GC+N3Oe4+JkpqH5Xk7vDcGctoP3grKCdrzchcFSsjCvXkMq/DiFiKchFfmOVz3oSEI45E4lVu5G9RIuzziFwCEC8yaYA8MIOM4eWFeLyerEJ5hg2DDIP0bVAW0HVges34ZHUczoMIVDM2j1jVEuaN2QiWzjRaHCBls06HwnmJliPoqZKnPa8oXWceG6Do+sON9iwAyrCTSD6vSpWr5XfU4GqrAiwTwRwRgrHARDlsuBOOaHlj8N2aDxcvlNIfDLIvs4fmIgETNtvKQykHj00UdL210dFOZdLBJULAO4tIYw/jk/hImKQwgTFccPYaLiEMJExSFUL3xA6TqvueWOeiRkQnLXrl0TR6sT5jixUDGmorjvj5r7UWpYuPzRRx8VQYeFkI3soHzjNADTRTpblHnMGXFAo4JK3N51uUBDTt7hEZXFj1n/EOcFa665pjg+0GVAwPLYaAj6nRYiFIJU19XjqinX74N6nYXxqZswmcOjMPMVGzduLOfzhXbEufcDDzwgDkVwosPAGZ5X1ZzeJ9WzVBpMJ2A+KPnOHDbWisSREAIicz2N/EPZYu1gzJVZQ5Hyx1zzww8/XMplpZQ9BhYWXXSR4IGjvif9m204NAwRCBP7RsWQSRhUMhcgRvMZgeHjo+HBgxMCoTZM1YgJhJVFeCScZR222moraWAQWD7//HMp/wyKsEg1HQEaff+dq7Bj1OJ3JNlnrgeNHIvpM5JO54nGnJFdmiBM4DD10fjFzsuoe/rPEGdIZynyzCgOvFf/3eo+7Q/fz8SJE6WOeu+99+Q7ov5qCFqWCOzT/vPdsp4p7QlmeTjfoQ8Q1Q/w01rJUH/x/AwU4gSL/Md8d+zYseItmTaCd6TL5lRLvjQELXvhOg3NOPNm0VAPGjRINOIMfrDGJ6aiTPuopPxNLxACx8Kh4ZhAWLVEFyIEQP9DpDHApAu33BxH0GAB3Wo26zKBsLIIvzv+JrD4Ox4DWc8IYZBOF3MWGJVHKMQ1PY2+QqPF91NNgyXUCaB5qOagmoeY2zJ6zhwbPCwygo5wyHeDiQ8mZzr/iPhcj3yks1Vs9Bl4t+yTDt6lHo+C9IbzIB0aP5vfpItDPqf7bTZpMcoTygXvly3fDmvJsUYhFg0Ih2isqLPqC9f16zCWHcAkkrYEzWC3bt2S5Stczqqt3Onz4kGWOo05ngx28S7GjRsngguDiFiYgH7TYaot37KBPCEwtYAlJWg/sNjhGOa6p556qiwDovEqicwCYWFYKCig0SXUKGN4pZleK4VswYJGcdAGAYcPt99+uxs2bJh0fFkwG40JI17M/cFNN/EI/KbSPspUmJfRykPLPe+RLbBPoPONu/kHH3xQlqXgu0BY4JtgbTHWH6PBp8PkUynfg/9t+3njo8fZqjaQ+Zd4bkWQBvJn7bXXlmU+ELZB85jfqSBYinzTZ9Stos+FkDhv3rzkumOsGcdaibj+Z9CMOS0MwnCcePztbzlOoAOPN0bmuuhWj1GP6N+UJzqS1LmMfqM9RWPNOepbzScdgCBN6kwh/Axh9JlKkc9GYaAM4mxmwoQJ4n2UfcpPrmjZYEu5xYEM5t2ULTw5UtfpeR8rS7WQL3zzeK1m8It9vlHMa2mP+Z75hsP5VQ35R95kek6NQ12Jk7Hnn3/ePf3001IWqeco05RDBEGNm811y430XkZTwflMcdJjAmFFkk3BoJAt+BHpx0UDgyexkSNHSscXAYiRRxbRxXxu2WWXdeeee67r2LFjcjS/0j7KVJhAWHmEGxWtFtnSEOn+zJkzZQQYQYctv6Ez36JFC5lPwmg9cxArydGCnzeaL+Fno9PDYBGj4iyezQg5AhPgFh+37Lp+my+4APnL74HrliLfSIsKpAizaFzQCuNpFosA6kPmlarQx98Ihz5+PvmEj2l50mdOladAXIRENT9DKGQfTQSB/GS+EnWR//uoa+l9lKg4RvlCOWUpBIRCpnawPIUOvGSDXz4o61iYPPzww1LmTj/9dLfxxhvXGbDx41tZmg/5Qt3AYu8s3P/ss8/Kt06bwIAYZr54KUU4VPw8rdS8zObZGNjCCoc+JiaiDMTyG9YL7tmzp1t//fUXMMHlulqnVgomEBq5o28u8htLVzj4QepCNve339zgIUPEXrtpk6bu3H7nSieXgklDcd3AgW7UqNFBJfe3u/iSS9xGQSd4oYXo1AUdqsQ8oErms4RAuErMBcLegUDYrFkgEN5vAmE6+AbC7y/8XXDej8c+QgOjl+PHj3c/BsIP5pF/BULF8sst57YMhJ+uQcPffNVVpXwss/QybuFF5guWej2fuJUh5Z+//6mT9n+CZ0Qooi6YPWeOe+ftd9yrr74izmIWXjjoMC68kGu8/PJiWt69Rw+36SabuiUbLbnA84L/zJov+YS0A2ki3Qt7Hdr/Be+LZ5gTCIA4KsDcDmH2++nTk3Go12pq/hEt3b+CjgidkcX+tZhbYsklRItHx5v3vTTCWiCoLRkEBgjQAjQSQW4pefYlE9pAPDX++ef/JP/mzZvrfkPAnIf2cJ77Nah3df/nn3+RTsGMmTPdn/KbP5O//d9f/3N/Bx0nzS/ynPS0W6ed69RpPdeufXuZR8ag3dJLLS3PXvNPbd6zHybfeW6UDsr7eef1d2+99baUTczqOnTskNM7ppzdfdfdgTD4UFCWl3R9Tu/jNt10UynXQLkLlycrQ3XRb5Mt/amhQ+90r496Xeobvl3qk80228ztuNNOMqhDHbJocEzzlfr2r0CozEd/ijREUcx3xjNT94LmC/UxW/Jk1qwfRAhkahL1HyzfuLFbd9113X/23de1adO2TlnTZyrmMxST+guE/jZ3FgoKYP1/bcScVK/W+4h4/fpRBZuf5/wkmkEqLzoU/c7t59ZfH2Fw/lwaGozBQwa755973jVaqpE7s++ZbpOgweD3/8iHv2jd61YYn3/2qTsLDeEq8wXCuD3rLATC3rUC4b2mIcwdv1pM825r/vnH/Tj7Rzftu+/chAnvi4bs888/c38zIhwIDpQNBAc0OAhIbdu2cS1atBTtDt/T338H3wtCFPeI4/dCkoKs+CdI51dfTUp4NfxUTCW/nzFDGnM6LtA0eKaNN9rYddmoi2itVll5laARD43chpsb/5nzUWfo9fU6iWvynhDsfvttrnhkHD/+XffNN5NF48vgCe9BB7UQ4nhXeD9t3nwV17TpCvIeqQ9VuFsqELQQDlN2TFI9R6pn1HQn0Ov+FaSL+nbeXATGX4POJULkb5LmGd/PEOcVaGNnzPheytzCwbUpT5S5Jk0au5WDd8BgHiPrdDzl3qF7pUyrUZbMmT1b3PG/Oe5Nt2rzVd05557j1mm7Tvr37JUJ2vZnhg1zSy5ZaxmEN1PKo5RxOuUJoSUJx7l06HBVQ37qt0aeBZuZQX35ySefiNMZzEmxMqAOadq0iQwcbhjkc6dOncUckt9SZ9WpV/x90HcWPh7Ge7dR1Eu40rj+c0KmawSn6SNOn/69e+eddyQfvv9+ugx80Y6Qls5BXbVl1y2l3vLrrGQZzOV+5UbiceonEEI4Tja/mY8JhNUMr14/qGD/t19/dTcPvtm9/PIIGeE/t18/16Fjx/nxvKJC3OsGDXIjR74anFpY1kLadNNNZD+yYqmgDxeBUExGEwIh2oG4Pd8PmIyaQFh//Gox3bv14iFMLLzoom7qlG/F1Pr9CROk444JIp14UI3T6quvEXTS2rqWgdCxatAZWGGFptIBU+0SHQWZa5KNKYymIZzOVMd9gjhoymq1T7VbwqwfZrnvg0Z72vRpbuJHE91nn38uQhPwff9r0X+JgIQzBTQQXbfoKqO5aNGSDXcCfrdIEL8oeO8DeLYffvzBTZr0tZhvTXjvPXkXpJFnIP3kees2bVznTp2kM7Zmq1ZyHnhXKes0D7+xXiCu/h1Km6K/zXQPpU7+sg3+n/PjbNFyfvTRh0Gn81MxH0RYn8uzBh14Rtfbt2vvum65peuy4YaiQVxq6aWj75llOoyYkihPqilcuVkzd8GFF8hAVOS7TcRHa3333XfJvEE0y3hw3HyLzWWAAaQuIm5CU1OH6KJd3ZBN5EuQZ/rN6nb27B+D+uhlN3rUKBmU4ltF88858n7jTTYRAbFN2zYyQIX1QaOllqp9f4n3lSTVO9Xj4fhhUsSrT70URgaz5s2VAS08sL4dCIFvv/VW0K7UrpuJ5rBxkybSlmwY1Es79uwpbSLC4aJBW5JyoMFPUobHKysSz1V/gdCH+Ln9xgTCaoXXTkFjG1Twv/70s7vq6qvd2LFjxEyU+Qcd1+tY25Hz43ogFGKOyFwDPug+fU4XM4iUo4gVggmERh30+/AJjiEI0dDPnDHTTf/+e5lTgrnxpK8nyXHfFHORRXAaEjT6icYf00O2K6+ysluh6QryNyaIi6kpYtA5UKERU0S0Vgg2dPz/+P0PMUVU4Y7Glc7e3Hnz5G/Z/+03EfoQWH8MhAkEB7RPxKEBRzhUEIgWCTqDjNau3XptmQeDCQ+DRghUdToqfj6wSzWg22KQqKPocOEA6I033nDfBgI6nS4gzzCpRCiiIyJrtwXPsRTfMITquLygeZLi2mk7XpqvOcA7ZhACbQTvGpPmt8aNEw2jmJcG5QRzQsxLu3XrLtrQOkSlwygfKC/BO/w1qGNo08eMHi3TG2jT1w3Kexg0UYA3cbw58k0fc8zRUjYiy2RYICzAJ1NR6Pcbzsvgz3lBPfzDDz+676ZOFeuS9z/4QKwvGIiifVDLBDT+WJXwra7RooVbddXmov3/178WrRXYuTaX51bB/UTw1MFE/7b++QXSk/hb05uOIK6WG7lOEP4K2gymEPAsCH+ffvaZmzZtmtTF1EdoRLXNa9K4tu5lwIF9nMVgYZJMQyY0WqWVvcRzmUBoFIBUrzYoYN5r50O94YYbRKvByPE555zj2q+7bm0c+diDSCku9UfQ4bj++kFuxIhX3F9//c+dd/75oi1YiI5uhZYsMxk1coLvKOhE1STms9HYo7HC1O/rb74WgRHnJTgiwJuaCnIizAVC5aKBsIj2UQk35H5Dwbnw36rh4jj3DsPcFQRLDQgMzGlZJSjfKzVbyXUMGm5MQBFWpTOYuLyaNEnnIiHYpqXA9cHvQd7REXnuuWfd8OEviTdYnqdxk8auZYuWMg8Khw50rJKQl5qdBU5fUaEM6LP9Uzs4gbZo1OhR7tNAUERARuinbMg8naCuaNO6TVCXLS2DE/Jbo7xJ1AMXXnihGzNmjDgxufjii1yLlmvKcf1+GQC688673BNPPC6Dm31OOy34TrrWftdShlKUBQ5X0jdTKhLvSfI52J8xY4Z7++23g++VZSu+d7/8+ov7NeijSXvw19+yHAHvBUGQug3TfAbrGOTB2gQT1NqBwtolkXC4skhQPxOf/drf13qH1/X7aF+4trYd+jfOcNj/O2i72GeAiXaKAU3mjFPf0nYhxFKncI66BrEC83UsRpZiHvWSS0r5wwyUpZwYVERglTJI24ECIVU5qyYSWVA6gTD3uxhxQd9c5HeUrjAkOnFBpcDIzdXMN3jzTdds5ZVFGGzbpo1MZq6Nk/oj1dEezLLuuvtu9/BDeCRrJKYmONXI9PtyxZzKGPXF/ya06uVvtHiinZs7T7R1aPh+mvNT8H3OSZqd0hjTKZgXbBEc6dAT0OzRqeMc16xthBuFhLwlxfGImqSiZWTwZ4WE8xECDTfnmSdHnDCp0l5KNE0vvPCCLI/DXE6dm4PZ1b+3/Ld0PpgLKB2ioL7StCulfoZCoPniP6v+PfvHH0VjPer118WRA507zqF5wEHYHnv0CtqCZslrGOUN73fQddeJxnyllZq5vn3PcJ2CjjlQ79x0003umWeeFUGi75lnynxToH3H4sDKQGHRbzScz+Q/bQHvD8dXCGBYmUyfNk32ERYlXmKwkOuokFdb5y8h/TisO0QQDI6zr8fY/isIOHvBwcv//vorENBqaoVB/ka4C4RCBDzmJ2PeWTutoLbdYXDRryO4DtYW9IuYu9qu3ToipKJx1jaGeyr8zuqYaEwgNPJINgUBO/Y5btCgQTJ6yPIEzANs1apV7dkcP1Y6q4MHDxYvUVQk/fr1E9fKlYgtO2EUE12egEY9jF99R5VBPa/fssbR43Ert6kI10W4J2cJCMwiWSfts88+k2OMkKMJZOFiXYetdpT7n+RyF0Yt5CkBT7l4lEYzQUevcePGbu+993Zdu3aVfYRro7yh/LN2MEIhbQLrFLK95ZZbZK03Ou0sLYH2xogP+o0C9b/us0QOf7PwPZo5nEthnommDgFSBw9578TVOpA6Mryv12RJEV1WhGsT+JstQqZuETbR+KGVZEkhAvUugbpC2xmurXW2X3cbmTGB0MgjmQvCd99Nl8VTmV/CB40Ax0g6lYRWArkUDSoduP/++93dd98tQtJJJ53kunXrJteppArBBEKjmER9h9mWN/2tbvV3bGmwU33ncSvP4ToEByqsiYrZLZ0fTFp33nlnt9FGGyVNQnk27ZTE7XlKjZ+f7CNcI1QjHI4ePVqOU7/16tXL7bbbbvK35WF5o1NDRowYIdYBDP5imqjTRDAdNuKL1tP0taIGtzhPoA9Xq8nDxLR2eRq2/C68JWgdyTW176fCIcf4W88hDCL0ETiu9+X3mj7d+vWF1R25YQKhkUdSFwRe95w5c9x11w1yb7zxpggMF110Ua1734BwJzHXDxnt4NChQ92TTz4pFRKC0zbbbJM4O//65YwJhEa54H/H7Icbl7iV21RovYHpLKahDz74oPvtt9/EJIkFixFaGLXWukXja2enXJ6z0Oh7V7RcaNlgizv4O++8Uxbmp2PJvMujjjpK6jvLx/LniiuuEI+7fBs4K8HZTJcuXcq+Xa4G/O/X/xbD33Ux0PoiKh1WTzSMUgmEVgNUCRQmAmumXXLppe61116XzhTCoJpWAY1E+CPPBUaS6DwcfPDBso8WEjNSrgvW6BhG7vBN8g3p9xlGv+9wUHQ/6nhUiAuaHuojTKJwkHHPPfdIPuy7777ummuucb179xZhkNFuP+1a5xjzIR/9oOjf1M8IB+Trcccd55o0aSIaQ8wJX3311UTsaOJUbozUHHvsseLcAzARRavOe9dvzYgn+m7C326ciGu6jOyw3nlFwkdZ+2H6lfwPP/4YNPT/de+9956YhzKPQDWDoPH+/qe2Y8VfeIsKB72mH0DOJbZ77b23671fbznHIrnMU9B4oNcqS6zOMwoM34r/jWhnneA3uhqPWBpS4cfxQxzR5+JZSeO748e7E086yU2YMEFM3BEMGXjC3E3zRj3mgZ9Pfn4ZC6L5kxxsCP5GwMYEd+idQ93W3bZ2M/9vpmiWmBKAZlbx6/S4liWjFq1PWH+SebY4WFq+cWN5//57zIVsf4dTEr0/wcgdBrxA89zPT45oSIUfJx/x9L5+OghAGv1glAcZBUItFOEQJioOIUxUHD+EiYpDCBMVhxAmKo4fwkTFIYSJikMIExWHECYqjh/CLBiHjhQNPZV9IAz+MNtdesml7s1xb7lWa63tBlx4gWu2ysrz4yc+2tqOVFAs0nSiamPWJXyMvw888CDRFGJ7PmTIEDH10nO4JNb9VNdLF8JExSGEiYpDCBMVxw9houIQwkTFIYSJikMIExVHQpC9EoJ9nwXiJUKYqDiEMFFx/BAmKg4hTFQcQpioOH4IExWHECYqDiFMVBw/hImKQwjjH0sXj+80LPBkul6YVPGjQpioOIQwUXH8EEafiXPvvPuuu/Syy4I67Ae32eabuSuvvFIWMZaObCLOAiFRn/nXSRfCRMUhhImKQwgTFccPYaLiEMJExSGEiYrjB/KJuj/YCf6af3zxJZZ0p/U53R13/PHB/hLujqF3iIZW85d/tWMI+rswejwcwkTF8UOYqDiEMFFxCGGi4vghTFQcQpioOIQwUXH8ECYqDiGMf4x3rQKariWnhK8TDmEmfPC+6/rvf7uXX3lFzvtlAZiegnM55vz6hOMpep9wCBMVxw9houIQwkTFIYSJiuOHMFFxCGGi4hAAiyvQei8VUeeKcUxJFT8qhImKQwgTFYcQJiqOH8JExSGEiYpDCBMVxw9xIysNYbYPUd94GlJR6HgaUhGXeBpSwbl/gn8J7OM6GKGQhU+vvvpq98GHH7rWrdu4AQMGyHIEuAmmYfArGPblbyps+gbBfjhoHD8kfpwURHBXzTX33HNPt//++8vpQdcPcsOefcb976//BWkMIL6ciYZzUSEVhY6nIYweyxRPKXQ8DakodDwNqSh0PA2pKHQ8DanIJp58U4mQLh7I+cR3J99s4pii+34cP8i52o2QjB8KqahvPA1R0GFkDUbqrIsuvkjW4tqj1x7unHPOFa2gmIcG8cgn/1pS93mdzWTdFODH80MqOKf1KSEV/rVSx1ownoZUFDqehgXw87TmH9EW7rbb7oFgeJosTfLEE0+IZ1eWSQEsSiSXE79LRfKaiZCKcDwNqSh0PA2pKHQ8DanIOp73zet3Tx/AF+51GxXC8I3iqGbMmNFBO9/LvR8Ih3pdn9dff939+tuvtecoI979o8h0XyUcT0MqCh1PQyryEc+vz8jLqECcqBD8U9B4GiLjBqR7Lp9Cx9OQikLH0xBHzGS0ggiPuf1rkUXd7Nk/iuMTvImt2XLNpDCoMCqsDUIhoNE44IAD3GGHHRZUDAu7m28eLJ7sWNtG01tbXRiGUV+CZnf+f0EDjAZeG+Pkfqr//DiJ/VJDOmDwkMHut19/dT26d3dHHHGkrK0FWB0UGq2fWJuL8NLLL7nttt/e7bjjju7rr7+u1XLUo+78LegcH37E4W5I8GxxRxapD6Cd2OrfW4k3ykaNGomjqokTJybfk83WLB/45llTDhb1BMJcqa0zaruQDCwzWLNIcO1sIA2GYcSLtAJh4cQEoxCEK9npM74XM9GJEz9ybdq0dhdceIFbudlKbtGgcRfzoAR0bPLVCSQN+p9ek07DtttuG3TojpD9G2+8UYRCFkOVeSsSyzAMoxasCIbccov7/LPPXIuWLd0hhx7qlgyEQV9wBb8z6w+Iabx8MSOoS3fYYQfXrl07ccqx1FJL1fsedJ4//OADN3nKlMSR+EPe8qQbbLiB2z4Qiv8KBIo7hw51P//yc62WKfGfEV9ok/mP94T32IUXrl1GoMEE3+DoUaPc2LFj3PlBH+OPP/9InKiL3tswjHiSlAr4TMMBdGuUB1rpz57zg7vs8kvdhPffc61arekuvuRi1ywQBnmjgRhWGznBIoFwiFBYSOhA7bvPPu7oo48SYfSOO4a6xx5/PHG2/CikVtUwqp1vv/3WjXj5ZVnShSVeVl6RuiszUvvlURAEzCZ/+eVXScuRRx7pdtllF7fSSiuJYEeoFmgj/rXov2ReeOvWrd2nn33qRo4cmThrlBOs3QkIhPn4Xjqv10mWr7j00kvdE088WfD+hGEY+Se5DiH/ZPsJU32Eq5BUv802npLv65bL/fOZzpn/N0McL7w/4T3Xtk1bd/7558u8G8B2n05T7RUWSgo24esFrURiJ5rw2Wyfi4bi8Sced3fdeZebO2+uO/TQQ13nTp3raBNB5hmkaVQWCp1KNSch3/EwHZsyZYq76aab3Bqrry75vPTSSxft/Wcb7/9mJdYhbLayu99bh7BY91dK9fxKtd6/XNKphOM/+vhj7uabb3bdunV3p5/exy2+WK0mo1j3J77WPzNmznRbbL65+3rSJNdyzTXdf/bd111yySVu7BtviOfNTz79RObZ7bPPvu7EE04QwZH67KOPPpJlfd56+y23zLLLuh126OlOOeXkIG4jt+2220idTFw8pwYVowi+mNfj/XHSpK/dlVdd6d4I7sHarsQ7+aSTZT42A3hKvp8/VTzNC62n8VRNepdrvLy77bbbZG4h6Pkw+U6n0tDrVuv90b4//PBD7qgjj5KBWoV46QTE8JnRY8a4Lbfs6v4Jyi/a4l132dXNmDHDvTJihKxbybqhrHU49s033KabbDq/v5G4R76eJ0y+r2v3r0tc718u6VTC8ZX8rUPobzOTN4HQiA+XX365e3nES65Jk8bSqWrapOkCFbG+RQS0qHeZrlFoKIyqMwcFk6NFFl3UNQo6U1GFPd0oYzh1qWLmO95fQeds0X/9y/3++zzXpnUb6RCK+ZjXSYsDtjC9Uc4gbCBIndf/PLflv/+dFDT8eqKQdZRCHfTPP3+7cePeEpPRYU8/7Tp16iSLtm+33Xay9AXr9eFgBZP4fwdpPf/889xPc35yG2ywgQh4Rx99tJjoHXDggdJ5ZoCO+Xg//PiDeOxstWYr9+ijj8pc77Fjx7qmTZvKvVZpvoq79tqBIgCOe2ucOyEQNt99513paJcS3gHPc9JJJ7mp330n6V6nbVupF1MJhEa8uG7Qde6pJ59yJ598stt1110TR2vJ5bsSgbBrV/fn//6U3+HAbpsePdySjRq55559VjxjNm7cWAY2WOpC23QrJ4aRmvwIhJDqN9HH49WLNRoEBYaAm+cVVljB/fjjj4HQdaebl/AGB+FCFVUtF6Kj5d930ldfuZdfeknus/pqq7lWrVq5tdZaa4HQeu21UwbWUfRDVBxCvuMxh4htxw4d3eabb543kxvDMOaDyeiiiywq36LfedQ6rhhwH+Y5k46VmzWTdCy33HKi8WCQhW//xBNPdKuuuqpbO6ivLr3kEjdk8GD3+7zf3cMPPyy/RxhEgOM5Bl57rVtt1dXcH7//IXOne3TvEXSmt5TfI1yhWZk5c6ZoBLfaait3wYALZN7kzz//7Bov39jN+H6GuPEvZh6kgjqPwSack/z6yy/S8bdaMN5ouSH89b9apzKLLbZYg9ov/SWmxHwnK624oqxvzBzZ66+/Xuaa+tdnz8qJYRQL/eL8kBrTEFYQiVfJnszvuOCCAW72j7Ndt27d3Jlnnll7JohTq83CXFQO1aHQwg2mRswzQFjdZpttxEEDC0pHETetWxhfGCx0vuWKaQiNcgbHJSwt8fzzzyfX3wKt4+p0Mgv07fn3+vLLL12XLl1kzhyDQnvvvbdo8zAZ1/sjzLFg/rhx48QyY9SoUaIZwSunn0bM6Bi0o/676qqrkvehvsMbNGsscu0+ffq4WbNmiTauffv27sUXX5T13NZZZx2JX6jnzgTpRWgdOHCge/nll13fvn1d9+7dJT2lSpORGS1n8N///tc9++yz8u741nxyeYdjxoxxXbt2lWtroGxQ/vv37+9uv/12t++++yY1hJoGKyeGkZr8aQij4DrR1zINYQWhDTIFp22bNu6M089wTZo2ca+88oq75pprZC0gOh1acRcbOjOsh8gC03gdPeOMM9yyyy4rHaZwwAyTeTlxDbi/Jy81zw3DyB9o4QDhyScu31uTJk1kQOi5556TjjUBYa5nz55Sd6EBlLUSg3o21/QifO61114i+KFp/OCDD9yTTz6ZOFv6PNBn+uOPWm+SqQb0jHih5YZA2QTtD9QXyrmi1+a7QOONoHn44YfLMcMw4o8JhBWGX7kzh6V/v/6u6QpN3fDhw931g66X41ENgFbm+UYbDBwn9OvXTzRXzI85/vjjZS0x1QLq/QuVjnxTDmk0jHIFL54wefLk2H1rCEA4kmIw684775T5f4RHHnlEQosWLdxGG20kpvpYQihYR+ChNBOff/65mI+ed955UocjHKNhUai/G9KJzwfU6wzsob0lH6w+LC9UIFRhvr7lKep3HKM84MuA9l3beMMwCoeulxsOuVDnS6VKzyYY8aa2ca59U5ganXXW2dLBeuXVV8Vc89dffytap4K0fPLJJ2IaxWg/izqfdtpp4jXPOhGGYUSx/vrrS0fytddek3lIxaqvsoF0nXLKKZIuHKog6BEwv9tyyy1FENxjjz1kviHeSBkMwwQUj6Ms15Cu3kPQYs4hQuADDzwgi79jNsu1EULVfLYUdaef/999952bNGmSpGn11VdPHDXKAd6jand12kN9yxOecvfxvJT64AfghRdecL169ZIyzX0bci/DMPJF9DeYFAg5nUsw4oxWugu5v/7+x63XcT137rn9XdMmK7iRI18T89FivcXx48cH9z5XRrzpJLGOl40YGoaRjk022UTMsqk/GEjyTdPiAE5iMBfF+Q3eRtH8ff/997IEAybveFYcNmyY1HWYx/fu3VsG55hjmIkOHTq4IUOGuKFDh8pcQ7Z33HGHaAuZnxgH8I7622+/iVdVzGeN8sIXCBsC82nTzVFn3uBDDz1kgwaGERu076/S3PyQdCpjVBY6Gufz/vvvizDI6C4dDVxOM8Kr8fIxckfHjU4Q2w8//FBG0HGMgGYQt+mMcHM+Kn1G/jCnMkY5g7Aha/i99ZZ43MTBCnPzoihmPVKIeivXJpj4pRhU474EBOFBgwaJ0IsnSbRE5Ekh8sbIP7ync845RwYXcIqEEyOf+r5DrhvGyoNh5E59nMqkMg9daOFsv8GgXUnsGRVGVEW87rrryhpYmI+OHj1aGgM8gkE+K24KLg4WcD+NMIhmkLW6mK+gHRlrKAzDSAWOm+i0UlfhyfCpp55KznuqdkpVd1KvT58+XQaYGPA79NBDk8IgWJ1ePvz+++/yvhqqITQMo3IwgbCiYcRgfkA7t9ZarcRZQbNmzdybb74pJkysc0Vjn2kEIhtoZBh5xJsopl4sesvSEtzbOnSGYWQL84xZ2B3nUzhrQTBkAIt6xK9LtO7KR/2ViWoUehD+yFsc/GD+j/UBpoBbbLGFCYFlCO+M98mWb6sY341hGPVD27aws5hwSEVU3MgQ3MMEwoqlVgisG2jY/3Ft27Zx/fv3k8XrEd4w68REKx8NA2tv4UgB73r77befzBnUTgONj2EYRiawJKDewNScxd3nzp0rjqnuuuuu2M0nbCg8Z66h2OAYjIHEqVOnyvxOPEYjsBvliX5DlKV8fU/hMkowDKN8MIGwIlEBMBrqaZwiMEdnjTXWkHk6CHG4Ea8veNxjBJ+5JXTeWIz24IMPTpqkIAxaA2EYRi4gGO68887uiCOOkI7rgw8+KItq46SKOsfH6pf8g8dU8px15TAXZTmNE088MXamhjqKbmQHJqOA4yYbqDUMA8ypTEWSXiCsBbMR577++msZ+cVDHt7tEAzVeYNfNFJ1tojDuVdffVU6an/++afbf//9xaEJcwYx7aJTVwonCNWMOZUxKgmEQZZvuOKKK9zs2bPFsyVCYo8ePeS8CYP1J1U9T9vAPPOvvvpK/mZ5gQMPPFDqdY0Xl3znGe6//37x7OoLOFYuomHwF/Prpk2byvu0bmA0apq+yiqryAA6TvgMo9D4TmUUzDoLCg5sgorAaoKKg1ea/rXy1gl0tPyGnxFgvI8iSEC6hp/fMkrPWmE33nij+/XXX6XTcMghhyywXpY1zMXFBEKj0tC66vbbbxfhkMEnlj1gnvI666yTXFPNiIamPlP+EAcv1K+88op79tlnRXBo2bKl1OvdunVL1utQn7zOJg315fDDD5d5jn6XxspD7liXcD5++XnsscdkbVHDKDQmEBp5hFea6bXWagh5/WjvpkyZ4s4++2zRFLZp00YWsKfy0woxVcM6fPhwN3DgQFnXiAZ57733rtNpUKxhLi4mEBqVBhoNtBnMd37nnXdEW0i9s9hii7lOnTqJ86oWLVokYhthqOtT1cOcw7kYnd6nn35a9omLuS71+rLLLivxEMoztQnpSJeGhsB1GYhkjiNLYaDRMeoH77jaoTzplnoFq4THH3/cBEKjKJhAaOQZXmuqV0uDXNso+xXfpEmTRFP4zTffyCLKZ5xxhlt11VWTcWjIaSwQINEMvvjii7KAMh00HMgcdNBBC2gGjdJgAqFR6TCPEOEFbdbMmTPlGOurEjB/p/NGXRXVxFVb/UQeEHzTff4mHyZOnCjOwEaOHCn1BppWFsFnsX221On6W/1NfdH2g+uAf72GXJfrIBCi3bz77rtd8+bNE2cMo/5QXvGHgJM8EwiNYmECoVEAUr3a+Q2vvn4aY4Q8OlZ9+/YVBwKMtjMKjzfSMJgTDR48WCan40m0V69ecg3tPDSkcTcajgmERiVDR41AfYM2CyGA+WPUYcwhY47hdtttJ+ak1F/E9eukSqufsq1z/fr+pZdeEocx1PVoWjnWtm1bd8IJJ7i11lqrzuCeXrshdTu/JahQyHU0Pfyt75R9Qi5wHRMIjXxDeTSB0Cg2pRIIzdNHRUPDHRXm4zf2dKQwtbn88stlTg7mN6xTSIdBYd4OFSOaQTzQ9e7d2+22227yW9MOGoZRSHwBQusbzBlZngLhjwXtYdasWeJk5LDDDnNnnXWWe+KJJ9xHH32UXF5Hr6PQ8YPw8bij6fbxn4+temNl/uXLL78szr+YE0g9z5w7BGaEZ6xDmAtO3U/e+m2D0tC6nd/TVuh1VPhTQZD06lbxn8cwSkFDy71hlAOmITSS+EUBc6xTTz1VnAqsuOKK7pprrpHF7B999FERBmm0jz/+ePHyh1dSqzDjhWkIjUqEOoq6hi2Bkftrr73WffDBB7LcDccwF8VsFBN4tGDq6Rghh7pqs802c9tuu63r2LFjHUFEYZ9j5YSmX9POlnxCMCYPnn/+eckrLDo0P1h6iIX/EQDRfDAX088HzWfdzxeaNiD//Wv75/T+/jYVnDcNoZFvKJ9oCJlDaE5ljGJhJqNGAUj1ajM37hSLadOmicnop59+Kp7munTpIiPtdChYY1AdyJRb56kaMIHQqESol6h/xo0bJ+H1118X78YIehtuuKFounAwwzw46iU6cjigGT9+vPv888+lTkMoQrjA5T71Gk60MJFcbbXV5Bgh35DudAJNfVENIdYamPsT0Pp98cUX4jUaKw8Venmu1q1bS6AuRxAEFbh0v1D49+C9MLjIOrjdu3dPag31/pgBY4lCWjfffPOM6eLaJhAa+cYEQqMUmEBo5Blea6pXS+OaXcOPhrBPnz7SsaCoMIqMZhATLW2kMzXWRvExgdAod9SrqA/C3c033+y+/fZb6axxvmfPnjKHmbKO4OMLFgpxEZrmzJkjzlNwiIXwQDzqNbY6uNW4cWMRLtddd13XqlUrEVqyWXvPb0r9OHo81e+UcFMcFZ84BLxBYwLKYB1LcOAlmvzSddMwE+X3jRo1kqU5tt9+exF+WUctXXoypTFfIJx37dpV2hM8VSOccm+9P89DunFWxtq4mdLFM6lAeNddd4kzNMNoKCYQGqUAgXDxxWn7UvXh80+NCYSVCq8002ulgc3cyALCxVVXXSUdEOae0Pny54EY8cMEQqOc0boHAQdTx1dffVWEwffff186aQg3eMBEGKTzjzDHcQQ6QjYgVCGYqCaNudIcQzul96eOYx8nNcy1W3755aVTiPk8x/ibeYsINgiNBNKChtL/my3zFxHIENYICHDMyQ7vExBef/rpJzH5pDOKIMs3TV6QPs6DppP7r7TSShJWX311cQ6z5pprivbTfxYf8gv0eDHrczSYW2yxhTwX5r0PPPCA5KemwRcIWQIpEzyjCYRGvqFcqVMZEwiNYmECoZFHeKWZXisNb+YOgHaytNNCx0Y7XNl2vIziYwKhUe788ssv7t5773UvvPCCCFOA0HD66aeLMMigFGgT5tdHUc0a9ReCk0Icggp91HFsESree+89WY6BJXj4m3M+KrhwT/297oMe8/F/Q72q5zWuH0C1fUAc//nIB7SXzAPs3LmzmFbybJoGhFCF6+m9ffRenIs6X0hUIDz00EPdHXfc4fbYYw9xaEP7AiYQGnGAcmUCoVFsSiMQBu1MUOCLd0ejSPBKM71WOgCZOwHaYQiT6rgRD0wgNOKO1iEIR1qXML8Prd2YMWPElJD5gQgJmHAiQBDQyIXnnGVDqqYu1TX8+HQImZ+HRgvNnWrr2Edbx7INCJw6cKZbPU5AA6hmqWgQw1pEBDoCz8Y5TFfRQBLYRyvJPEA6pUsssUQy/8Lp13RHPRfn9LwvYBYbFQjxbIoW9Pzzz5e5fwiGpBuTYBMIjVJDuTKB0Cg2JhAaeYRXmum10lmI7gj5UDxSdSyijhvxwARCI+74TQ91ySeffOKuv/56MeHkHBoynJ+cdNJJ4ukYAcbXfPlofRS+po9/zidVPebHD/+W3xAQ/DiHEKcmmFEQR8+rFk+vqfcPC2h6XLfgC8/+cZ/wdcNwnsD5VHEKjQqELIGBp1MCa9u+/fbb4uDHBEIjDlCuTCCMB1pn1Qd+C6Wq73KlVAKh2fxVJBT6dAU/0/n5pPqAyuXDMgyjFhpFP5SC8P1xWoUgcM4557hTTjlFtINow/baay+Zt3zxxRdL5x7NmQqDqQQvFZa0bvLvpfeLIhxPg6LX1KACHZAmNaNnn4Bw6AeN42sF9RhB43ENvbZeH/z0+PfmeQl+mjUepDoeJzRdOI5hDdzDDz9cNIZxTa9hVBv+t5juu+RcONSX8O+1ztdjDbm2kRoTCCsWOg3pgmEY1YLfgPoCR6kaVu778MMPu4MOOsgNGjRIHMZgBolAMHToUHfUUUfJPEEEpjAIRWF4Hv+4PmNDQhzR90X6fOHQT3eq4BN1rJTgCIf3PmrUKJlL6M+fNAyjdPj1hO5jGaFQJxG0TvFDfQn/3t/3750rOoBmRGMmo4ZRgZjJqBEF1T1z83DkgRdKHLTgPVMb9IaizUnUtTiHqeCIESPENJD18tCYtWvXzm255ZauW7dubplllhFBJ6ztKwXpnqUURKUnX++t2KjJ6DXXXOMOPPDA5HPccMMN7txzz3V9+/Z1t956q5mMGiWFclXpJqNR9Yqi5wDvxlh04PUYh1/qAZm8mTt3bp350ght/M28aQ06j9q3msDyQ7cc8+dVM1ecOdN4ZsZqZNlll5V51OrpmbVncyHdc8YNm0NoGEbeMIHQiOKNN95wF1xwgTTYCF0IgwMHDhRzPSUfDWZYoGM5B9YPRAPEMToFzBVjjdMWLVpIB4CmSOPr77Mh23hGfIgSCNEK0mncbbfd3CuvvCJlhPJhAqFRKihXlSQQ8n1R1/r49S7wN8+Lp2XWOGW5sUmTJomABxpXt8T34bsF6nDgfPgeqepsvZZuiRcVl/O8C9oQ1jDt2LGjeFtGsNTzqe5RDphAaBSAVK+2fD8UIztMIDTCDBs2TMzxaChZvw8nLp999pnr0KGDaGUYfc0nLBWBKSid+/Hjx0uHgkZ8s802c5tvvrmslYdGkJFh8DsBuTRL5dzwVythgVDhvbMm5E477eQ+/PBDd/bZZ5tAaJQMylUlCYQ8j19fouFD2CPgyInAeqz+PF7qZwYQ0dAxgMiWfMDRl3pBRouHdg+BTLV+TAFg39cIollE68fgj2oUubZqEfEyzTHOo3XEq7MG0kq62EdbSfuiz8OWezCwSZ8HE3SW5FljjTVkzVrSos8dzoM4YgKhkWd4raleLR9DvD8Io2GYQGj4DR+aQVz78/f+++8vnXA6z2hgaGQxv8FEj4XNG9JYck/Ca6+9JuWO0WX+pjOw5557yn0xBfLTBvytcNz/OxMNSa9RGhAI8SKK4yA8jCpaLt599123/fbbu6OPPloczmSC35lAaOQbylU5CYRab4brRD2uZpuvvvqqe/rpp8VsHxDAiIO5PoIVdXSnTp3c+uuvL1o4phdwjOumq29T3T+fcA+uT7uFR2oGNZmC8OWXX8rzAUIogibxSDfLFjEIutFGG8kxvYbuK/wdB0wgNPIIrzTTa6Xgx6PwG/nHBEJDq/annnpKlnNgBBdhEA+ejNxynnJy+eWXizaGhp+5W2xzBfMgRpcxCUUjqB0NRml33nln6Vw0b95cOhvcl6ANMmha49IgG+UF5ccEQiPfUK7KTUOodavCOqlYaGD+ifDEIB3aN0CzhxaNOp+6erXVVpNvh+dkEM+vn9mPcz2NxpHvn+kJtEVoPREYp0yZIu0TaWcuIpYp7du3lzYJ6xgERzVzjctzmUBo5BFeaabXSsEvfOHXisQoLiYQGnx7L7/8sgh8NHh0mHHSQQPoe6jEUQBLPtCQYv5zxRVXpBQKw98zjTAmPHTCEQS5NnHoWOApdOONN04KgYr+nq3VD0Y+oByZQGjkG8pVXAXCqLpT63bqdM6TZpb1QSikDeAcgh7CEBp4zPc5HlUH8/so4lJfkz5NI8+lhI/TF2Kg8rnnnhNzdM0jYJoEFgqtW7cWM1PyBvT3pXpWEwjLDD/b4tehIW2ZXitpLny6dWKx5lE4r/S8/0HnE95T/N5P4TGBsLrQ+ogt3xKN3uOPP+6GDBkimkEEQUw2MZ8Bvjvi6e9mzpzprr76atEUMmJ81llniZmQD9+Rfk+Y5mCGOnr0aPfWW2+5X3/91TVq1Mhtuummbuutt5YOB3/n+u1peqrxmzXqD+XGBEIj31CuyklDyDy7MWPGSL38wQcfJL16IvBQN+OAhXq9SZMmiV/MJ1zn8uxaHwPn41Qv++nT/qN/jDbOF3b5e9q0aWKuTt7QbvE3QiCaQ8xju3fvLm0XFjSY0XLdQvVN02ECYZlCxyvVCEvp4JVmeq2kd8E0Uxz8Z9HiUZ/nS/VbPc4WzQQf5b333isTf6MIp6k+5OMa5YQJhNUF5ZugwiCaQeZnUeaPPfZYt8ceeyTLv/8d8BvgGJo+vkdMbJj4j4CIB1DQ66MRZK4GWkRGW6n7EDjpbBx88MEyygqpGlG9H1TT92gUFsqVCYRGvqFcxVUg1EE9QPBjasA999wjzlYAh10s58MUAb8eV8L1r39O8Y+VQjDKBk2j/zyqaFCh0EcFPRg3bpz0jzAvpd0kIDAfd9xxIhiqdUux2yoTCMsQOlB0mvCMFJWNTGTt3bt3ZGGKKsQNwS+0NTXqsj3Vq+Vc9H3960BD0slIDBOXTzzxRBlxUbgmlRbzlRipGjBggHyg6TqR2dw/Kh4VAvfBmcV6661Xr+coR0wgrC70OwUWfMdBDN8cC73vsssuyfkg4W9E/+Y7YUvHhzoNpx6YjeJ0hu1PP/3kXnzxRXEWQ+OJhhDhb5ttthFvkXQ4/OuH7+PvG0a+obyZQGjkG8pVnDWEmIYy+PfSSy/JQB4CDf1OrDS6dOkinkC1X8Wz+ETVyX4c/3y4Po8TmuZU6fWfif1wP5M8Y5Bz7NixbuTIkTJ1graTpSyY/44jGr//WgxMICxDaHxQwTNqrqZYPjhwGDRokIwyNBR9TRRy9gOZT/YXCso2pyj7/oiRwujIc889K/bi/G4hfpACHVXRDyl5ryDw0ah9tR73jwHHFOJgdnbbbbfJxF6tSDUObu7JO+y3SbN2SEG3Cr/Re0L4fBi9ln89Osl77723/B2+nv6t8SsBEwirBy3vjHw+88wzUufQgDEQg/t+LeeQqozrNwDMNznzzDPFAQHavx49esj8QFyG870z8nzQQQdJnZKpoUz3TWWTLsPIBsqSCYRGvqFcxVEgJF30qxhMZ5kI+pi09SeddJIIhIrWsdSvfn2bC3Gum/1nqk86/fwBlDu0obfffnty+Ytu3bpJvjK/3offEjRv/fs3NM+KIRAutHDdNHKn1NKBkRUUmOOPP160heFwww03iLCjBUcD6DYT/m9A93mZvmzHcS2YGugo1u4TA4Fn/g/8eAq/94PCM6iGwT8e5SzCj4ObezQKdCB9OM/i2HQq2Uew9PGvmWo/ChVogev6f3/66aeJvdpzuiXwfHrMMMoNyi/10AMPPOBuuukmWScK089tt902ESN7+MYw3ebbZYSZBhKnBGy32mord84558ggD1rHho6a6vdn355hGEZm6NPQt7zuuuukjmcABMsn6mXmi2+wwQZ1+j0NoRzq5nynjzZt9913l0ElrGuwgkFrSB+fOfnkLUH7onp/tpn6p+WACYQNJF2B5BwB++4LL7xQPO/h5pf1UF544QXpZEVBwUJIYlSeia6sEcYWG3FdZ2XK5Clu1earuzvuuNPV/DNfGBw4cKC4D2adGe2wofbGzS4mBcRBo8ki1W3atJH0MAJCoadTqde57LLLZJ0oVOl8GAiELPBJp1MrHNLIqBnX1rVeWPgaBxNc4/333xcNBffjbwKjWaeffrosIEr6cHaBi2D/3uTPCSec4CZOnOh23XVX6aBS6bHWDOdTQT5jQ086uTZzp5jnBGpHzu8xV33kkUdcu3bt5Djzn3h+Nf1Ndw/DiBvUCXyHQ4cOlW/yiCOOcDvssIN8A9mWZb493RKYQ3jeeefJd8f3jpDJt0qdoCOlXFvjpwqGYRhG/dE+CYElI04++WTRYlG/0jdjPjdzBXXxdQYIFb8e1v1sQ7nQkPSGf8s+fUJMbdEMM30CIRuLKwZb+ZslO/R96G90v9wxgbCBqHCUqkBQWDCdxGQRUy5svRFy0JB98803iVh14VqXXnqpjADRuWMe3mmnnSZmXBdffHEgPP0jIxf9z+svppcffvSR/G748OEiyCGUtW/fLrjfdXIcwWjQ9YNc0xWaurnz5opAxvXOOOMMGf3HlJL7PPTQQ3WegzmACLIIjrfccovbZJNN3KmnnioeCYH4zM87++yzxY6d7euvv+4+/vjjyI+EjwpPh3h4ohJ78MEHxSRt3XXXlXQQn8qMDi4CM3mASel///tft8IKK4hgy4hYFJpnjJQxIZhrd+7cWZ4TME9V6Ojiih8zAOZFHXbYYaKtvPnmm0UwNYxyQL8vTIKZM8h83H79+rkdd9xRjjcUvk3qKTSDzFWhbvnkk0+kzuP79jsehmEYRuFg6QT6N6oVpO/HIJ3Vw/lH27eVVlpJ+or0mbF0o7/Yv39/Ecy1j6syAHCMUI5IqoMHMurJ1KlTa4JCQq8sMgQfr8Tbbrvtau64446aQNioCQpPzZ9//inHUzF27NiaxRZbrOb555+X+MB25MiRNU2bNq354P0Pgmv8Jcf33nvfmp132qVm8uTJNR07dqwJhJsg7t81//uLe/xdQ5l98cUXZJ8wZsyoIM1L13z44QfJ9BCeeeaZmhVXXLFm9uzZ8ncgXNUEQie3kL+B+IssskjNxIkT5dj+++9fs9tuu9XMmzdPzoHGZTtmzJiaFi1a1MydO1fO77XXXjWBUFnzxx9/SBzg+O67716z+eaby2/4u3v37jWBICj7HCO88sorNY0aNap5++23E7+sy4cfflgTfMA1d911VzItEAjdcvyxxx6TvwOhuWa55ZaT6xAvED7l+LBhw2patWol8SuBQGiXfAwajMQRo9LgO7r99ttrtt1225qePXvWjBgxos73FxXqA/XVmWeeWdOtW7eaXXfdtebzzz9v0PUMI99QFg866KCaHj16SLtsGPmAcrX33ntLuZozZ07iaHEhDW+88Yb0I7fffvuaCy+8sOann36yOrhIaD/0yy+/lDpm6623rjnmmGNqvv/++0SM/DN58jfB9b8LwtSChRkzv1sg2NBCA9CRANYuQZ0cDsyzAbwVoUlDI4epJsssBO9czoXhOOYAjPbjvY+/NS4j9Zhavjt+vFt00VoTSLRnk76e5Pbea2/XvHlzMRmFRfxRo4X4fW1auXa3blu7Dh06JEc4AHNPTMGY86eoC3kIPgjZ8ruPPvpIfoemk7XI0C5ic42JqF5PtwoaBkxe+Y3OPUQTSBqYa4k5qJrQco7J2/5IC14MMYfD5DQKPESxlkwgWCaO1KaZNdU07cDyFhxDK8kIkDr8URO7oLMrfxtGHKEsa8A8Gk043wraeUy/IfztNRTMxRkVxaMo5uBYKWDObRhGfqBdxpLn6KOPFgsXAn9jJYSDC+aN5Qom5Ji4aX2Atv/JJ5+U/XzBtUkzU0v073zXP9UOde2VV14p/SEcxWFxhraKv/0+klEYtP/YqlUrsWyjP4/1HO0gVm9QKWXeBMI8gGniMcccs0DYeOONpaCwHhiCG+aieELDBBNTTOa8heEDp/KfMWOGeEpDSKPDx5bAPMDvEvPiAJV29+493HsT3hNzTK0ofPj7n39qTSFZuHT48JdkTpB/3bZt24opKCZhil/ItfIhcJztPvvsIxNtEXARdrt27SoTcn/++Wc576PCHunVcwhj7HMM4RDHL/7v2NcAqT46jnNPTNz85/evpeAtDJNWPHLx/ATyAptxTDEwBUDwTHUvwyglDGL8/fff0tljPi/fEN5EGTxKh/8d1QfmMSN0brbZZjLnl/qL79W+E8NoOOPHjxenIMxt1/Doo4/Kd45wiOt73OHn8r3hR8AXAJ944glZd41r5PO7ZToJ/RUj/+DvgEF++oTM38ZzfbHq3Prcp1Bpy3eZzQXmFOq96atedNFF4qcCxQjfKf3FOFPrgHLBsADBI5pAWGC0IDEXjrW93nnnHZnvw8hdquUA0PShIXz++edlTp4GKng0eIcedpg4kmHpCRoSGo5zz+0no0i+N03/A9LOYLNmzYLGpYsbNWq02KQTuDbXZZ+5dLlAR3TEiBEiSKL9pOKi4xgGoZPOLAItHVq/czp58mTXqFEjcfJSX3CCgbt8BL50oPVkXTXmW2q+8tzkLftoMKFUlY9hpIIyyWgl2njmJPNNMR+WjgLHOd8QoS8TXJtvG++lfOfMKXzvvfcSZw3DqC98uzhmQ+tPR1PDhx9+KD4BELgY+GEQub5tE3XFHnvskfjLiDu867vvvlsGqVE6MDCAtQaBPlQcqIZ+kvZXtX1F6YAzHxwy0o9kXd5KwQTCBkIh0c5YGAQgChDrd1GoGM1fc801Re2PiWYq4QXnKWjMMI9Ec9epUycJmGviqXSVVVYWCX/GjJniCQlz1DPP7CsaSQTPH374Ue5bW4idePn8+5+/JY0IPJicorHDbJLAtXG6QtoQRrMFrRxCGOD0BZNWNISo04H7K3w8eMd67rnnkuYvnOf3Rx55pKx1hoavPnAdFmLF+xPOaHhOAnk+YcKERKxaWKCeRbapbDVfmaBNPvP8jAAxIsS7M4y4QHlmJBLHR2gGKaM4eMJDLvUPfyv+d8e+/3dDYeAGoRBrADQWOHIy81HDaBh837Q5DAQzaEugLWIAE6dvtE84Y8PCB/jmaTvxos0gK6Zr2hangsHb1q1by70UNFAIm1wHCxn/GkzzUM/kPsSn7Q9DPALtLm0s18OagHpCPY9rMDLDuxg9erRYZ+D4jgFAoD7XqS6FJPye9G//OGmJOp4O4mkIo8dV6xaOp/tRxwoJz8k3p+0pDhbxhs93QHvMsUrAer0NhILAKAEfLKMGfrjjjjuksLKEQu/evcXLKAIRHTnm3tGZiwIh5ZprrhGvoswhuP/++0X7h7DHKBHC3O/zfnd9AyGwZYuW7pCDDxaXw5htInwOGTJYCm+QukBI3NBdecWVcj1GMlgion+//m633XYTL1WMQLGmDYIic/ly+bj4PfMkMYnF7T3emDB7OThIT/gD4W88ZDEHEg0DdvBoSfmo0C7SySROfT9uhLnrr79ebLy5P2kiP6699tpEjFowecPzKO8HL6Oo/Ek3QjqepKLMeA2jlPBN8G1gWYDZl5qt0ChxTgcvijGIod813xZzCqlv+H7QFNb32zUMIzUMlDK/nTZdO8q0mQwcY1XD/HoGdg899NCkB/AwfJvMk9e5aIDFEsImv0XwRAuFBhGLHaCOoV0Nf9cMBg0ePDjx13y4LmnEggG/CgifzNdnsBnPx2+++WYynpEZBrNnzZol5onkJRSzjqVux2SZaU6sS8v7o//JgADpQNHANCj6cvSnmAfLYICmkT4dAxj0yegfY1HCQAHnNbz11lvS7+L3eK1XOEd/Ge/zLL7PfRlcoPyzHBvrAh511FHSxyadtf3dwqAmowjhbCm/BDy8IqTjv4K0ocQpd0wgbAAUlO22205GcjA3ZC07P+h8PCphPmgWdEYIQTOIOUjUvB/9UHDUwvw8RiAw9aCSZa0ZTMVoIOiAMR/gjqF3uMZNakeO0HQh4N15513uc9HS1bibbx4s13jowYfcDz/+IILj6WecHghwj4p56SWXXCKOKWgIEFS1sDO3TrWFeozAvEa0BOwjgPXq1UvSiZaSCgEhDzt3PlwaMTSaxAWuyb0QjhGMcbzDGi+fffaZCGpAXIRGTEB9+Bhp+DCrSQWCIBPwEXzpPDM3EGGXycC6HiF5i5DNu8AUg8qMiggBmd/UV0sZR/Sd8S4slG+g4aUcM+jC90sdgoUB3wTvlzLt4zdahYLvkG+ejh+dUNUUav1l5I7mneVf7lRCnvmdWi0HDFDSj2CJKtpj2kW+NwQ5LHEYIGKAmHYPbRJmpdQZeg0fPQ50Xvl+ceZ25513yt/UMfRj6PzzN+lJ1dH2rwUaDwGAAVfaahzNUHdh8sp9sG4oZ/SdFCswjYX3gDBdrH4J9wXeJ30jhDp8XtBHw2cE/SbVDrO/1157idCKogGhjf4fZYPf014xaEhftUuXLqIswIqMcwiOjzzyiDgBRLtNPxAFA4Iez0zbRR8aYZS+G31CBjzp/zJ4Tx+Ufh1KBsq8CqJc2w+alw0hqi3lb6zesMrjeXGo6FvpxJ3aKWehEOTTQsE/1voUEMnkAnbMcqdWc1gb4keh8yvT9eP3vuoHlSyCOQ0Jla1RvtAAM5cIx0d04hjJj0sZZjAMbQEjuXRW119/fTleKd9RMaFTg5DPHCEzWc8dOtBoC5iHx8BlOYEHUDrTaN+YfqHw7dOhpj5nPWI62PgMYFCVzrE/J5AONlMiWBOY6+APgEFP5sjzLeIdEa0imhqsmtgnLnOQ+V4pfwxE4ySOe2EFEGU1xOA2Gh0EBs5RVhFG6dyjsWGgGJ8EDMhyXzrmpAdHbgwelxM8H9NyMJ9FmKHTX6x6DX8TaNQQvNASKoW6P89K4Ppo7hjsp5ygheYdIxxiDYIndt7l2muvLeUW7R91FoMJKEj4DXmFIMnABZpmoExRXvF7gRUc7RjlmcFEBjoRqrB6QWmAEEz/Rcsv/RgGHFGKUL4o56QVQXWnnXYSLSTCaaHR/FHwA0KZR1uIhj5f9faUKZODZ/5XsNdw8SzKgQwCYBQmEBaYcAEy4k2lvC9GanFbrnNOjPJFR1xpdOiI0ej41XYpyyvpoBNOR5K5wYzultNIaZzQuseEwdxQTQCwLVeBkOkNdIyxrAGehW+JjjfCIp1oygcaOOJiZaRxKTN01NGoUO+j5cNiBmuZsEBIB5yBJSxjEDYZyCEPw+WOqS5o9/y85TpRAiFmc0yB4W/m8iNAodVEuMTTKcIrg0UIOeVUvnkeBEK0YKRb86BYcD+sqXjPxbovZQErKsoXS4XhRAUQ+DA7Zi4r7xWBkffOvFfKKYODmAejKaSMsc9gIf4dtIxgFcfgAWURizHMk7k+52nnWDqJKUUIngx6oIVDg00+IBijRcSUFo0h+YEGGr8VmG4ytaqY74Z8wpEimnXSgKYyX/c3gdAwYkCxK/xCQeVKB0Ed+BjlC6ZXmIJjJkOHj8anFJ2TMNyf8kXjjUkYHQA6CXQO0DYYuUG+Yf5neZc7lEW+EQbA2ObiHC0OIBAyzx8hDXNwBc0ImjYfBDU62nRIo6BDjiCHhjBKIERDyDmEM3wZaIefOkUFQ/IT03TVEPp1DZoftEJRGkLmUjE4RH1AuqkTMCdkrhnXRsggfrnA8yEQMs0Hp3gIKBwrBkwTwjEPppaYRxarrmeAjzLGvRHmcWoDCIJokyk3aJbJD96vX9+zpBflhmXWKCdqJso7pxwiHLJl4JB9tSjhb0BAZCCD3yMQcj+uR54jeCFoUoaYR69lEk0iaUJbWCy4N4F1rRFY+R7w8ZEvSiUQ8lCGYSQIGq3EnmHEg19//bXmwQcfrNlpp51qevToUfPEE0/UBA1w4mzp+Omnn2pOO+00SVPQINZMnTrVvh+jJPA9BEJOTffu3WuCjmziaPkwYMCAmkAwqxk7dqx8Q+lCIPDVrLjiijVBJzrx69p2yw8QdJRrtthii+TfHTp0qAmEONkPOvM1K6+8cs2MGTPkb/KPeNQ1gRAp+4FQQK9RzoNep0WLFjVXXHGF7HOMOIFgKX/vsMMONY0bN64JOuhyTn+z2Wab1QTCQ/LvcoH07r333lLHzZ49O3G0OJDH3bp1q3nkkUfq5GUh0Xuce+65NYGAXxMIh8m2JhDqa5Zccsmazz//vOaVV16pCQT9mjlz5sg54LeUSbb8pnXr1hJPrzl69GgpK2PGjJG2IhDqav744w+Jq+VP43J8zz33rAmEQPmb40OHDq1Zfvnla7788svkMcor3/xRRx2VTGex4H7kE/d/8cUXk2nPB5Mnf1Pz/fffBWFqg8OMmd8tEKLiEcw2xTAMI8YwQsuEfpZnARxIMGE/aDfkb7a6XyzQDOKQitFaRonRcKgZj9Ewiv0uKwHKHflWDeWP+VV8f2GvjDiZw/OievNMp4ljDhbOadD0+PnGN7399tvLMhHAccwlFb53zAVVi6gEnWPZoglEU6iaH36P8xtd/snKdvbwnsln1qPGDLcY8B4DwUamJ/De0AryN4HyhgUD73SjjTYSzSDz5xS8jzKPjvmjWCilg2VVWA8a02UcJ3F9yjSmyDyvX07YJ12B4CXXZa6sgsMl5tejTSym5pk0sSwc5Zr5k7H200BWhkMKTCCsWHjrmJREhTQlosqphg6FUZ6wNIx6VMNDLx4GaSAps4Uut5j00AgSmB+EAIiZDnO1MB1jS4NMevzG3Mgdq4Nyx/8GyrX8aSdanyUcgGdD4GIuFl7BqQdwtoHpGt4XmdNEZ5sOtnbu9bvVwDEENjr9mLnhpANBD2/omOrh6IO5jHRy+aZZFgCHH8zhYr1gOsD+dX1wKoJQyKAV12SNNuotzN2V8G+MaPDQjqkoZrjUtVoGCgXvBSGP++BIpk+fPvLuENJw3MIazxoP01mcxTCXlSkMmHVSNvBcz2+Z8xguH5QZoFxSri6++GIR7vg9ZQzTUpzZYGqqc2PVkzbpYmkU0oC3WrzCky7KKibSfBPFKFd6D75VTNMRZhHcmYdb6PcTBXfMFIJELxhSYHMIKxJeaabXmiwuhmHEHK2m2eJkgDWamF/E/BY6gkCjCflqmLhX+FoIg3QEGJVlThIjvKoZjIpvGMWCuUfMe2LuVbk5lUGww4X+iy++KJ4Wo9AONd8Y2hjmHGIpgPMWHHTgwZFOPOsK8i2GncqgYUFgo/NNXcE1mCPIHCjyDY0NGh462DjpUA+XCIwsUI/TGK6Pl1McfzBvioEiBBcGp+iUozXp16+fCIJokxBcuSYCBHML8RqpXlR5nmJqdeoD+ahzCHluXRy+GCB0MIePssGcWOZqk9eFgmf163ActiDgoSnkufF0y7tEQMXjNXG/+uqr5PIiOJfBc6jOeaUs8zfCEu+ZPGQpCeYF6hxAlpRgQOO3336T37N0WuPGjSUNCIfcB6FYIU+YZ0j7wzUREhFAKc8MVBQa0oxAy7Px7ZAvrHnN+yE9fv41hGznENb3TqmuagJhRcIrzfRaKUrWeTOMckI7UYyU0lGgIaZjhkkpDZFW5w1tlPQ62sDRCNJB7N+/vzgrovPI+qgIg6Adu0zNST4aS8OIolwFQv9b0+8oCr59vp/wN0QnGU1KGOIT9BzX9+NyHb23vw96D44R9G/qAUWvwz2AOGhMUnnEDF/fv25cIY2lEgiBvGXQDdNNhCWE7UKmQd8lghsDFAg9CF20MwwEYtaJN0/VElOe2PffI8f9v9nnWLhs+2UrqhyErwP6t/9btvkUxjLBIAveThkcZRoHS2swMKLaVWhoOkolEJrJqGEYRpmgDQ3uv/EEx9+shUQnWBvzhkLDSsdPG1rugTCIK3uEQTomCIN0uv2Gj/vzG4JhGPmFb42g37lu6YhGfXN8u2FBUbUo+t3qlt/r9fWY4h/jmtzPFzL982rqF1UP+NfNV11V6ZDfaHTRDDJfDW0t2rRCg7a3Z8+eMicVzTKmo7xzTIr98sYx/72Cthl+ueBYGP98FOHrhOPq3+FtIdDnZc4i0yWYf4u5KuaiEBaKyxUTCA3DMMoMGijWbGJNMmAOEWZaKsg1BBo2Gn0aZDpumJYxWowwyBpkjFgjDPr30X1txA3DyA6+l0zfDJoY4uh3xnepf2fz+4bWCflA0wxWT2QPc0Kp5zG9xGELAiJaKp98vV8tS0xHYNDv3XfflbmgCKPM3UNbqO+OLaEh6P1yRX9X39+ng7z085N9NN+so4hmELNoTKExrSafwvHznZ5iYgJhRUKBTFcoM503DCOO+I0No5LMCWJCPw0zmsJbb721jgOYcGOVLXofTKUwFWLuDwtjDxgwwK288spyTs3HtFPgp62h9zcMYz6+po/vrCGdzob8tiFQT2hdYHVC9vC+mBeKE5Y111xT5u0hrL3yyitJTWu+8lPLVjhANbwz8tMvowSEwaFDh8oaiHjfxQsvbS7zYhk49dG8KldMIKxYKJjpgmEY5Yrf8ODdjVFjRiufeuopmeOBRgH8Bj0XaBiZvM910Qyuvfba4tWQCf/A9WkMuXa4o6D39INhGA2n3L8lqxPqB/mFdQZCCc59MFnEycwVV1whFhzU1xpUkMk3lfzONL98jSfzJsePHy/CH95Qae9YroW/0dYWIo+LBW8yKphAWNFEvXKCYRiVBJ7baKgQ1PA8qA5n6ttoff/997ImGeYxuKhn3gSe4XSOkDac5dwoGkY5YsJU9YLXTcz3jznmGFmflnUk8fzKeoC//PJLIpZRX2jPEKoxyUX4VusY1trFOob1DrHMqdR2zwRCwzCMMgftIHMK8QJKg/X444+7e+65p15CIZrBs88+WxpF1oQ644wzZEQUszUdhQY6plxbO6h+R5X9qGAYhmHkhl+Hs0Zkr1693ODBg93GG2/sfv75Z/GAyrp8rEPJ8hAMDPKbShVcGoLmSzh/aCtZQgPPqscee6wbPXq0tHl4mcWZDgOj/M1v/Laskto3W3aiokn1aq1jZhiVBlU58x3efPNNGdnExAUPcSeffLJo9nxzmCgQ9HDbz28xE9XFr1kfShs8bS608Qs3joZRKsp5HULg+8v0jSp+ty2b7y/83fpke459AvsaV8+nIuqa5QTPV8plJ9JB2tAKosF68MEH3dtvvy3HmeO9wQYbuJ133llM/SHbclVtkIfMhX/jjTdkfV/WXSRPGzVqJJ68d9llF6lLyD+dJhGmEGW80MtOpMIEwoqF15rq1VKMyruiNgxjQajOaaBY1Jc5Jowe77nnnrKgMFpECDdg2gTgrACzGOantG/fXrSEmCjRUVWnFsQlWAfDiBvlLhDqt5sN+s1CNr/R+MQN38c/5xO+R9Q9/WNRhK9ZbvB8cRUIFdKIUDNu3Dj3xBNPyELyCDVoEnFGgxMUFm+nLo9aHkHfYbm/q0zwnPqMtItoUskz1vSl3kDYY1pEx44d3V577SVr7ao1DO2d//tCM2XKN0F7zfSMDN9XYpsvTCCsSHilmV4rRamyKwDDqGYY9WTtQIS5zTbbzJ1yyiniGQ38ho0mAPPQCy+8UBpG1qA68cQTpQOh5zW+NheV3nkwyo9yFwjLAb8uSEU2ccoFniXuAqEPFiLffPONzC186aWXRPDhXWDy36pVK9EcUr+Hv49ctNPlCs84ceJEMQVloX/qCtZ05B2vscYassB8586dRSgkz8iPcDkuTrmuSWgIa+fr83cq8p0aEwgrEhMIDaOa0Wr9/fffF+cws2fPFhOiww47zC2zzDLJhk0bScxE58yZ4zp06CBOC1ZYYYXkeeJqfK5bnEbRMHLDBEIj31DfqUCIs67lllsucSbekO65c+e6ESNGuNdff91NnTpVLD+ouxkgxGPpJptsImscYg2y5JJLJqcGVAIsvYRDNBX6WEuRdQR5j0Ae8Oxt27aVBea7dOkS2c5pO1rUfAnu+a0IhIsjoenBxLawmEBYkfBKM71WCrh17AyjEqFaJzDKyZxCNIWAppBFjlUoxEwUD6LTpk2TOYNoEen0FNtExjAaigmERr6hDtxnn33cTz/9JBrCZZddNnGmfEBrOGvWLPftt9/KwvZMJ2Dwj2djbjnPhOazRYsWYi6JkMR6h2FvmnFpC/w0gQpuaEMxl/3444/dJ598Im0axzCfZWATIbB58+bikXujjTaSfYRg4Pf6fHo95gySB0VFHs0TCIXgYFIwLCwmEFYkvNJMr9UEQsOoVLRa18YNExncaNMxYDF7vKipMMhiu5jKMGcQ06JUcB29nqKNqGGUGhMIjXxDXYdAiGbpySefFJN7rfO0PiwXtN7+/fff3YQJE0QwxCENc+kQeBEcmYtIPOYfIhi2bNnSrbbaamJGieDIUhdoEzmP4xUEJjWtjMqLcB5pGhTO+cf0b/83aPvwADpv3jxpq9jnGWjLWIMRQRfvoFOmTEmmn3SRPtLM1IdOnTqJFpDlI8L3jILr6Dq7SjhdBUGSZQKhkXd4raleLYW6wAXbMIySodW6Nn40cHQCzj33XBn5xMkAJkQ//PCDmMyccMIJ0tCHG0FI10QUvIE0jCwxgdDIN9R9KhDef//9YmaocK5c6j9NK1uCzhdEuEJbiBYNrZqvXUOrBhqXtoE2AkGFoAIXecJAIsIyQc8TVHBky2/ZR8BD+ETAIyDcEdjHzJU0EdDu8T0jsHJc43FOhVcC8GxoO/GqitCHMx3mBaL5JE1oB4nLVvMg6t3p8XTnCoo0tdkIhKna5IalzwTCiqYwhcYwjPIgXL0zlwLvoyw8T+OG6cxZZ50lJqR0AGj8tQMA/D6qifDjGEYcMIHQyDfUfQiEDJwh9LAMD5omBAsVHPz6kf1yrhu1DUBAZOkh5h6igWPwkGPMx1PBjL8RzMJ54KPnCOwr/r5/zr+OHkMQRThCoFQNJX/zPtBcosHExJXA8VRpyQU/fUVFkp5JIGQ/1TOS7vqn3QRCwzCMCsev5tEUsvguC+0eeuihMmob1QDyG4LfWOt+yRpMw0iBCYRGvqHOU4EQYalx48Zuv/32E4+UPlq/VlK96Nf/bNV0EyGQgHCIqSnOW9AyYs6pGj/iITD6WkDdosnDpBPhDs0hfyP8sM/AJFv+Zn/11VcXk0/aKI4hDPJbAr/T/FZtZr7yv2TvUYqRCYSGYRhGAdHGXeFvPUbQ0eHwuTAlaywNIw0mEBr5hjoQgRAvzd27dxcHXZgvHnTQQa5Xr14i1IDWicSHcq8jmVaAFhT0mYDn8p8xVRuhpDqfbT6F4/l/++0VZEpLWSCPVzqB0Ox+KhotOOFgGEa1Q+PpN6BhU6fweSj7BtcwDCNHED6OOOIId8ghh4gJ43333ScOuZjfpkKKUgl1pAqDiv9MfruQ6VlTnfevkY5wPP/vcjbNjSuWoxVLWAgMB8MwqomoBjjc4Cr+cd2PimcYhlHpIHxgoohWEEGQuWvvvvuuGzBggJs8ebIIjASEQw2Vgt8OxBlrnxqOCYQVSSahz4RCwzAMwzCMTCAQqsCx6aabyhI+LMvAcgdnnnmmGzduXJ04hlGOmEBoGIZhGIZhGBlA+8cc1euuu8716NFDHM7guZl1CnGsUknaQaO6MIHQMAzDMAzDMDKAwxU1IT355JPdYYcdJh43r7/+evHejJbQNIVGOWICoWEYhmEYhmGkAe2f73CFJRL2339/d/rpp8si7SNGjHDnnHOOLOxuGOWGCYSGYRgxpNimR1H345iZQBmGYdR1tuWD6SjawTXWWEPmE+JsZsqUKaJNNIxywQRCwzCMGJJOGMu3kKbX03uqxzwfPRcOhmEY1QwLpTOvEEFw3XXXdZMmTXLHHXece/XVV2VBd6snjXLABMKKhBGsdDbsmc4bhlEqshW0ENoKASPgusZTqhHx8HFNs3V8DMOoVlZffXV3ySWXuJ49e7rff/9d5hU+8MADibPzB94MI46YQFixqNCXKhiGEUcQtEaNGuXuvfde99lnnyWO1oWR5zfeeCPZwfA7GvXtdPC7v//+2w0fPty99957ko4//vjDPfvss+6LL75ICoG+IMg+vwsfNwzDqEaWXnppd8IJJ7ijjjpKFrGnHh80aJD76aefkvWlYcQREwgrGl8A9INhGHFDOwp4rDvwwAPdIYccIs4Kohg4cKAbPHhwxs4F5zVOJo0inRXcpvfp00fMnYC/+/fv70aOHCl/h/GvnykthmEY5UR96jTq0cUXX9ztvffeyfr7+eefd8ccc4z79ttv69SZhhEnFgoKppVMwzCMmICGbtddd3Xbb7+9e+aZZ9yHH37o2rRpI6PNqoXj/HLLLefuuuuu5DGqcoQ+4ikc4zxbzEC1uvd/o+d1i3aQDk379u3drFmzJB3HHnusO/LII+U3UagrdjU1NYxic/DBB7vvvvvOHX744a5x48aJo4ZRf7CYGDJkiJs7d6577LHHpM5Nh1+/UidSF3/88ceiIfz666/F6cypp57q2rVrZ3WlsSBSfGrct1MmSxtcS3BwIV9MY9//26dhSh8TCCuadIXGMIw4cvzxx4sgiFZuvfXWk5Fl5qWw7pWiAuHdd9+d7Hy89NJLEm/y5Mlujz32EM1ely5d3FlnneWOPvpoMTE94ogjZE5L586d5TpU/2effbb8Fu94CJSYOjVp0sRdc8017scff3TbbrutCIT8VgXJG2+8UTSUaDN32mknuUbz5s2TWkjr7BjFRgVCsPJnNBTqMl/Ay1UgZF/ryzlz5rjLLrtMBttYquLEE0+UetUw6iDFxwRCI+8UrtAYhlEYfvjhB/FSh7C18847S8fhrbfecq+88kqdzogvEFKFX3vtte6CCy4Q4WzTTTcVoXD69OnuoYceko7ImWeeKdfg/GuvveY23nhjuQ6/ReBEAKUz/eeff7rdd9/drbTSSm7o0KEy76V79+5JgfDnn38Wc1a2HKfReuqpp9wvv/ziXn75ZfkdaEfIMIoB5Xjs2LHyrbCv5c/K4YLwjTMHmXzaaqutREAx0tO0aVP3n//8R7yJQi7lSssjg3ZoG5944gkZ3OvVq5fbd9993TLLLJOIaVQ90mUvjUAovwwKa6orG2VLugKj1L/gGIaRfxiRRni78847pWO7/PLLuxkzZri11lpLhK3NNtssEbOuQPjVV1+5ddZZx51yyinu0ksvTXZacATTtm1bd8UVV7i+ffvWSyBE8OvWrVtSIETwe/LJJ2V+jHYkSSMu11944QW3zTbbyDHriBulwDTUmUFbxTfPt37rrbeKNQDYN5saypWWKRXwskXjs8UElcXrsb7getTp1KvUn35co0qRbnuJBMLgklZrGoZhxADMM3FTjstyRo3pHDRr1sztsssu4uiFDhzHtNOrTJgwQToaCGmMPNOhILRu3ToRIz9wzWWXXVYWYX766afdTTfdJFsEQ9+8yjBKBZ1s61Cnh0Ed6gu+ZQaPtL4wUuMLg7miectvF110UZmTjTXHCius4F5//XV31VVXybqFGsffGkYxMYHQMAyjhND4E0aPHi0mmsyF8ju2e+21lxs/frzMP4Fw543OHay88sqyVfLdqeB6aAMxZaVDg8c85h1iSmUdSiMuWFlMD/N+CWggGiLoGLnhl0s0g8zDbtWqlfvoo4/EpJ+tYZQSEwgNwzBiAKaYLGaMIxi809FZI6D5Yz1Af4FjHxUeMe9UCtHB45oPPvigpAUBFfNWnNjccMMNcs46lYYRf/CYybeKqSgaK6M0YPJ/0UUXyZxv6m7M+jHdVwsQrVOtXjWKhQmEFQkjUelGSTOdNwyjWNDgT5kyxd1zzz3idGD27Nl1Aks/sC7giy++KCP7YViSAoHw0UcfFccFysyZMyO1JRqH+yLcYaqaDVzrm2++kfmKaBf4PdrJli1bJs8bhhFvMBll4AmTUV2ixr7dwhOVx1h14A16n332kSkBLE/BABv7igmERrEwgbBiofJJFwzDKCU09AQ6CngJpXOA5046aowe41SGgIc7lqJAGGONwnDHomPHjrLsAyZI559/vnv88cfFSylOZvzOBIIb8/3OO+8898gjj4jzGq777rvvJmIs2PkI/422EjNR7sUW5zdXXnmlnAvHNQwjfqCNQhBcaqmlTEMYAxhcO+yww2R9Qup7tISXX365OPliwM2EdaNYmEBY0fgCoB8Mw4gLzMXDFHOTTTYR757+/EGFReI333xz169fvwUEL0yMLrzwQnf11VfLdZjTh1t5zDn96yAQ4mkUDUHv3r3dfffd50477TTxDKrzEDPB3BcWw8ehDMIrHRdcpxuGUR5gOQAMPFE/UJ/YYE7pwQM09TuMGjVKHIlNmzbNBEKjaNiyE4ZhGCWEKjiXRj+X+MRjoXlMUQtd1WvnUvcNw4gfLE3D0gc4Mtluu+3q1Av23aanUPWb1ulsWUaI5UCw3GjevLlMF9hwww3FI6zGMyoUKV627IRRELTghINhGIZhGNXG//3f/4lVASajgIChwSgNmvcIfGuvvbZYd2y55ZZiPcI0gGHDhsl5e0dGITGBsGKJEgT9YBhGHMi1kc8lPnGZl2IYRvXie6789ddfxSwd7ZMRL3gvwNzOs846yx100EFSh2OiP3DgQDdnzhw5z3s0jHxjJqMVSTZCH51KG20yjEqEap2OxLx586RzgbmRYRjVDfXCnnvuKZ6Fn3jiCde4cePEGSNuIMQztxvTUeZqI8ivv/76spC91u9GhSHd9uxNRhcsAcGRmvqXC9MQGoZhVBh0Fug0LLnkkiIQ2rifYVQvfP8EHEr99NNP4lDGhMF4Qx2ON9iNN97YDRgwwLVo0ULWf2VOuC1ibyTFPpUP58uJ9YLrmUBoGIZRofiCoAmFhlGdIFygbWJdU8CbsdUH5QHvrlOnTrI0EWvAsvwQS1SMHTs2EcOoWoJPGEEuHwFMIDQMw6hA6EiEg2EY1YdqCL/44gupB1jz1Ig/fp29zDLLuAsuuMD17NnTLbbYYu6yyy5zDz/8cOJsLSbkGw3BBMKKxJf5o8h03jAMwzCMSgHT8UmTJsn+qquuKlsjvviDeLpAfZMmTUQ7ePjhh7vffvtNlhM677zzZH6hjwmGRn0wgbBiUaEvVTAMwzAMoxpAaGDJCWjZsqVsjfiDIIgwD+qFFMdA/fv3FwER01GWpkDYV0HQBEKjPphAWNFECYIEwzAMwzCqBbRMzD+DVVZZJal9MsqTrbbayl1xxRUiFE6YMMGdeeaZIhTindTerVEfTCA0DMMwDMOoUBAQ0C6hJUTbhEBolDe8z1atWrkbbrhBhEMcBvXr18+9+OKL7q+//krEMozsMYGwosFsICoYhmEYhlEtYEaI9miJJZYQpyRGZYDH2GOPPdbtvvvusr4k3kjvu+8+EQoJvHOjTMiLYjeqz59dMIGwYol+4fODYRiGYRjVAGsQ/u9//3NLL720rU1aYay44oruyCOPdIceeqhr1KiRu+eee9yVV17p5syZY+aj5Ubwulhbvn7ry4f7+bkFEwgrEn3Bqch03jAMwzCMSuH333+XeYRLLrmkmBuaoFBZLL744m7fffd1F110kVthhRXcyy+/7M455xzRGhqVAV+sBsj3F2wCoWEYhmEYRgXD/EE0hKxnt8giiySOGpUEgn7Hjh3dxRdfLIvZ42SmT58+4okUjbBphcsXEf5UlxOEhQrwKk0gNAzDMAzDqGBYt445ZSYQVj5rr722LGKPUDht2jRZq3DYsGGiIQYVDk1ALCMSr8rXEOYbEwgNwzAMwzAqGOaToSFs3LixzSGscDAHZq7ogAED3EEHHSRmwjfffLMbOnSomzdvnpkLG5GYQGgYhmEYhlGh4GkSgRCTwuWXX14EAhMKKhveNYLg/vvv744//ng59sADD4i2UJ3NWBmoZBjwySYo5lTGMAzDMAyjYkE4+P7772UfDaFRHaAJhm222UbmFTZv3ty99957rm/fvu7jjz+Wc8XEzFSLTZDXTDaMCnWEwVpMIKxIMlkZZzpvGIZhGEapyVcnmoXL0QgVUiC0Dn/84J0zZ3TDDTeUNQpbt27tvvrqK9EUTpw4sWjrFGq5MK1kEckkBoQwgbBiUaEvVTAMwzAMI04UQqjiev/3f/8ngkHTpk0TRwtHIZ6h2shn/iGEcT3WK7z00ktdz549ZYCgX79+7v777xeHQ4XEykJ5sFDwouxNGYZhGIZhlADthvnaE79rhndQPESyRaPD/ty5c923337rpk6dKvsa6NyzxXmIHvv5559lCzgbISyxxBIyx4x9PI+yT1hqqaXk79VWW82tvvrqYna42GKLidkp+wiV6pRG00uaOM+WY6YFajhRZcKH85QHv2ywRfCnXLD+IGWBcsDWLxeEmTNnypZ3xhqGlAMWtdegZYF9tvzdpEkTKRcrr7yy/EbLBFsCZUPTzd9h/Gfyy4/hU+OmTJks+SuWnQmzz9r9YFdMPRN/pKX2d2mpIf/1HXAPfUOGYRiGYRhG0dGuGB37KVOmSKd+1qxZ0nH/4YcfpEP/yy+/uJ9++km2utB8FCqc+XB9AufC3b50HXOEARzRsCUgFPA3msZmzZq5Vq1aieAIJhDmD31HuuWdf/nllyLwUS6+++47KROsL0mZQOgn+GUi/J7zBe+Z97/ssstKmWAAgX0WxMckmW3btm0lDkKilolcyl31YgKhURBSvVr7CA3DMAyj2GiXiy0amj///FMEQJx9fPTRR+6DDz5ICnMaVzVzqp3717/+JRo+BLFVV121jmaHDrruE0ePoeEBBAg0RQiUbFV7xN++NgnNI0IpS1UQSBPCBvsIrX5nnvSsv/76bt1115Utzkvo0HL/sCAQFgI4V22CgeaHPrfmAVvyVt/F+++/L2Xi3XffFadA4XykLGjZ4B0AQtgaa6wh5qG8e9X0aRnQsNxyy8n74fdcl3euGkT2w1vO4Z2UcjF9+nQpD5Rdv0z4z0FA60h5YD3EDh06uFVWWUW0zZQN8J8nTLWVifmoQLiYyHOJEiJhfo6kzrf51P4mPVxRr2oCYQWTrjD4hcAwDMMwjEKgXSy2dHInTZrkJkyY4D777DNZNJyAhkc70nSY0bytueaassU8D40cnWs69Whi0MgQCg3pUUEAQRLBgLRijkiYPHmyCI0IKwgIBAQMtIgIJDxDu3btXMeOHcXUkPOqodQOv79fLfDMuiU/0OzpYAB5SpmYMWOGCFkaj3e/1lpryQAA5YL8VUEPrZxq61RILBSkhcAcRMoD5UIDmkuERcoD5Zw4+gwIrKRZy8U666wjwiJ/Uy78MqD5Un3U9tu/9QTCWhAGCfpXNsyPlf7rmn9VEwgrktpClR4KQfpiYhiGYRhGZrQr5Xds6ejSaUarMn78ePfSSy/JvsZFU4Kgh9CH0IQWBS0bmh01tVP4TVhwKmT3jXvpPf176z31OAEhEYEGr5U8J8IigiQaJO3YY0LYo0cPt9FGG4mAi5ZKr6nbSkcFH8w/0aqh+Rs3bpwENHFAmVDtKsL0Bhts4Nq3by9aV53LGcZ/P6VGyweaQwYSEHI//PBDCfytzw4IiTwby2IgHFLmV1pppTrPooMIlQ/5VhsQCJdYrFaLiiBYe5z9Wmr/yh75XRY/MoGwIplfgFJDEYlHBWIYhmEY5UpYwwEISKNGjZKOMFqfP/74Q46jEdFOPlozOvrMufJ/H9W5165aMTv+2hmPer5U0NlHU4SWCE0XprAIPggCdPgRdNZee20RfLt37+5atmwp1/aFmvD9ivnMhUDfHXNB33jjDREAv/jiC/kb0OihMWNpCMyACQwSIDSrMJTq/ZeiXGRDOF2Ufy0X33zzjZSLd955JzlooBpQvo0ttthCtIhcg8B5vZ5S7mViQXi+2mACoZFH5heg1FBEKu2DMgzDMIzioh1XzOYQBO+8807p9AJaHbSAXbp0EU1I586d63Ru49yxJZ3pBBB/Px2YDSIIjRgxQhZEJ58QEBAQmV+23377iXMazB59yrnTr3nHc+IA5umnn3bDhw9PPjcCUIsWLVzXrl1dt27dxMxW8fM2TLpzqYhDPpJmzRMFLeLo0aPdK6+8kiwXOhdx4403dvvvv78Ix5SLqOeOw3PlD56tNphAaOSR+QUoNRSRSvqYDMMwDKP4YAb6wgsviNCDNhCNBvO8/v3vf4vGA2EHM0mgE6saMLpfqgGqRHxNnz4vXjLxlomWDA0qZoSYDiIcbb311m6nnXaS+ZGVkC+YCL/44ovu888/F2EHU1BMIykXmIPiZIVnJ28QhHhm9jWv8oW+g1Kj5SGcHp4Vb7osmD927FgJzKskP9Amb7nllm677barIzRDXJ4rP2i/3QRCI+/ML0QLQvGopA/JMAzDMIoDZpF0RjGDRBB86KGHZJ/OPaZ+vXv3lvly/jzAcFdL/47qIFcaPGv4GTmGN83HH3/cPf/882I+yTw6BOmDDjpIhAB1nFMO+cPzoPEifPrpp27w4MFiFooQhOfPzTbbzP3nP/8RE2GOqcAbLhc8q182Kg3/eaOej/MIxw8++KAI0wwYMB8VU+sjjjjCbbLJJqIx9POwMiBfaoMJhEYBSPVqK6+SMQzDMIxCQ5cJQQbzv6eeekqWjEDwQ7u1/fbbuzZt2oiJKJ3abAXC+lIuAgPPmiqtdOzRnmEySH7ilIa4zCHr1auXaNN0mYI4wzMiCN52223iQZYywhzRXXbZRYRBtIEQzod8lINyIl1ZAM4TKBcIgswz5FtjC8wz3HfffaVcFNKbavGhHNQGEwgNwzAMwzBihHaR6MTSScUpxnXXXScdVOaBodE65ZRTxASQOBrf114UqptV7kKEn7cI0GjX3nrrLTd06FARtOnwI2gfeeSRsrRC+Hnj8vwItMOGDXMPPPCACDGYNiII7r333iLM+uVCn5XBgmIRl3zKFc0ztsw1vP3228W0lHKCBv6www4T7WtlaAp51tpgAqFhGIZhGEaMoItEoNP57LPPurvuukuWVcCEDacXW221lWgEFe1SFaMTXq4d/VRo3pG/OKB59NFHxZSU+YVHHXWUmAv6lPL5SSv3R0C59tprRbOJA6GePXuKMIh2kPMaT5+tFFRKOcEsm3Jx9913y1InOJw55phjxAENz1jez0n5qA0mEBoFINWrrYzKwTAMwzAKDWsJYs6I91AEQ4TA0047TQQA0E5/samUjn4qcCxy6aWXurffflv+PvHEE90OO+yQNCEt5fPzzlk64YILLpC5jwwQUCZwIuSnS8tGKbvalVJONC9xTHTFFVdI/jNvFw09mmSWNClfKB+1oVQC4SIDAhL7RkUxvxBFUxkVhGEYhmEUAu2A3nrrreI4BhPRQw89VJzGsEacUqoOd6V09FOB4IdWEPNK5uVhpku+s4A/lPL50QgilKCpYt28/v37i0fMqDSV+j1VSjnR5+A73HTTTcWkGMc9eKylrFAu1FtrOfNzUKYWXaR2fqT/5ur7FrP9nQmEFUkmYVCpjErCMAzDMPINi2ZjIorHQzqh5557rtt2222T88JKHaoB7egzVwyNEEt7sIQHzkWKOQ9PYZBgwoQJ7uyzzxbHMTvuuKNoBpdbbrnId6LH/PdWzKD4++UO7wDtPNpYPI5SLt58800pF61bt64YgdB/Y6n2syHb+JXks9UwDMMwDCMv0Mm87777pKPJ2PlGG22UOFPrHdMoDpgFsj7h8ccfL4I5prs4nSk2CCJooNAY49gEYfDYY48VodXKQ3Ehv3kfzNmkXKA5xukMaz5WEgvVeAKdp+vhWDg0FBMIDcMwDMOoeuhgEuhsMi8M5xVoVlj+oHPnzolYtcRVC0H64ZJLLnFdu3aV/ULDuoxo7ApN9+7dxTyTuYUIZWhwiwnC4E033SRCB8tI4FQIQYQyogJKMfHvh8Oj+++/P1mGSRML47PPchhot8m3TGACe/DBB8uaiTxvXEE7rM/JEhSsW8k3e8cdd4jmVvOBUK4gDAps/cfQv/2QB0wgNAzDMAzDCNAO5GOPPeYmT57s2rdv73bffXcRAEtldhfXTm2xO9yYCeJVsmXLljKHb+TIkYkzxeGrr75yL7zwgiwrceGFF4ojGdUMMp+tFO+JeyK4XXbZZW769OmJo84999xzSQc3aFT5G7J5Z5xH4NJnShVKjX6PaGjxQos3WsxHX331VTlu5IYJhBVJJgVypvOGYRiGUV3QwUTwYymBhx9+WDrFJ510Up1lJQqBdrDRziDojBkzxn3yySfujz/+SJ5HG8axsWPHShw8Lfodc9bCe//992WO3XfffZeTCSOaow8//NDNnj1bHLdw/6lTp9bReqEFRCDCjJZAHum5YoL5LguTw/PPP180LSHPSr6TD126dBHhI/z8xdYaq0CEw505c+a4SZMmiUCEgEiZpfxSpjCvZX1EyoaWEzW55RkI/I4ypQMf+u7Z55kpe/ye31JeOB5+/lJBWigXBx54oOyzJqSWC/6uLMjzIIgtqReCY7UeSeuSy9ObQFixqNCXKhiGYRiGoWjnmM4yS020adNGTCGL0alkvT1MEA855BB3yy23uD333NP169cvKdidf/75bq+99nI333yzO/roo2X+2sSJEyVtpPWAAw6QhdBvu+02t88++8gC79nCdVg7b5tttpFlHi6//HK3/fbbu48//jj57EOGDBHX/py7+uqrZe4WAmIpWG+99URLh0ZsxowZiaOF59133xWBCbNVzZdiC4FRoBH7/vvvJX1PPvmkCH+YUSLAIrh/9NFHIuzhKRfBES0r8+18gY5F3ocPH+6WWWYZ0cSqwx7W/jv88MOlTFEujzvuOCkHmKGCfjPpQr4h76O+yXXXXdc1b95c8mLatGmJoxVIQgBcMNTt5SdzqPZURkwgrGjCRUODYRiGYRg+2tFkYXTANLEYcE8ELTQvo0ePFs+mmPnde++9orm54YYb5O+hQ4e6e+65R9zsr7/++qK9RBNy4403SqcfE0o6+vwOTU62INSgEWSuJKayrLnYo0cPEQoRNhFWzzvvPAmPP/64eF3lHB5XETCKDY5lEAgRfEhfMcCJDEIGAvqaa66ZUigpBSeccIJ410RoY11EPG8qDGrwrkgzC+izmLuSKv0IcTp/ECGQuYgIk5Q/TGbx+HrWWWeVfI5h+B1QLkgbcwkZKOBcIQTSkpKpyPnyoYYsMYHQMAzDMAwjAWZ2dCbpXBajU8n10fyhudHOPE5s0NjgvATzVRyqMCcMEOBYD5EF23Fw8sgjj4jWZuWVV5bzCLL77bef7GcLAgMCpj4rwuGsWbNEsOT6q622mmgvyQ+0R5htMscS4bSYkD60WHT+cR5CKDTckzzHpJbtSiutlDgTD9S8U4MvJCkc848j4BI3Ezir6du3r2vXrp38Td4jDH7wwQcikOt104VigWaT74dno2xCMe9f7phAWNHo8EA4GIZhGIYRBZ4j6fijsUMLUuhOJZonOueYuykstdCxY0cRfJhLiBCiZnzE5e/GjRuLQMa8sFVXXVXSTFpJc67aTeZg6e8J6j2Te6MVQuOCe39MBglXXnmlnEd7WGxUEMTpCflUaDRPmJfHfDoGDOKEpk/3fVRIjBL+wnHD8BsGBRiUoGwomBZ//fXXoomLE5R7NMY8F+XXyI3kGw6LDBqMciXqbfrBMAzDMIwwusg4nWGEjkKzwgoriOAVtSyACoFhTRhCIIE5jqTRd/LCbziXC3T4fScyPmuvvbYIpzjt0IA2k7lrmCMWGwQRtFN4lyxWx5/ygABO3jJHrZyJEhpTQR5T9nQuK7/FwQwDEpyLA5p+hHXmPKIp5Bs2cqOOhpAs9YNRrmR6g/aGDcMwDCMMnctWrVpJx1c9KqbrMOcDOtbM2XvttddkTiD3QxhlniBz9jAVff3115MOVNCE4G2Uju8mm2zittpqKzEfRVtHxx1hiXlf2cKz4qlSzey4Pp5EEbYQBHE4w73Jl0033dRtttlmrm3btiLEkoZiQt6QTrSqmMgiTKuwUij0/Xfo0CGZN3EhSrgjjYp/nnPkFVpVPIZqPDzMTpgwIfmcoPs40GHeqn4HvHPmszJncYkllpA4ceHbb78VD7sIgzgeIr3+MxnzWXhhPCqHQuKcYRiGYRhGVYOWgflyeGnE/IyFrosBTmWYK3jkkUdKB7x3797iOAVhjEXmmzVrJouFq6fHiy++2A0aNEg65XgGZct5Outs6fBDug6xdpjRemEGudNOO8l6dgMGDHBXXXWVLMyPwEVebLTRRiJ44piE9BG3T58+RVv2QUHAQUjmvqSJOWO+OWMhQRjGbBSBEIGdvCu0MJoN5AkCOvnCkgu+QAh438RpEE5hcJjE/FKcFfGueZ/MDUXY9VHNOA5r8LqLh1vKFn8PHDjQnX766TJgUGqBy78/jm/QZiLEYgJt5IYJhIZhGIZhGAE6Jw2BDGHj6aefFuFKhadCdIC5JtpAFg9v1KiRu//++6VTizdPzBQRyvD+iVfPJ554Qn5z3333SScdYYB0IkyizcNDKL+97rrrRIDJBgQI5iDioRRt0Zdffimd/5133jn5zFzv1FNPlbwgXeQPWkoc7wDCYiHyxod08j7wxEqe7LDDDnJc78v5QqSBPOba7du3l3xivT+EYoQP1cBpPmkoNuecc47MG33mmWfEpJZlQRhQIC04AELoe/nll8XclUXcGehgWQoEw1tvvdUdfPDByTmsCIcEng1zYdal3HzzzUXgRFBkrcrddttN4urzFxM/j/XdMM911KhR8sx77LGHHMe5jJE9CwWZKrnKP+EizGsu/qs2Gk7U2wxjb9cwDMMwwtAtokPJ8g1oVfDAydIOah5Zik5wfdGOcxieQc+xfh1eRfEc2dC5V4XIGzr8CCJffPGFO/fcc8V8EU+XeFZFQ+drCPXd5RvNK9bzQ0vGchs42UFTStrC+VxOZSQKfZ44PoefNsoGpqKUB7zAsu3WrVsy3YUqD/mHZ6oN306Z7JZYbHG3sDymHk+QXIMwiuA5a7J7VkxEw5iG0DAMwzAMI4F2INFA4bQFkzm0Y5gJlkfnshY6w8ypQquGKaEfOEZgrmGxzT5zBYEPr5YXXXSRzJNE84m5KM8XNhct1PtRIWTFFVcUzSywXiTzTNVsVO+dKQ16LSM3yDcC+Usg3ynf/fv3l3Kx8cYbS7nQuFCo8lCJmIawIol6m2Hs7RqGYRhGKugeoQnq16+f+/TTT2WeFhoqPCwWY7mDfIBZIOaNYTCnQ5hiThzrD+KllOfTuWP1pRAdcISua665RswdMV1k/hrLcYTvVUghQK8NCNCY7GLai4nvAQccIIvCA/H8+/u/0+PhOEZ2hPMSRzjMgUQopFycfPLJSTNZzpdXHvNstaFUGsI6AmEUVmTLlQyFxt6sYRiGYaSE7hEBr5ZXX321eOLEkQYdTxaKR6DCCU25CIdR6DPGqQOd6JbKHD0W5x8yZIjs492U+W8tWrSQ84rGh0I9Q/gevHfmWTK3E00Vc+qYq4dAEtZagv97pbwElnhAXiOQM9928ODBcmzDDTcUDT4DNcUoC4WBdNeG+gqECy9Euav/MycFQqMSSfVqrRIyDMMwjHT43SO8cOLhEwEFoZBOKHPJcG4SR0g7IUo4UTjPHCwEWvbj1IH+6quvJL/RDvIMzHHcf//9I9cd9N9TMZ+BJRhwsoPDHda/w6nLEUccIUuBhNPh5y9CDftxyu9yAYdHCIIfffSRlIs999xTvKaydEs4P8srfynDtcEEQsMwDMMwjBhCVwmtEI5mnn/+eXHfv/rqq8t8MjRXOGNpqLllqfCFlWKi3U/urWnALPSVV15xTz75pJjr4vkSzRsL4IeF26juaymeA9NFluiYOHGiCNg4mtl9993FI2mmdRrLS2gpDQjQOPPBSyrzXnEewxqU5DHeVMPrIZZnnqqgZwKhYRiGYRhGbKG7hFDIfLubb77ZjRs3To6tssoqsvbfdtttJ9q2cuuQ8gylSLN2P9liBsiyBnT46fyTHjr7zM/DDDPKLFd/71OK50AIRFuIIHv99dfLMeY44uQEjSFaZNXEUn5Y91HTWW5lpRjwXpnjygALmnl1isQgDIMClAtdp5M4fh6Wb36qoGcCoVEQUr1aq4AMwzAMoz5oh3XkyJGiycK8EYGmVatWsnZf586d3RprrJGIXViiOsDl0q0jD5mfidklWlcEQTRq7dq1k7XkcBSSjqjnLLVAgEfaRx55RBavR5gBBBiWQmBNvyhnONUO75E8UVNaygWmoeQhcwURBHF+1Lp1a9HII2gTT39XGVCWa0PJBcLoyzfk0kZpSV1oat+qvVnDMAzDqC90n+bOnSuePFncG2+HdFBZKH6ZZZZJxjEWRDvyrClIAATBo48+WgQn5oShDUJICJuKxh20hSxR8tBDD4lAQ/oJmBhj+rrtttsm13tEc1iupsb1hW+CoO+Vd6yMGDFCBgdY/J9vC+Fw3XXXdYcddph4wWUOKb+tTIGQZ6lxU7/9plYg5IjUH0FIPmbi70iIVP/8qCMQhm/RsEsbpSNdgVHs7RqGYRhGfUl0n6RTiingmDFjZF0/5pLNmzdPOrNGepo2beo6derkevToIWvIkZfl2tnXNGu5YMsgwTPPPCODBmhDEX7UnHSdddZx6623nnjHVAGxmiAvpk+f7t5++23RrI4aNUq0gZjUst5j+/btRbuKxj1cFsqtbGSGMsMzmUBo5JV0BUaxt2sYhmEY9UU7/qCCAIIhpoKvvvqqzImbMWOGmEGiCYLVVlstKfyoEKCmcoq/r/fw71VK0Gap5i4s8IbT+Ouvv8q8OgILh/Nc+myY1+IUhEXmyQeEAMV//nKDPCD9fl6QT2i7MINkmYp33nlHjhMPhyjLL7+869q1q9t6663FU6mvMeQ6BPJbNY1xR/PAx88XTINff/118diLJpW84bsBtIB7772322CDDWSNR/KC/GPLb33KuZwsCM/G85hAaOSVdAVGsbdrGIZhGA3B7+gq+jed3A8++EA0hwgD3377rZhH0qlHAGJOVJs2bcRUEsc0OMlAY6YOVLhO+NpxhPmTCHx09PES+vHHH4uWdOrUqZIHPANCD/Mq0Yoh/LBVwkIOv/EFgHIQgsB/T+xHlQuEG5wSUSbwTkoeMWhAHnJeNWPkD4MHzZo1E6c0mCCTD3o94sYNP20IsGjJKRc877Rp09znn38uy0XwHXCeb4DyTrnALHSLLbZwa621VvJ9h581nJeVBc/GM5lAaOSVdAVGsbdrGIZhGA2BLlS4c6rHdEvnl3llaELeffddmSeFlogOMecQfhAC2TL/kDl0mBKiLSJgYhgXoYjnQQOK+SOCH4v1ExDieEYCzwQ8D6aRaETp8PMcOjcQNF7Us4XzsBwgrUo4zf454DxCIPmFgIRGGZNJhCfOESgT5BeBwQLKRIcOHURQzGZJi2KD8MfAB/P/MJHlubRMqIacLc+z5ZZbikYUjSAOYzhGHkVpAzlGGSFQZuLyLeQXnpcyExOBMIr6X9ooLYUrNIZhGIZh1B+EAbQlCFN0ohEEmD+FCZ12jBW0Q2iO0KagMWKfgEkdAqQKkwSEBLYImxwncAwBg440HXLuzdbfR6DjnuzTgUd4Zb03TRdaLDSAHMMUFFTo4X6kDaEFTSedfDSfaLm4v4929PW3Pr4QECYqftxI92w+xEv1/GgMKRMI28yvI9/VrJLzOogA5LmWBeYhoknE/JYygZClZcIvC7pPmWCf81yP90/Qfb+MUC449vvvv7vffvtN1oekLGiZIH0E4lDGtOxyD9LImoEEBjoYGGCQg3trHvh54ZeBcnjn+YPn5nljIBAalUi6QmMYhmEYRqmh0415HZ3xX375Rcwt1bTu66+/lk64rx1hS9eNjj0deqDzTOC87munm3h08PU4v9Wg19ItEJd9OvYcB/+3CBuY9uE1k7leaK1Ihy9kkI4o+D3XSYemI1O8uJFtutPlgV4DELAoFwjoCFxol9G+ITSyVfR6vCvyn8A713uw1cB70aDHgGv4ZYAyyb4fKA9sSRdbrsFWQehr3ry5aDA32WQTMQVl0IJ5kn6Z0HuCvw/+9cLnKhuem+c1gdAwDMMwDMNIoN0zhEQ0MTofS/cRFJmTSAddg2p02PI3wh0ChXau6ZT7miI66mw1INSxxbwTF/908FULhQYKjU94LT0ECf7WY5ru6urQ5x/yNSx0KbxjygABYZFywRYNLmWC904gHlstD1pGdF/fHe+dsqDlQoMK+JzHrJPBALSQlAUtF5QJ/vaXhADd1+cw0sE7Jt9MIDQMwzAMwzCygE49HW2EQhX6fGHQ33JeoYOuHX8VDgnsc5zOPoICTmA0bq74QoHRcHLJTzSK6rUT4Q1zX/YpByoAUi4oE+yrQMj7R+hjbiIDDpgmYxqqAiGBcsI12danXBjpQBTjHZtAaBSEdIXGMAzDMIxyRrtw+RLAVJtjQl35o+8yF+z9lwq+Y/K7dAJhsqToLcLBKFei3qYfDMMwDMMw5mNCQOWQqzAI9fmNURnUefMmMlQKmd6gvWHDMAzDKHcQ4PIpxOm1TDCsbuz9Vx82FGAYhmEYhmEYhlGlmEBoGIZhGIZhGIZRpZhAaBiGYRiGYRiGUaXUEQixGPaDUa5keoP2hg3DMAzDMAzDQCBM+BZRESEcjHIl6m36wTAMwzAMwzCMaqdWQ2gOJyuUKEGQYBiGYRiGYRiGYXMIDcMwDMMwDMMwqpZagdCURoZhGIZhGIZhGFXHwiYMGoZhGIZhGIZhVCdmMmoYhmEYhmEYhlGlmEBoGIZhGIZhGIZRpZhAaBiGYRiGYRiGUaWYQGgYhmEYhmEYhlGlmEBoGIZhGIZhGIZREkIePoM/a/iPrewXnoX+qamxZekNwzAMwzAMwzCKDIKYioRTp37jlljsX25hkc5qRTQ9t5D8nUpsI5bGzBXn/h8Tv9VFvrX6EgAAAABJRU5ErkJggg==;" vertex="1" parent="1">
          <mxGeometry x="20" y="-1160" width="900" height="452" as="geometry" />
        </mxCell>
        <mxCell id="buVtFLvdcfRLBvJm5uAQ-3" value="Cliente" style="whiteSpace=wrap;html=1;align=center;" vertex="1" parent="1">
          <mxGeometry x="130" y="-604" width="100" height="40" as="geometry" />
        </mxCell>
        <mxCell id="buVtFLvdcfRLBvJm5uAQ-45" value="" style="edgeStyle=none;shape=connector;rounded=0;orthogonalLoop=1;jettySize=auto;html=1;strokeColor=default;align=center;verticalAlign=middle;fontFamily=Helvetica;fontSize=11;fontColor=default;labelBackgroundColor=default;endArrow=none;endFill=0;" edge="1" parent="1" source="buVtFLvdcfRLBvJm5uAQ-4" target="buVtFLvdcfRLBvJm5uAQ-42">
          <mxGeometry relative="1" as="geometry" />
        </mxCell>
        <mxCell id="buVtFLvdcfRLBvJm5uAQ-47" value="1" style="edgeLabel;html=1;align=center;verticalAlign=middle;resizable=0;points=[];fontFamily=Helvetica;fontSize=11;fontColor=default;labelBackgroundColor=default;" vertex="1" connectable="0" parent="buVtFLvdcfRLBvJm5uAQ-45">
          <mxGeometry x="-0.3" relative="1" as="geometry">
            <mxPoint as="offset" />
          </mxGeometry>
        </mxCell>
        <mxCell id="buVtFLvdcfRLBvJm5uAQ-4" value="Proveedor" style="whiteSpace=wrap;html=1;align=center;" vertex="1" parent="1">
          <mxGeometry x="600" y="-650" width="100" height="40" as="geometry" />
        </mxCell>
        <mxCell id="buVtFLvdcfRLBvJm5uAQ-44" value="" style="edgeStyle=none;shape=connector;rounded=0;orthogonalLoop=1;jettySize=auto;html=1;strokeColor=default;align=center;verticalAlign=middle;fontFamily=Helvetica;fontSize=11;fontColor=default;labelBackgroundColor=default;endArrow=none;endFill=0;" edge="1" parent="1" source="buVtFLvdcfRLBvJm5uAQ-5" target="buVtFLvdcfRLBvJm5uAQ-42">
          <mxGeometry relative="1" as="geometry" />
        </mxCell>
        <mxCell id="buVtFLvdcfRLBvJm5uAQ-46" value="N" style="edgeLabel;html=1;align=center;verticalAlign=middle;resizable=0;points=[];fontFamily=Helvetica;fontSize=11;fontColor=default;labelBackgroundColor=default;" vertex="1" connectable="0" parent="buVtFLvdcfRLBvJm5uAQ-44">
          <mxGeometry x="-0.12" y="-1" relative="1" as="geometry">
            <mxPoint as="offset" />
          </mxGeometry>
        </mxCell>
        <mxCell id="buVtFLvdcfRLBvJm5uAQ-48" value="" style="edgeStyle=none;shape=connector;rounded=0;orthogonalLoop=1;jettySize=auto;html=1;strokeColor=default;align=center;verticalAlign=middle;fontFamily=Helvetica;fontSize=11;fontColor=default;labelBackgroundColor=default;endArrow=none;endFill=0;" edge="1" parent="1" source="buVtFLvdcfRLBvJm5uAQ-5" target="buVtFLvdcfRLBvJm5uAQ-41">
          <mxGeometry relative="1" as="geometry" />
        </mxCell>
        <mxCell id="buVtFLvdcfRLBvJm5uAQ-50" value="N" style="edgeLabel;html=1;align=center;verticalAlign=middle;resizable=0;points=[];fontFamily=Helvetica;fontSize=11;fontColor=default;labelBackgroundColor=default;" vertex="1" connectable="0" parent="buVtFLvdcfRLBvJm5uAQ-48">
          <mxGeometry x="-0.4" relative="1" as="geometry">
            <mxPoint as="offset" />
          </mxGeometry>
        </mxCell>
        <mxCell id="buVtFLvdcfRLBvJm5uAQ-5" value="Pelicula" style="whiteSpace=wrap;html=1;align=center;" vertex="1" parent="1">
          <mxGeometry x="600" y="-460" width="100" height="40" as="geometry" />
        </mxCell>
        <mxCell id="buVtFLvdcfRLBvJm5uAQ-25" style="edgeStyle=none;shape=connector;rounded=0;orthogonalLoop=1;jettySize=auto;html=1;strokeColor=default;align=center;verticalAlign=middle;fontFamily=Helvetica;fontSize=11;fontColor=default;labelBackgroundColor=default;endArrow=none;endFill=0;" edge="1" parent="1" source="buVtFLvdcfRLBvJm5uAQ-6" target="buVtFLvdcfRLBvJm5uAQ-3">
          <mxGeometry relative="1" as="geometry" />
        </mxCell>
        <mxCell id="buVtFLvdcfRLBvJm5uAQ-6" value="edad" style="ellipse;whiteSpace=wrap;html=1;align=center;dashed=1;" vertex="1" parent="1">
          <mxGeometry x="280" y="-560" width="100" height="40" as="geometry" />
        </mxCell>
        <mxCell id="buVtFLvdcfRLBvJm5uAQ-22" style="rounded=0;orthogonalLoop=1;jettySize=auto;html=1;endArrow=none;endFill=0;" edge="1" parent="1" source="buVtFLvdcfRLBvJm5uAQ-8" target="buVtFLvdcfRLBvJm5uAQ-3">
          <mxGeometry relative="1" as="geometry" />
        </mxCell>
        <mxCell id="buVtFLvdcfRLBvJm5uAQ-8" value="Nro_Doc" style="ellipse;whiteSpace=wrap;html=1;align=center;fontStyle=4;" vertex="1" parent="1">
          <mxGeometry x="110" y="-690" width="100" height="40" as="geometry" />
        </mxCell>
        <mxCell id="buVtFLvdcfRLBvJm5uAQ-23" style="rounded=0;orthogonalLoop=1;jettySize=auto;html=1;endArrow=none;endFill=0;" edge="1" parent="1" source="buVtFLvdcfRLBvJm5uAQ-9" target="buVtFLvdcfRLBvJm5uAQ-3">
          <mxGeometry relative="1" as="geometry" />
        </mxCell>
        <mxCell id="buVtFLvdcfRLBvJm5uAQ-9" value="nombre" style="ellipse;whiteSpace=wrap;html=1;align=center;" vertex="1" parent="1">
          <mxGeometry x="220" y="-700" width="100" height="40" as="geometry" />
        </mxCell>
        <mxCell id="buVtFLvdcfRLBvJm5uAQ-27" style="edgeStyle=none;shape=connector;rounded=0;orthogonalLoop=1;jettySize=auto;html=1;strokeColor=default;align=center;verticalAlign=middle;fontFamily=Helvetica;fontSize=11;fontColor=default;labelBackgroundColor=default;endArrow=none;endFill=0;" edge="1" parent="1" source="buVtFLvdcfRLBvJm5uAQ-10" target="buVtFLvdcfRLBvJm5uAQ-3">
          <mxGeometry relative="1" as="geometry" />
        </mxCell>
        <mxCell id="buVtFLvdcfRLBvJm5uAQ-10" value="TipÃ³_doc" style="ellipse;whiteSpace=wrap;html=1;align=center;fontStyle=4;" vertex="1" parent="1">
          <mxGeometry y="-650" width="100" height="40" as="geometry" />
        </mxCell>
        <mxCell id="buVtFLvdcfRLBvJm5uAQ-24" style="edgeStyle=none;shape=connector;rounded=0;orthogonalLoop=1;jettySize=auto;html=1;strokeColor=default;align=center;verticalAlign=middle;fontFamily=Helvetica;fontSize=11;fontColor=default;labelBackgroundColor=default;endArrow=none;endFill=0;" edge="1" parent="1" source="buVtFLvdcfRLBvJm5uAQ-12" target="buVtFLvdcfRLBvJm5uAQ-3">
          <mxGeometry relative="1" as="geometry" />
        </mxCell>
        <mxCell id="buVtFLvdcfRLBvJm5uAQ-12" value="Telefono" style="ellipse;shape=doubleEllipse;margin=3;whiteSpace=wrap;html=1;align=center;" vertex="1" parent="1">
          <mxGeometry x="270" y="-660" width="100" height="40" as="geometry" />
        </mxCell>
        <mxCell id="buVtFLvdcfRLBvJm5uAQ-26" style="edgeStyle=none;shape=connector;rounded=0;orthogonalLoop=1;jettySize=auto;html=1;strokeColor=default;align=center;verticalAlign=middle;fontFamily=Helvetica;fontSize=11;fontColor=default;labelBackgroundColor=default;endArrow=none;endFill=0;" edge="1" parent="1" source="buVtFLvdcfRLBvJm5uAQ-13" target="buVtFLvdcfRLBvJm5uAQ-3">
          <mxGeometry relative="1" as="geometry" />
        </mxCell>
        <mxCell id="buVtFLvdcfRLBvJm5uAQ-13" value="domicilio" style="ellipse;whiteSpace=wrap;html=1;align=center;" vertex="1" parent="1">
          <mxGeometry x="270" y="-610" width="100" height="40" as="geometry" />
        </mxCell>
        <mxCell id="buVtFLvdcfRLBvJm5uAQ-17" style="edgeStyle=orthogonalEdgeStyle;rounded=0;orthogonalLoop=1;jettySize=auto;html=1;endArrow=none;endFill=0;" edge="1" parent="1" source="buVtFLvdcfRLBvJm5uAQ-16" target="buVtFLvdcfRLBvJm5uAQ-3">
          <mxGeometry relative="1" as="geometry">
            <Array as="points">
              <mxPoint x="75" y="-584" />
            </Array>
          </mxGeometry>
        </mxCell>
        <mxCell id="buVtFLvdcfRLBvJm5uAQ-19" value="1" style="edgeLabel;html=1;align=center;verticalAlign=middle;resizable=0;points=[];" vertex="1" connectable="0" parent="buVtFLvdcfRLBvJm5uAQ-17">
          <mxGeometry x="0.4157" y="-2" relative="1" as="geometry">
            <mxPoint as="offset" />
          </mxGeometry>
        </mxCell>
        <mxCell id="buVtFLvdcfRLBvJm5uAQ-18" style="edgeStyle=orthogonalEdgeStyle;rounded=0;orthogonalLoop=1;jettySize=auto;html=1;endArrow=none;endFill=0;" edge="1" parent="1" source="buVtFLvdcfRLBvJm5uAQ-16" target="buVtFLvdcfRLBvJm5uAQ-3">
          <mxGeometry relative="1" as="geometry">
            <Array as="points">
              <mxPoint x="75" y="-470" />
              <mxPoint x="150" y="-470" />
            </Array>
          </mxGeometry>
        </mxCell>
        <mxCell id="buVtFLvdcfRLBvJm5uAQ-20" value="N" style="edgeLabel;html=1;align=center;verticalAlign=middle;resizable=0;points=[];" vertex="1" connectable="0" parent="buVtFLvdcfRLBvJm5uAQ-18">
          <mxGeometry x="0.7626" y="-1" relative="1" as="geometry">
            <mxPoint as="offset" />
          </mxGeometry>
        </mxCell>
        <mxCell id="buVtFLvdcfRLBvJm5uAQ-16" value="Es extension de" style="shape=rhombus;perimeter=rhombusPerimeter;whiteSpace=wrap;html=1;align=center;" vertex="1" parent="1">
          <mxGeometry x="40" y="-550" width="70" height="60" as="geometry" />
        </mxCell>
        <mxCell id="buVtFLvdcfRLBvJm5uAQ-34" style="edgeStyle=none;shape=connector;rounded=0;orthogonalLoop=1;jettySize=auto;html=1;strokeColor=default;align=center;verticalAlign=middle;fontFamily=Helvetica;fontSize=11;fontColor=default;labelBackgroundColor=default;endArrow=none;endFill=0;" edge="1" parent="1" source="buVtFLvdcfRLBvJm5uAQ-28" target="buVtFLvdcfRLBvJm5uAQ-4">
          <mxGeometry relative="1" as="geometry" />
        </mxCell>
        <mxCell id="buVtFLvdcfRLBvJm5uAQ-28" value="Cuit" style="ellipse;whiteSpace=wrap;html=1;align=center;fontStyle=4;" vertex="1" parent="1">
          <mxGeometry x="470" y="-650" width="100" height="40" as="geometry" />
        </mxCell>
        <mxCell id="buVtFLvdcfRLBvJm5uAQ-35" style="edgeStyle=none;shape=connector;rounded=0;orthogonalLoop=1;jettySize=auto;html=1;strokeColor=default;align=center;verticalAlign=middle;fontFamily=Helvetica;fontSize=11;fontColor=default;labelBackgroundColor=default;endArrow=none;endFill=0;" edge="1" parent="1" source="buVtFLvdcfRLBvJm5uAQ-29" target="buVtFLvdcfRLBvJm5uAQ-4">
          <mxGeometry relative="1" as="geometry" />
        </mxCell>
        <mxCell id="buVtFLvdcfRLBvJm5uAQ-29" value="nombre" style="ellipse;whiteSpace=wrap;html=1;align=center;" vertex="1" parent="1">
          <mxGeometry x="680" y="-708" width="100" height="40" as="geometry" />
        </mxCell>
        <mxCell id="buVtFLvdcfRLBvJm5uAQ-36" style="edgeStyle=none;shape=connector;rounded=0;orthogonalLoop=1;jettySize=auto;html=1;strokeColor=default;align=center;verticalAlign=middle;fontFamily=Helvetica;fontSize=11;fontColor=default;labelBackgroundColor=default;endArrow=none;endFill=0;" edge="1" parent="1" source="buVtFLvdcfRLBvJm5uAQ-30" target="buVtFLvdcfRLBvJm5uAQ-4">
          <mxGeometry relative="1" as="geometry" />
        </mxCell>
        <mxCell id="buVtFLvdcfRLBvJm5uAQ-30" value="domicilio" style="ellipse;whiteSpace=wrap;html=1;align=center;" vertex="1" parent="1">
          <mxGeometry x="740" y="-660" width="100" height="40" as="geometry" />
        </mxCell>
        <mxCell id="buVtFLvdcfRLBvJm5uAQ-37" style="edgeStyle=none;shape=connector;rounded=0;orthogonalLoop=1;jettySize=auto;html=1;strokeColor=default;align=center;verticalAlign=middle;fontFamily=Helvetica;fontSize=11;fontColor=default;labelBackgroundColor=default;endArrow=none;endFill=0;" edge="1" parent="1" source="buVtFLvdcfRLBvJm5uAQ-31" target="buVtFLvdcfRLBvJm5uAQ-4">
          <mxGeometry relative="1" as="geometry" />
        </mxCell>
        <mxCell id="buVtFLvdcfRLBvJm5uAQ-31" value="Telefono" style="ellipse;shape=doubleEllipse;margin=3;whiteSpace=wrap;html=1;align=center;" vertex="1" parent="1">
          <mxGeometry x="720" y="-610" width="100" height="40" as="geometry" />
        </mxCell>
        <mxCell id="buVtFLvdcfRLBvJm5uAQ-33" style="edgeStyle=none;shape=connector;rounded=0;orthogonalLoop=1;jettySize=auto;html=1;strokeColor=default;align=center;verticalAlign=middle;fontFamily=Helvetica;fontSize=11;fontColor=default;labelBackgroundColor=default;endArrow=none;endFill=0;" edge="1" parent="1" source="buVtFLvdcfRLBvJm5uAQ-32" target="buVtFLvdcfRLBvJm5uAQ-4">
          <mxGeometry relative="1" as="geometry" />
        </mxCell>
        <mxCell id="buVtFLvdcfRLBvJm5uAQ-32" value="mail" style="ellipse;whiteSpace=wrap;html=1;align=center;" vertex="1" parent="1">
          <mxGeometry x="560" y="-708" width="100" height="40" as="geometry" />
        </mxCell>
        <mxCell id="buVtFLvdcfRLBvJm5uAQ-52" style="edgeStyle=none;shape=connector;rounded=0;orthogonalLoop=1;jettySize=auto;html=1;strokeColor=default;align=center;verticalAlign=middle;fontFamily=Helvetica;fontSize=11;fontColor=default;labelBackgroundColor=default;endArrow=none;endFill=0;" edge="1" parent="1" source="buVtFLvdcfRLBvJm5uAQ-38" target="buVtFLvdcfRLBvJm5uAQ-5">
          <mxGeometry relative="1" as="geometry" />
        </mxCell>
        <mxCell id="buVtFLvdcfRLBvJm5uAQ-38" value="cod_pel" style="ellipse;whiteSpace=wrap;html=1;align=center;fontStyle=4;" vertex="1" parent="1">
          <mxGeometry x="520" y="-380" width="100" height="40" as="geometry" />
        </mxCell>
        <mxCell id="buVtFLvdcfRLBvJm5uAQ-53" style="edgeStyle=none;shape=connector;rounded=0;orthogonalLoop=1;jettySize=auto;html=1;strokeColor=default;align=center;verticalAlign=middle;fontFamily=Helvetica;fontSize=11;fontColor=default;labelBackgroundColor=default;endArrow=none;endFill=0;" edge="1" parent="1" source="buVtFLvdcfRLBvJm5uAQ-39" target="buVtFLvdcfRLBvJm5uAQ-5">
          <mxGeometry relative="1" as="geometry" />
        </mxCell>
        <mxCell id="buVtFLvdcfRLBvJm5uAQ-39" value="titulo" style="ellipse;whiteSpace=wrap;html=1;align=center;" vertex="1" parent="1">
          <mxGeometry x="640" y="-380" width="100" height="40" as="geometry" />
        </mxCell>
        <mxCell id="buVtFLvdcfRLBvJm5uAQ-49" value="" style="edgeStyle=none;shape=connector;rounded=0;orthogonalLoop=1;jettySize=auto;html=1;strokeColor=default;align=center;verticalAlign=middle;fontFamily=Helvetica;fontSize=11;fontColor=default;labelBackgroundColor=default;endArrow=none;endFill=0;" edge="1" parent="1" source="buVtFLvdcfRLBvJm5uAQ-40" target="buVtFLvdcfRLBvJm5uAQ-41">
          <mxGeometry relative="1" as="geometry" />
        </mxCell>
        <mxCell id="buVtFLvdcfRLBvJm5uAQ-51" value="1" style="edgeLabel;html=1;align=center;verticalAlign=middle;resizable=0;points=[];fontFamily=Helvetica;fontSize=11;fontColor=default;labelBackgroundColor=default;" vertex="1" connectable="0" parent="buVtFLvdcfRLBvJm5uAQ-49">
          <mxGeometry x="-0.25" y="1" relative="1" as="geometry">
            <mxPoint as="offset" />
          </mxGeometry>
        </mxCell>
        <mxCell id="buVtFLvdcfRLBvJm5uAQ-40" value="Genero" style="whiteSpace=wrap;html=1;align=center;" vertex="1" parent="1">
          <mxGeometry x="860" y="-460" width="100" height="40" as="geometry" />
        </mxCell>
        <mxCell id="buVtFLvdcfRLBvJm5uAQ-41" value="Tiene" style="shape=rhombus;perimeter=rhombusPerimeter;whiteSpace=wrap;html=1;align=center;" vertex="1" parent="1">
          <mxGeometry x="750" y="-470" width="70" height="60" as="geometry" />
        </mxCell>
        <mxCell id="buVtFLvdcfRLBvJm5uAQ-42" value="provee" style="shape=rhombus;perimeter=rhombusPerimeter;whiteSpace=wrap;html=1;align=center;" vertex="1" parent="1">
          <mxGeometry x="615" y="-570" width="70" height="60" as="geometry" />
        </mxCell>
        <mxCell id="buVtFLvdcfRLBvJm5uAQ-55" style="edgeStyle=none;shape=connector;rounded=0;orthogonalLoop=1;jettySize=auto;html=1;strokeColor=default;align=center;verticalAlign=middle;fontFamily=Helvetica;fontSize=11;fontColor=default;labelBackgroundColor=default;endArrow=none;endFill=0;" edge="1" parent="1" source="buVtFLvdcfRLBvJm5uAQ-54" target="buVtFLvdcfRLBvJm5uAQ-5">
          <mxGeometry relative="1" as="geometry" />
        </mxCell>
        <mxCell id="buVtFLvdcfRLBvJm5uAQ-64" value="N" style="edgeLabel;html=1;align=center;verticalAlign=middle;resizable=0;points=[];fontFamily=Helvetica;fontSize=11;fontColor=default;labelBackgroundColor=default;" vertex="1" connectable="0" parent="buVtFLvdcfRLBvJm5uAQ-55">
          <mxGeometry x="0.7111" relative="1" as="geometry">
            <mxPoint as="offset" />
          </mxGeometry>
        </mxCell>
        <mxCell id="buVtFLvdcfRLBvJm5uAQ-56" style="edgeStyle=orthogonalEdgeStyle;shape=connector;rounded=0;orthogonalLoop=1;jettySize=auto;html=1;strokeColor=default;align=center;verticalAlign=middle;fontFamily=Helvetica;fontSize=11;fontColor=default;labelBackgroundColor=default;endArrow=none;endFill=0;" edge="1" parent="1" source="buVtFLvdcfRLBvJm5uAQ-54" target="buVtFLvdcfRLBvJm5uAQ-3">
          <mxGeometry relative="1" as="geometry">
            <Array as="points">
              <mxPoint x="180" y="-440" />
            </Array>
          </mxGeometry>
        </mxCell>
        <mxCell id="buVtFLvdcfRLBvJm5uAQ-63" value="N" style="edgeLabel;html=1;align=center;verticalAlign=middle;resizable=0;points=[];fontFamily=Helvetica;fontSize=11;fontColor=default;labelBackgroundColor=default;" vertex="1" connectable="0" parent="buVtFLvdcfRLBvJm5uAQ-56">
          <mxGeometry x="0.8435" y="-1" relative="1" as="geometry">
            <mxPoint as="offset" />
          </mxGeometry>
        </mxCell>
        <mxCell id="buVtFLvdcfRLBvJm5uAQ-54" value="Alquila" style="shape=rhombus;perimeter=rhombusPerimeter;whiteSpace=wrap;html=1;align=center;" vertex="1" parent="1">
          <mxGeometry x="350" y="-470" width="70" height="60" as="geometry" />
        </mxCell>
        <mxCell id="buVtFLvdcfRLBvJm5uAQ-58" style="edgeStyle=none;shape=connector;rounded=0;orthogonalLoop=1;jettySize=auto;html=1;strokeColor=default;align=center;verticalAlign=middle;fontFamily=Helvetica;fontSize=11;fontColor=default;labelBackgroundColor=default;endArrow=none;endFill=0;" edge="1" parent="1" source="buVtFLvdcfRLBvJm5uAQ-57" target="buVtFLvdcfRLBvJm5uAQ-54">
          <mxGeometry relative="1" as="geometry" />
        </mxCell>
        <mxCell id="buVtFLvdcfRLBvJm5uAQ-57" value="fecha" style="ellipse;whiteSpace=wrap;html=1;align=center;" vertex="1" parent="1">
          <mxGeometry x="270" y="-380" width="100" height="40" as="geometry" />
        </mxCell>
        <mxCell id="buVtFLvdcfRLBvJm5uAQ-60" style="edgeStyle=none;shape=connector;rounded=0;orthogonalLoop=1;jettySize=auto;html=1;strokeColor=default;align=center;verticalAlign=middle;fontFamily=Helvetica;fontSize=11;fontColor=default;labelBackgroundColor=default;endArrow=none;endFill=0;" edge="1" parent="1" source="buVtFLvdcfRLBvJm5uAQ-59" target="buVtFLvdcfRLBvJm5uAQ-40">
          <mxGeometry relative="1" as="geometry" />
        </mxCell>
        <mxCell id="buVtFLvdcfRLBvJm5uAQ-59" value="cod_genero" style="ellipse;whiteSpace=wrap;html=1;align=center;fontStyle=4;" vertex="1" parent="1">
          <mxGeometry x="940" y="-550" width="100" height="40" as="geometry" />
        </mxCell>
        <mxCell id="buVtFLvdcfRLBvJm5uAQ-62" style="edgeStyle=none;shape=connector;rounded=0;orthogonalLoop=1;jettySize=auto;html=1;strokeColor=default;align=center;verticalAlign=middle;fontFamily=Helvetica;fontSize=11;fontColor=default;labelBackgroundColor=default;endArrow=none;endFill=0;" edge="1" parent="1" source="buVtFLvdcfRLBvJm5uAQ-61" target="buVtFLvdcfRLBvJm5uAQ-40">
          <mxGeometry relative="1" as="geometry" />
        </mxCell>
        <mxCell id="buVtFLvdcfRLBvJm5uAQ-61" value="nombre" style="ellipse;whiteSpace=wrap;html=1;align=center;" vertex="1" parent="1">
          <mxGeometry x="970" y="-400" width="100" height="40" as="geometry" />
        </mxCell>
      </root>
    </mxGraphModel>
  </diagram>
</mxfile>
